SeymourExpand.ufo
<glyph name="exclam" format="1">
  <advance width="532"/>
  <unicode hex="0021"/>
  <outline>
    <contour>
      <point x="385" y="478" type="curve"/>
      <point x="386" y="476"/>
      <point x="388" y="475"/>
      <point x="389" y="475" type="curve" smooth="yes"/>
      <point x="427" y="475"/>
      <point x="512" y="1024"/>
      <point x="549" y="1180" type="curve"/>
      <point x="578" y="1293"/>
      <point x="634" y="1615"/>
      <point x="637" y="1631" type="curve"/>
      <point x="639" y="1635"/>
      <point x="640" y="1638"/>
      <point x="640" y="1641" type="curve"/>
      <point x="640" y="1642" type="line"/>
      <point x="532" y="1605" type="line" smooth="yes"/>
      <point x="443" y="1574"/>
      <point x="361" y="1547"/>
      <point x="279" y="1524" type="curve"/>
      <point x="270" y="1526"/>
      <point x="263" y="1527"/>
      <point x="258" y="1527" type="curve" smooth="yes"/>
      <point x="244" y="1527"/>
      <point x="240" y="1518"/>
      <point x="236" y="1489" type="curve"/>
      <point x="222" y="538" type="line"/>
      <point x="221" y="525"/>
      <point x="217" y="493"/>
      <point x="217" y="468" type="curve" smooth="yes"/>
      <point x="217" y="449"/>
      <point x="220" y="433"/>
      <point x="227" y="433" type="curve" smooth="yes"/>
      <point x="228" y="433"/>
      <point x="229" y="434"/>
      <point x="231" y="435" type="curve" smooth="yes"/>
      <point x="287" y="454"/>
      <point x="334" y="466"/>
    </contour>
    <contour>
      <point x="483" y="352" type="curve"/>
      <point x="470" y="352"/>
      <point x="450" y="342"/>
      <point x="435" y="338" type="curve" smooth="yes"/>
      <point x="322" y="308"/>
      <point x="221" y="280"/>
      <point x="123" y="258" type="curve"/>
      <point x="116" y="258" type="line" smooth="yes"/>
      <point x="92" y="258"/>
      <point x="89" y="246"/>
      <point x="86" y="203" type="curve"/>
      <point x="59" y="-85" type="line"/>
      <point x="180" y="-35"/>
      <point x="317" y="-9"/>
      <point x="435" y="20" type="curve"/>
      <point x="438" y="20" type="line" smooth="yes"/>
      <point x="504" y="20"/>
      <point x="493" y="344"/>
      <point x="497" y="364" type="curve"/>
      <point x="496" y="364"/>
      <point x="491" y="359"/>
    </contour>
    <contour>
      <point x="60" y="-101" type="curve"/>
      <point x="72" y="-87" type="line"/>
      <point x="68" y="-87"/>
      <point x="64" y="-87"/>
      <point x="59" y="-86" type="curve"/>
      <point x="58" y="-98" type="line"/>
      <point x="58" y="-98"/>
      <point x="59" y="-100"/>
    </contour>
    <contour>
      <point x="637" y="1644" type="curve"/>
      <point x="637" y="1643"/>
      <point x="638" y="1643"/>
      <point x="640" y="1642" type="curve" smooth="yes"/>
      <point x="639" y="1643"/>
      <point x="638" y="1644"/>
    </contour>
    <contour>
      <point x="57" y="-86" type="line"/>
      <point x="57" y="-85"/>
      <point x="58" y="-85"/>
      <point x="59" y="-85" type="curve"/>
      <point x="59" y="-86" type="line"/>
    </contour>
  </outline>
</glyph>
<glyph name="numbersign" format="1">
  <advance width="1702"/>
  <unicode hex="0023"/>
  <outline>
    <contour>
      <point x="269" y="701" type="line"/>
      <point x="240" y="700"/>
      <point x="233" y="685"/>
      <point x="218" y="672" type="curve"/>
      <point x="170" y="603"/>
      <point x="102" y="479"/>
      <point x="102" y="456" type="curve" smooth="yes"/>
      <point x="102" y="427"/>
      <point x="167" y="433"/>
      <point x="342" y="430" type="curve"/>
      <point x="315" y="319"/>
      <point x="290" y="221"/>
      <point x="258" y="101" type="curve"/>
      <point x="257" y="94"/>
      <point x="256" y="90"/>
      <point x="256" y="89" type="curve" smooth="yes"/>
      <point x="256" y="48"/>
      <point x="347" y="28"/>
      <point x="368" y="20" type="curve"/>
      <point x="558" y="-32" type="line"/>
      <point x="568" y="-37"/>
      <point x="577" y="-39"/>
      <point x="585" y="-39" type="curve" smooth="yes"/>
      <point x="605" y="-39"/>
      <point x="600" y="-16"/>
      <point x="605" y="5" type="curve" smooth="yes"/>
      <point x="709" y="427" type="line"/>
      <point x="769" y="426"/>
      <point x="826" y="425"/>
      <point x="886" y="425" type="curve"/>
      <point x="859" y="315"/>
      <point x="835" y="220"/>
      <point x="803" y="101" type="curve"/>
      <point x="802" y="94"/>
      <point x="801" y="90"/>
      <point x="801" y="89" type="curve" smooth="yes"/>
      <point x="801" y="48"/>
      <point x="892" y="28"/>
      <point x="913" y="20" type="curve"/>
      <point x="1103" y="-32" type="line"/>
      <point x="1113" y="-37"/>
      <point x="1122" y="-39"/>
      <point x="1130" y="-39" type="curve" smooth="yes"/>
      <point x="1150" y="-39"/>
      <point x="1145" y="-16"/>
      <point x="1150" y="5" type="curve" smooth="yes"/>
      <point x="1253" y="421" type="line"/>
      <point x="1298" y="420"/>
      <point x="1335" y="420"/>
      <point x="1362" y="420" type="curve" smooth="yes"/>
      <point x="1403" y="420" type="line" smooth="yes"/>
      <point x="1442" y="420"/>
      <point x="1449" y="430"/>
      <point x="1458" y="450" type="curve"/>
      <point x="1498" y="565"/>
      <point x="1545" y="680"/>
      <point x="1545" y="696" type="curve" smooth="yes"/>
      <point x="1545" y="717"/>
      <point x="1528" y="722"/>
      <point x="1517" y="722" type="curve" smooth="yes"/>
      <point x="1493" y="722"/>
      <point x="1413" y="713"/>
      <point x="1321" y="698" type="curve"/>
      <point x="1354" y="834" type="line"/>
      <point x="1401" y="834"/>
      <point x="1438" y="833"/>
      <point x="1468" y="833" type="curve" smooth="yes"/>
      <point x="1543" y="833"/>
      <point x="1571" y="838"/>
      <point x="1585" y="866" type="curve" smooth="yes"/>
      <point x="1632" y="959" type="line" smooth="yes"/>
      <point x="1668" y="1031"/>
      <point x="1691" y="1081"/>
      <point x="1692" y="1092" type="curve"/>
      <point x="1692" y="1113"/>
      <point x="1675" y="1118"/>
      <point x="1664" y="1118" type="curve" smooth="yes"/>
      <point x="1636" y="1118"/>
      <point x="1532" y="1105"/>
      <point x="1417" y="1089" type="curve"/>
      <point x="1499" y="1419" type="line"/>
      <point x="1499" y="1428"/>
      <point x="1490" y="1432"/>
      <point x="1481" y="1435" type="curve"/>
      <point x="1385" y="1451"/>
      <point x="1273" y="1496"/>
      <point x="1172" y="1528" type="curve"/>
      <point x="1165" y="1528" type="line" smooth="yes"/>
      <point x="1146" y="1528"/>
      <point x="1142" y="1515"/>
      <point x="1134" y="1476" type="curve" smooth="yes"/>
      <point x="1105" y="1343"/>
      <point x="1075" y="1215"/>
      <point x="1046" y="1086" type="curve"/>
      <point x="872" y="1089" type="line"/>
      <point x="954" y="1419" type="line"/>
      <point x="954" y="1428"/>
      <point x="945" y="1432"/>
      <point x="936" y="1435" type="curve"/>
      <point x="840" y="1451"/>
      <point x="728" y="1496"/>
      <point x="627" y="1528" type="curve"/>
      <point x="620" y="1528" type="line" smooth="yes"/>
      <point x="601" y="1528"/>
      <point x="598" y="1515"/>
      <point x="589" y="1476" type="curve" smooth="yes"/>
      <point x="560" y="1347"/>
      <point x="534" y="1222"/>
      <point x="503" y="1094" type="curve"/>
      <point x="326" y="1097" type="line"/>
      <point x="297" y="1096"/>
      <point x="290" y="1081"/>
      <point x="275" y="1068" type="curve"/>
      <point x="235" y="1001"/>
      <point x="179" y="874"/>
      <point x="179" y="852" type="curve" smooth="yes"/>
      <point x="179" y="832"/>
      <point x="218" y="827"/>
      <point x="298" y="827" type="curve" smooth="yes"/>
      <point x="437" y="827" type="line"/>
      <point x="405" y="699" type="line"/>
    </contour>
    <contour>
      <point x="775" y="693" type="line"/>
      <point x="809" y="830" type="line"/>
      <point x="866" y="830"/>
      <point x="923" y="831"/>
      <point x="983" y="831" type="curve"/>
      <point x="971" y="784"/>
      <point x="960" y="737"/>
      <point x="949" y="690" type="curve"/>
    </contour>
  </outline>
</glyph>
<glyph name="dollar" format="1">
  <advance width="993"/>
  <unicode hex="0024"/>
  <outline>
    <contour>
      <point x="762" y="1367" type="curve"/>
      <point x="778" y="1450"/>
      <point x="803" y="1566"/>
      <point x="803" y="1571" type="curve" smooth="yes"/>
      <point x="803" y="1575"/>
      <point x="802" y="1578"/>
      <point x="794" y="1578" type="curve"/>
      <point x="698" y="1563"/>
      <point x="594" y="1556"/>
      <point x="501" y="1549" type="curve"/>
      <point x="480" y="1546"/>
      <point x="488" y="1535"/>
      <point x="482" y="1500" type="curve" smooth="yes"/>
      <point x="451" y="1309" type="line"/>
      <point x="308" y="1282"/>
      <point x="151" y="1131"/>
      <point x="151" y="997" type="curve" smooth="yes"/>
      <point x="151" y="897"/>
      <point x="198" y="814"/>
      <point x="315" y="742" type="curve" smooth="yes"/>
      <point x="504" y="625"/>
      <point x="532" y="568"/>
      <point x="532" y="520" type="curve" smooth="yes"/>
      <point x="532" y="439"/>
      <point x="370" y="374"/>
      <point x="191" y="358" type="curve"/>
      <point x="168" y="254"/>
      <point x="143" y="159"/>
      <point x="123" y="55" type="curve"/>
      <point x="150" y="55" type="line" smooth="yes"/>
      <point x="194" y="54"/>
      <point x="239" y="57"/>
      <point x="278" y="59" type="curve" smooth="yes"/>
      <point x="357" y="62" type="line"/>
      <point x="346" y="-129" type="line"/>
      <point x="420" y="-130"/>
      <point x="549" y="-117"/>
      <point x="584" y="-118" type="curve" smooth="yes"/>
      <point x="663" y="-120" type="line"/>
      <point x="668" y="-22"/>
      <point x="680" y="122"/>
      <point x="683" y="167" type="curve"/>
      <point x="838" y="234"/>
      <point x="972" y="346"/>
      <point x="972" y="495" type="curve" smooth="yes"/>
      <point x="972" y="761"/>
      <point x="640" y="816"/>
      <point x="640" y="970" type="curve" smooth="yes"/>
      <point x="640" y="1055"/>
      <point x="783" y="1069"/>
      <point x="839" y="1069" type="curve" smooth="yes"/>
      <point x="884" y="1069"/>
      <point x="992" y="1054"/>
      <point x="997" y="1054" type="curve"/>
      <point x="970" y="1348" type="line"/>
      <point x="931" y="1353"/>
      <point x="858" y="1360"/>
    </contour>
  </outline>
</glyph>
<glyph name="percent" format="1">
  <advance width="2436"/>
  <unicode hex="0025"/>
  <outline>
    <contour>
      <point x="563" y="1347" type="curve" smooth="yes"/>
      <point x="671" y="1347"/>
      <point x="721" y="1228"/>
      <point x="721" y="1081" type="curve" smooth="yes"/>
      <point x="721" y="928"/>
      <point x="674" y="810"/>
      <point x="556" y="810" type="curve" smooth="yes"/>
      <point x="441" y="810"/>
      <point x="398" y="920"/>
      <point x="398" y="1071" type="curve" smooth="yes"/>
      <point x="398" y="1228"/>
      <point x="447" y="1347"/>
    </contour>
    <contour>
      <point x="554" y="616" type="curve" smooth="yes"/>
      <point x="831" y="616"/>
      <point x="988" y="827"/>
      <point x="988" y="1084" type="curve" smooth="yes"/>
      <point x="988" y="1314"/>
      <point x="852" y="1537"/>
      <point x="566" y="1537" type="curve" smooth="yes"/>
      <point x="271" y="1537"/>
      <point x="126" y="1316"/>
      <point x="126" y="1068" type="curve" smooth="yes"/>
      <point x="126" y="824"/>
      <point x="283" y="616"/>
    </contour>
    <contour>
      <point x="710" y="88" type="curve"/>
      <point x="740" y="83"/>
      <point x="772" y="78"/>
      <point x="807" y="75" type="curve"/>
      <point x="812" y="70"/>
      <point x="821" y="68"/>
      <point x="884" y="17" type="curve"/>
      <point x="922" y="14"/>
      <point x="955" y="13"/>
      <point x="990" y="13" type="curve"/>
      <point x="1018" y="66"/>
      <point x="1039" y="121"/>
      <point x="1068" y="179" type="curve"/>
      <point x="1269" y="521"/>
      <point x="1473" y="863"/>
      <point x="1674" y="1205" type="curve"/>
      <point x="1699" y="1259"/>
      <point x="1722" y="1312"/>
      <point x="1746" y="1366" type="curve"/>
      <point x="1714" y="1368"/>
      <point x="1620" y="1410"/>
      <point x="1559" y="1433" type="curve" smooth="yes"/>
      <point x="1558" y="1434"/>
      <point x="1557" y="1434"/>
      <point x="1555" y="1434" type="curve" smooth="yes"/>
      <point x="1519" y="1434"/>
      <point x="1487" y="1430"/>
      <point x="1448" y="1421" type="curve"/>
      <point x="1195" y="967"/>
      <point x="954" y="522"/>
    </contour>
    <contour>
      <point x="1941" y="681" type="curve" smooth="yes"/>
      <point x="2049" y="681"/>
      <point x="2098" y="563"/>
      <point x="2098" y="415" type="curve" smooth="yes"/>
      <point x="2098" y="263"/>
      <point x="2051" y="143"/>
      <point x="1933" y="143" type="curve" smooth="yes"/>
      <point x="1819" y="143"/>
      <point x="1775" y="255"/>
      <point x="1775" y="406" type="curve" smooth="yes"/>
      <point x="1775" y="562"/>
      <point x="1824" y="681"/>
    </contour>
    <contour>
      <point x="1931" y="-49" type="curve" smooth="yes"/>
      <point x="2209" y="-49"/>
      <point x="2366" y="162"/>
      <point x="2366" y="418" type="curve" smooth="yes"/>
      <point x="2366" y="647"/>
      <point x="2230" y="872"/>
      <point x="1943" y="872" type="curve" smooth="yes"/>
      <point x="1650" y="872"/>
      <point x="1504" y="649"/>
      <point x="1504" y="403" type="curve" smooth="yes"/>
      <point x="1504" y="159"/>
      <point x="1662" y="-49"/>
    </contour>
  </outline>
</glyph>
<glyph name="ampersand" format="1">
  <advance width="1507"/>
  <unicode hex="0026"/>
  <outline>
    <contour>
      <point x="1150" y="1144" type="curve" smooth="yes"/>
      <point x="1150" y="1369"/>
      <point x="955" y="1439"/>
      <point x="866" y="1439" type="curve" smooth="yes"/>
      <point x="822" y="1439"/>
      <point x="782" y="1432"/>
      <point x="747" y="1427" type="curve" smooth="yes"/>
      <point x="474" y="1385"/>
      <point x="359" y="1227"/>
      <point x="359" y="1064" type="curve" smooth="yes"/>
      <point x="359" y="954"/>
      <point x="385" y="837"/>
      <point x="457" y="728" type="curve"/>
      <point x="104" y="479"/>
      <point x="80" y="398"/>
      <point x="80" y="315" type="curve" smooth="yes"/>
      <point x="80" y="302"/>
      <point x="81" y="289"/>
      <point x="81" y="276" type="curve" smooth="yes"/>
      <point x="81" y="52"/>
      <point x="288" y="-56"/>
      <point x="494" y="-56" type="curve" smooth="yes"/>
      <point x="710" y="-56"/>
      <point x="775" y="-22"/>
      <point x="1100" y="146" type="curve"/>
      <point x="1336" y="7" type="line"/>
      <point x="1341" y="32"/>
      <point x="1512" y="227"/>
      <point x="1512" y="312" type="curve" smooth="yes"/>
      <point x="1512" y="318"/>
      <point x="1511" y="324"/>
      <point x="1509" y="329" type="curve"/>
      <point x="1510" y="330"/>
      <point x="1510" y="331"/>
      <point x="1510" y="333" type="curve" smooth="yes"/>
      <point x="1510" y="353"/>
      <point x="1438" y="397"/>
      <point x="1404" y="415" type="curve"/>
      <point x="1440" y="449"/>
      <point x="1572" y="542"/>
      <point x="1570" y="542" type="curve"/>
      <point x="1574" y="550"/>
      <point x="1576" y="560"/>
      <point x="1576" y="570" type="curve" smooth="yes"/>
      <point x="1576" y="640"/>
      <point x="1489" y="744"/>
      <point x="1463" y="765" type="curve"/>
      <point x="1369" y="690"/>
      <point x="1277" y="612"/>
      <point x="1185" y="535" type="curve"/>
      <point x="1180" y="546"/>
      <point x="1177" y="556"/>
      <point x="1174" y="556" type="curve" smooth="yes"/>
      <point x="1170" y="556"/>
      <point x="1166" y="552"/>
      <point x="1163" y="552" type="curve" smooth="yes"/>
      <point x="1156" y="552"/>
      <point x="1150" y="558"/>
      <point x="1143" y="564" type="curve" smooth="yes"/>
      <point x="891" y="755" type="line"/>
      <point x="1087" y="952"/>
      <point x="1150" y="1019"/>
    </contour>
    <contour>
      <point x="512" y="352" type="curve" smooth="yes"/>
      <point x="512" y="479"/>
      <point x="581" y="519"/>
      <point x="635" y="542" type="curve"/>
      <point x="850" y="337" type="line"/>
      <point x="733" y="236"/>
      <point x="645" y="238"/>
      <point x="623" y="238" type="curve" smooth="yes"/>
      <point x="517" y="238"/>
      <point x="512" y="314"/>
    </contour>
    <contour>
      <point x="685" y="1073" type="curve" smooth="yes"/>
      <point x="685" y="1132"/>
      <point x="710" y="1197"/>
      <point x="793" y="1197" type="curve" smooth="yes"/>
      <point x="837" y="1197"/>
      <point x="855" y="1167"/>
      <point x="855" y="1132" type="curve" smooth="yes"/>
      <point x="855" y="1092"/>
      <point x="824" y="1013"/>
      <point x="731" y="945" type="curve"/>
      <point x="699" y="972"/>
      <point x="685" y="1027"/>
    </contour>
    <contour>
      <point x="1346" y="2" type="line"/>
      <point x="1345" y="2"/>
      <point x="1344" y="1"/>
      <point x="1344" y="1" type="curve"/>
      <point x="1341" y="1"/>
      <point x="1336" y="1"/>
      <point x="1336" y="7" type="curve"/>
    </contour>
  </outline>
</glyph>
<glyph name="parenleft" format="1">
  <advance width="953"/>
  <unicode hex="0028"/>
  <outline>
    <contour>
      <point x="818" y="132" type="curve"/>
      <point x="768" y="142"/>
      <point x="729" y="184"/>
      <point x="700" y="245" type="curve"/>
      <point x="604" y="326"/>
      <point x="565" y="480"/>
      <point x="565" y="636" type="curve" smooth="yes"/>
      <point x="565" y="829"/>
      <point x="641" y="1026"/>
      <point x="753" y="1111" type="curve"/>
      <point x="785" y="1173"/>
      <point x="826" y="1216"/>
      <point x="874" y="1226" type="curve"/>
      <point x="874" y="1370"/>
      <point x="864" y="1474"/>
      <point x="858" y="1534" type="curve"/>
      <point x="608" y="1524"/>
      <point x="408" y="1389"/>
      <point x="291" y="1240" type="curve"/>
      <point x="145" y="1060"/>
      <point x="92" y="816"/>
      <point x="92" y="625" type="curve" smooth="yes"/>
      <point x="92" y="268"/>
      <point x="268" y="-69"/>
      <point x="647" y="-160" type="curve"/>
      <point x="650" y="-160" type="line"/>
      <point x="683" y="-169"/>
      <point x="716" y="-175"/>
      <point x="751" y="-175" type="curve" smooth="yes"/>
      <point x="765" y="-175"/>
      <point x="779" y="-174"/>
      <point x="794" y="-172" type="curve"/>
      <point x="803" y="-64"/>
      <point x="818" y="22"/>
    </contour>
  </outline>
</glyph>
<glyph name="asterisk" format="1">
  <advance width="1412"/>
  <unicode hex="002A"/>
  <outline>
    <contour>
      <point x="555" y="-436" type="line" smooth="yes"/>
      <point x="699" y="-442"/>
      <point x="775" y="-450"/>
      <point x="814" y="-450" type="curve" smooth="yes"/>
      <point x="833" y="-450"/>
      <point x="846" y="-452"/>
      <point x="846" y="-435" type="curve" smooth="yes"/>
      <point x="846" y="-428"/>
      <point x="843" y="-424"/>
      <point x="840" y="-423" type="curve"/>
      <point x="855" y="-423"/>
      <point x="853" y="-422"/>
      <point x="859" y="-365" type="curve" smooth="yes"/>
      <point x="867" y="-277"/>
      <point x="886" y="-210"/>
      <point x="900" y="-123" type="curve"/>
      <point x="969" y="-171"/>
      <point x="1125" y="-317"/>
      <point x="1167" y="-317" type="curve" smooth="yes"/>
      <point x="1180" y="-317"/>
      <point x="1190" y="-312"/>
      <point x="1197" y="-302" type="curve" smooth="yes"/>
      <point x="1266" y="-200"/>
      <point x="1313" y="-129"/>
      <point x="1333" y="-99" type="curve"/>
      <point x="1343" y="-61"/>
      <point x="1351" y="-55"/>
      <point x="1351" y="-51" type="curve"/>
      <point x="1346" y="-35"/>
      <point x="1126" y="146"/>
      <point x="1042" y="231" type="curve"/>
      <point x="1374" y="494"/>
      <point x="1367" y="486"/>
      <point x="1367" y="504" type="curve" smooth="yes"/>
      <point x="1367" y="509"/>
      <point x="1317" y="591"/>
      <point x="1199" y="776" type="curve" smooth="yes"/>
      <point x="1198" y="777"/>
      <point x="1197" y="777"/>
      <point x="1196" y="777" type="curve" smooth="yes"/>
      <point x="1195" y="777"/>
      <point x="1194" y="776"/>
      <point x="1193" y="776" type="curve" smooth="yes"/>
      <point x="1192" y="776"/>
      <point x="1191" y="777"/>
      <point x="1189" y="777" type="curve" smooth="yes"/>
      <point x="1161" y="777"/>
      <point x="1050" y="662"/>
      <point x="946" y="567" type="curve"/>
      <point x="961" y="708"/>
      <point x="989" y="812"/>
      <point x="989" y="904" type="curve" smooth="yes"/>
      <point x="989" y="922"/>
      <point x="990" y="943"/>
      <point x="975" y="943" type="curve"/>
      <point x="970" y="942"/>
      <point x="937" y="942"/>
      <point x="893" y="942" type="curve" smooth="yes"/>
      <point x="776" y="942" type="line" smooth="yes"/>
      <point x="716" y="942"/>
      <point x="659" y="941"/>
      <point x="635" y="940" type="curve"/>
      <point x="633" y="935"/>
      <point x="632" y="930"/>
      <point x="632" y="926" type="curve" smooth="yes"/>
      <point x="632" y="908"/>
      <point x="647" y="910"/>
      <point x="647" y="890" type="curve" smooth="yes"/>
      <point x="647" y="861"/>
      <point x="610" y="786"/>
      <point x="585" y="551" type="curve"/>
      <point x="517" y="606"/>
      <point x="345" y="764"/>
      <point x="313" y="764" type="curve" smooth="yes"/>
      <point x="285" y="764"/>
      <point x="246" y="682"/>
      <point x="221" y="640" type="curve" smooth="yes"/>
      <point x="155" y="529"/>
      <point x="136" y="498"/>
      <point x="136" y="491" type="curve" smooth="yes"/>
      <point x="136" y="477"/>
      <point x="232" y="404"/>
      <point x="461" y="231" type="curve"/>
      <point x="377" y="146"/>
      <point x="153" y="-39"/>
      <point x="153" y="-51" type="curve" smooth="yes"/>
      <point x="153" y="-54"/>
      <point x="161" y="-64"/>
      <point x="171" y="-99" type="curve"/>
      <point x="184" y="-121"/>
      <point x="233" y="-175"/>
      <point x="294" y="-251" type="curve"/>
      <point x="300" y="-261"/>
      <point x="311" y="-266"/>
      <point x="324" y="-266" type="curve" smooth="yes"/>
      <point x="355" y="-266"/>
      <point x="483" y="-167"/>
      <point x="540" y="-132" type="curve"/>
      <point x="532" y="-225"/>
      <point x="525" y="-308"/>
      <point x="519" y="-397" type="curve"/>
      <point x="520" y="-424"/>
      <point x="532" y="-436"/>
      <point x="551" y="-436" type="curve" smooth="yes"/>
    </contour>
  </outline>
</glyph>
<glyph name="plus" format="1">
  <advance width="1073"/>
  <unicode hex="002B"/>
  <outline>
    <contour>
      <point x="77" y="462" type="curve"/>
      <point x="112" y="452"/>
      <point x="163" y="450"/>
      <point x="232" y="450" type="curve" smooth="yes"/>
      <point x="279" y="450"/>
      <point x="335" y="450"/>
      <point x="400" y="452" type="curve"/>
      <point x="391" y="197" type="line"/>
      <point x="391" y="166"/>
      <point x="395" y="140"/>
      <point x="403" y="121" type="curve"/>
      <point x="490" y="121"/>
      <point x="604" y="120"/>
      <point x="686" y="120" type="curve"/>
      <point x="698" y="157"/>
      <point x="705" y="203"/>
      <point x="708" y="282" type="curve" smooth="yes"/>
      <point x="714" y="454" type="line"/>
      <point x="877" y="454" type="line" smooth="yes"/>
      <point x="951" y="454"/>
      <point x="987" y="456"/>
      <point x="1029" y="469" type="curve"/>
      <point x="1034" y="569" type="line"/>
      <point x="1036" y="644"/>
      <point x="1039" y="705"/>
      <point x="1039" y="746" type="curve"/>
      <point x="1022" y="756"/>
      <point x="998" y="757"/>
      <point x="976" y="757" type="curve" smooth="yes"/>
      <point x="914" y="757"/>
      <point x="817" y="756"/>
      <point x="724" y="756" type="curve"/>
      <point x="731" y="917"/>
      <point x="731" y="963"/>
      <point x="731" y="1022" type="curve" smooth="yes"/>
      <point x="731" y="1050"/>
      <point x="727" y="1070"/>
      <point x="720" y="1090" type="curve"/>
      <point x="503" y="1089" type="line" smooth="yes"/>
      <point x="481" y="1089"/>
      <point x="459" y="1088"/>
      <point x="437" y="1088" type="curve"/>
      <point x="413" y="1034"/>
      <point x="417" y="947"/>
      <point x="411" y="816" type="curve"/>
      <point x="411" y="754" type="line"/>
      <point x="171" y="751" type="line"/>
      <point x="139" y="750"/>
      <point x="115" y="745"/>
      <point x="97" y="738" type="curve"/>
      <point x="91" y="652"/>
      <point x="77" y="532"/>
    </contour>
  </outline>
</glyph>
<glyph name="comma" format="1">
  <advance width="652"/>
  <unicode hex="002C"/>
  <outline>
    <contour>
      <point x="147" y="-289" type="curve"/>
      <point x="159" y="-292"/>
      <point x="177" y="-295"/>
      <point x="199" y="-298" type="curve"/>
      <point x="245" y="-316"/>
      <point x="266" y="-322"/>
      <point x="283" y="-322" type="curve" smooth="yes"/>
      <point x="343" y="-322"/>
      <point x="522" y="-189"/>
      <point x="541" y="18" type="curve"/>
      <point x="541" y="40"/>
      <point x="544" y="64"/>
      <point x="544" y="92" type="curve"/>
      <point x="552" y="289" type="line" smooth="yes"/>
      <point x="553" y="309"/>
      <point x="551" y="327"/>
      <point x="550" y="344" type="curve"/>
      <point x="535" y="346"/>
      <point x="518" y="347"/>
      <point x="501" y="347" type="curve" smooth="yes"/>
      <point x="393" y="347"/>
      <point x="275" y="346"/>
      <point x="166" y="346" type="curve"/>
      <point x="147" y="292"/>
      <point x="143" y="114"/>
      <point x="143" y="44" type="curve" smooth="yes"/>
      <point x="143" y="-9" type="line"/>
      <point x="158" y="-13"/>
      <point x="188" y="-13"/>
      <point x="219" y="-13" type="curve" smooth="yes"/>
      <point x="282" y="-13" type="line"/>
      <point x="265" y="-68"/>
      <point x="244" y="-118"/>
      <point x="149" y="-171" type="curve"/>
      <point x="148" y="-210"/>
      <point x="147" y="-249"/>
    </contour>
  </outline>
</glyph>
<glyph name="hyphen" format="1">
  <advance width="958"/>
  <unicode hex="002D"/>
  <outline>
    <contour>
      <point x="323" y="832" type="line"/>
      <point x="262" y="828"/>
      <point x="96" y="575"/>
      <point x="96" y="554" type="curve" smooth="yes"/>
      <point x="96" y="531"/>
      <point x="135" y="526"/>
      <point x="215" y="526" type="curve" smooth="yes"/>
      <point x="316" y="526"/>
      <point x="570" y="531"/>
      <point x="810" y="536" type="curve"/>
      <point x="850" y="536"/>
      <point x="855" y="547"/>
      <point x="865" y="570" type="curve" smooth="yes"/>
      <point x="918" y="692"/>
      <point x="972" y="804"/>
      <point x="972" y="827" type="curve" smooth="yes"/>
      <point x="972" y="850"/>
      <point x="955" y="856"/>
      <point x="944" y="856" type="curve" smooth="yes"/>
      <point x="645" y="845" type="line"/>
    </contour>
  </outline>
</glyph>
<glyph name="period" format="1">
  <advance width="677"/>
  <unicode hex="002E"/>
  <outline>
    <contour>
      <point x="547" y="341" type="line"/>
      <point x="529" y="349"/>
      <point x="507" y="351"/>
      <point x="484" y="351" type="curve" smooth="yes"/>
      <point x="381" y="351"/>
      <point x="268" y="349"/>
      <point x="165" y="350" type="curve"/>
      <point x="148" y="311"/>
      <point x="145" y="202"/>
      <point x="145" y="118" type="curve" smooth="yes"/>
      <point x="145" y="46"/>
      <point x="145" y="17"/>
      <point x="147" y="-21" type="curve"/>
      <point x="206" y="-21" type="line" smooth="yes"/>
      <point x="316" y="-21"/>
      <point x="420" y="-20"/>
      <point x="523" y="-20" type="curve"/>
      <point x="533" y="-2"/>
      <point x="535" y="22"/>
      <point x="536" y="56" type="curve" smooth="yes"/>
    </contour>
  </outline>
</glyph>
<glyph name="slash" format="1">
  <advance width="1280"/>
  <unicode hex="002F"/>
  <outline>
    <contour>
      <point x="55" y="-119" type="curve"/>
      <point x="94" y="-137"/>
      <point x="203" y="-157"/>
      <point x="257" y="-163" type="curve"/>
      <point x="559" y="-168" type="line"/>
      <point x="582" y="-129"/>
      <point x="595" y="-84"/>
      <point x="615" y="-36" type="curve" smooth="yes"/>
      <point x="1239" y="1473" type="line"/>
      <point x="1253" y="1518"/>
      <point x="1263" y="1555"/>
      <point x="1271" y="1597" type="curve"/>
      <point x="1129" y="1604"/>
      <point x="1024" y="1615"/>
      <point x="894" y="1628" type="curve"/>
      <point x="860" y="1628"/>
      <point x="819" y="1629"/>
      <point x="783" y="1639" type="curve"/>
      <point x="729" y="1556"/>
      <point x="589" y="1189"/>
      <point x="512" y="1005" type="curve" smooth="yes"/>
      <point x="356" y="632"/>
      <point x="238" y="332"/>
      <point x="100" y="2" type="curve"/>
      <point x="85" y="-40"/>
      <point x="70" y="-79"/>
    </contour>
  </outline>
</glyph>
<glyph name="zero" format="1">
  <advance width="1633"/>
  <unicode hex="0030"/>
  <outline>
    <contour>
      <point x="881" y="266" type="curve" smooth="yes"/>
      <point x="643" y="266"/>
      <point x="586" y="516"/>
      <point x="586" y="718" type="curve" smooth="yes"/>
      <point x="586" y="931"/>
      <point x="658" y="1190"/>
      <point x="925" y="1190" type="curve" smooth="yes"/>
      <point x="1141" y="1190"/>
      <point x="1217" y="929"/>
      <point x="1217" y="770" type="curve" smooth="yes"/>
      <point x="1217" y="558"/>
      <point x="1140" y="266"/>
    </contour>
    <contour>
      <point x="869" y="-54" type="curve" smooth="yes"/>
      <point x="1301" y="-54"/>
      <point x="1637" y="222"/>
      <point x="1637" y="761" type="curve" smooth="yes"/>
      <point x="1637" y="1140"/>
      <point x="1413" y="1493"/>
      <point x="938" y="1493" type="curve" smooth="yes"/>
      <point x="427" y="1493"/>
      <point x="155" y="1142"/>
      <point x="155" y="666" type="curve" smooth="yes"/>
      <point x="155" y="206"/>
      <point x="479" y="-54"/>
    </contour>
  </outline>
</glyph>
<glyph name="one" format="1">
  <advance width="638"/>
  <unicode hex="0031"/>
  <outline>
    <contour>
      <point x="480" y="102" type="line"/>
      <point x="487" y="101"/>
      <point x="493" y="101"/>
      <point x="499" y="101" type="curve" smooth="yes"/>
      <point x="527" y="101"/>
      <point x="539" y="111"/>
      <point x="542" y="163" type="curve" smooth="yes"/>
      <point x="566" y="548"/>
      <point x="588" y="933"/>
      <point x="611" y="1318" type="curve" smooth="yes"/>
      <point x="617" y="1412" type="line"/>
      <point x="617" y="1426"/>
      <point x="616" y="1433"/>
      <point x="610" y="1434" type="curve"/>
      <point x="610" y="1437" type="line" smooth="yes"/>
      <point x="610" y="1444"/>
      <point x="607" y="1446"/>
      <point x="603" y="1446" type="curve" smooth="yes"/>
      <point x="599" y="1446"/>
      <point x="592" y="1445"/>
      <point x="583" y="1440" type="curve"/>
      <point x="521" y="1414"/>
      <point x="464" y="1400"/>
      <point x="402" y="1378" type="curve"/>
      <point x="268" y="1355" type="line"/>
      <point x="315" y="1374" type="line"/>
      <point x="315" y="1454" type="line"/>
      <point x="249" y="1434"/>
      <point x="219" y="1401"/>
      <point x="184" y="1327" type="curve"/>
      <point x="132" y="301"/>
      <point x="115" y="17"/>
      <point x="109" y="-29" type="curve"/>
      <point x="117" y="-56"/>
      <point x="138" y="-65"/>
      <point x="162" y="-65" type="curve"/>
      <point x="171" y="-50"/>
      <point x="181" y="-33"/>
      <point x="192" y="-16" type="curve"/>
    </contour>
    <contour>
      <point x="109" y="-29" type="curve"/>
      <point x="108" y="-34"/>
      <point x="108" y="-37"/>
      <point x="107" y="-37" type="curve"/>
      <point x="107" y="-18" type="line" smooth="yes"/>
      <point x="107" y="-22"/>
      <point x="108" y="-26"/>
    </contour>
  </outline>
</glyph>
<glyph name="two" format="1">
  <advance width="1096"/>
  <unicode hex="0032"/>
  <outline>
    <contour>
      <point x="92" y="-21" type="curve" smooth="yes"/>
      <point x="92" y="-29"/>
      <point x="101" y="-33"/>
      <point x="122" y="-33" type="curve" smooth="yes"/>
      <point x="154" y="-33"/>
      <point x="213" y="-24"/>
      <point x="310" y="-7" type="curve"/>
      <point x="492" y="-7"/>
      <point x="527" y="-4"/>
      <point x="892" y="1" type="curve"/>
      <point x="889" y="3"/>
      <point x="888" y="3"/>
      <point x="888" y="5" type="curve" smooth="yes"/>
      <point x="888" y="8"/>
      <point x="890" y="14"/>
      <point x="894" y="34" type="curve"/>
      <point x="894" y="33"/>
      <point x="895" y="33"/>
      <point x="895" y="33" type="curve"/>
      <point x="910" y="33"/>
      <point x="1002" y="212"/>
      <point x="1030" y="249" type="curve" smooth="yes"/>
      <point x="1056" y="283"/>
      <point x="1104" y="320"/>
      <point x="1104" y="366" type="curve"/>
      <point x="1108" y="372"/>
      <point x="1110" y="377"/>
      <point x="1110" y="381" type="curve" smooth="yes"/>
      <point x="1110" y="390"/>
      <point x="1100" y="394"/>
      <point x="1079" y="394" type="curve" smooth="yes"/>
      <point x="997" y="394"/>
      <point x="767" y="364"/>
      <point x="682" y="355" type="curve"/>
      <point x="680" y="354"/>
      <point x="678" y="353"/>
      <point x="676" y="353" type="curve" smooth="yes"/>
      <point x="675" y="353"/>
      <point x="675" y="354"/>
      <point x="674" y="354" type="curve"/>
      <point x="681" y="355" type="line"/>
      <point x="674" y="355" type="line"/>
      <point x="673" y="356"/>
      <point x="672" y="358"/>
      <point x="672" y="361" type="curve" smooth="yes"/>
      <point x="672" y="424"/>
      <point x="930" y="877"/>
      <point x="962" y="912" type="curve"/>
      <point x="1014" y="987"/>
      <point x="1042" y="1063"/>
      <point x="1042" y="1120" type="curve" smooth="yes"/>
      <point x="1042" y="1329"/>
      <point x="835" y="1492"/>
      <point x="679" y="1492" type="curve" smooth="yes"/>
      <point x="416" y="1492"/>
      <point x="309" y="1423"/>
      <point x="270" y="1423" type="curve" smooth="yes"/>
      <point x="259" y="1423"/>
      <point x="250" y="1429"/>
      <point x="250" y="1446" type="curve"/>
      <point x="246" y="1418"/>
      <point x="167" y="1176"/>
      <point x="167" y="1047" type="curve" smooth="yes"/>
      <point x="167" y="1043"/>
      <point x="169" y="1036"/>
      <point x="176" y="1036" type="curve" smooth="yes"/>
      <point x="181" y="1036"/>
      <point x="183" y="1031"/>
      <point x="198" y="1057" type="curve"/>
      <point x="275" y="1119"/>
      <point x="357" y="1149"/>
      <point x="434" y="1149" type="curve"/>
      <point x="435" y="1144"/>
      <point x="435" y="1140"/>
      <point x="435" y="1136" type="curve"/>
      <point x="585" y="1068"/>
      <point x="609" y="984"/>
      <point x="609" y="929" type="curve" smooth="yes"/>
      <point x="609" y="850"/>
      <point x="429" y="535"/>
      <point x="143" y="102" type="curve"/>
      <point x="114" y="52"/>
      <point x="93" y="13"/>
    </contour>
    <contour>
      <point x="683" y="356" type="line"/>
      <point x="682" y="355" type="line"/>
      <point x="681" y="355" type="line"/>
    </contour>
  </outline>
</glyph>
<glyph name="three" format="1">
  <advance width="1109"/>
  <unicode hex="0033"/>
  <outline>
    <contour>
      <point x="650" y="-48" type="curve" smooth="yes"/>
      <point x="893" y="-27"/>
      <point x="1076" y="201"/>
      <point x="1076" y="428" type="curve" smooth="yes"/>
      <point x="1076" y="645"/>
      <point x="959" y="742"/>
      <point x="878" y="788" type="curve"/>
      <point x="950" y="844"/>
      <point x="1056" y="950"/>
      <point x="1056" y="1119" type="curve" smooth="yes"/>
      <point x="1056" y="1378"/>
      <point x="800" y="1493"/>
      <point x="581" y="1493" type="curve" smooth="yes"/>
      <point x="460" y="1493"/>
      <point x="409" y="1489"/>
      <point x="259" y="1442" type="curve" smooth="yes"/>
      <point x="199" y="1423"/>
      <point x="192" y="1330"/>
      <point x="192" y="1246" type="curve" smooth="yes"/>
      <point x="192" y="1223"/>
      <point x="193" y="1202"/>
      <point x="193" y="1183" type="curve" smooth="yes"/>
      <point x="193" y="1162"/>
      <point x="192" y="1145"/>
      <point x="190" y="1133" type="curve"/>
      <point x="265" y="1157"/>
      <point x="375" y="1184"/>
      <point x="470" y="1184" type="curve" smooth="yes"/>
      <point x="558" y="1184"/>
      <point x="595" y="1121"/>
      <point x="595" y="1057" type="curve" smooth="yes"/>
      <point x="595" y="962"/>
      <point x="540" y="912"/>
      <point x="448" y="912" type="curve" smooth="yes"/>
      <point x="423" y="912"/>
      <point x="397" y="913"/>
      <point x="373" y="922" type="curve"/>
      <point x="365" y="922"/>
      <point x="356" y="910"/>
      <point x="348" y="867" type="curve"/>
      <point x="344" y="858"/>
      <point x="306" y="587"/>
      <point x="306" y="569" type="curve"/>
      <point x="486" y="569" type="line" smooth="yes"/>
      <point x="618" y="569"/>
      <point x="636" y="464"/>
      <point x="636" y="400" type="curve" smooth="yes"/>
      <point x="636" y="299"/>
      <point x="585" y="261"/>
      <point x="485" y="261" type="curve" smooth="yes"/>
      <point x="329" y="261"/>
      <point x="231" y="337"/>
      <point x="137" y="396" type="curve"/>
      <point x="134" y="397"/>
      <point x="131" y="398"/>
      <point x="128" y="398" type="curve" smooth="yes"/>
      <point x="113" y="398"/>
      <point x="96" y="386"/>
      <point x="96" y="367" type="curve" smooth="yes"/>
      <point x="96" y="363"/>
      <point x="96" y="360"/>
      <point x="97" y="359" type="curve"/>
      <point x="105" y="326"/>
      <point x="125" y="167"/>
      <point x="130" y="132" type="curve" smooth="yes"/>
      <point x="133" y="108"/>
      <point x="128" y="60"/>
      <point x="163" y="52" type="curve"/>
      <point x="315" y="-12"/>
      <point x="419" y="-52"/>
      <point x="570" y="-52" type="curve" smooth="yes"/>
      <point x="595" y="-52"/>
      <point x="622" y="-51"/>
    </contour>
  </outline>
</glyph>
<glyph name="five" format="1">
  <advance width="975"/>
  <unicode hex="0035"/>
  <outline>
    <contour>
      <point x="222" y="303" type="curve" smooth="yes"/>
      <point x="159" y="303"/>
      <point x="121" y="310"/>
      <point x="72" y="310" type="curve" smooth="yes"/>
      <point x="68" y="310"/>
      <point x="50" y="311"/>
      <point x="50" y="308" type="curve" smooth="yes"/>
      <point x="50" y="302"/>
      <point x="52" y="288"/>
      <point x="52" y="268" type="curve" smooth="yes"/>
      <point x="52" y="261"/>
      <point x="52" y="253"/>
      <point x="51" y="244" type="curve"/>
      <point x="43" y="-108" type="line"/>
      <point x="43" y="-109"/>
      <point x="45" y="-110"/>
      <point x="49" y="-110" type="curve" smooth="yes"/>
      <point x="82" y="-110"/>
      <point x="227" y="-78"/>
      <point x="250" y="-61" type="curve"/>
      <point x="333" y="-56"/>
      <point x="418" y="-44"/>
      <point x="498" y="-24" type="curve"/>
      <point x="707" y="44"/>
      <point x="963" y="171"/>
      <point x="963" y="548" type="curve" smooth="yes"/>
      <point x="963" y="806"/>
      <point x="825" y="914"/>
      <point x="649" y="985" type="curve" smooth="yes"/>
      <point x="606" y="1002"/>
      <point x="565" y="1026"/>
      <point x="511" y="1046" type="curve"/>
      <point x="511" y="1099"/>
      <point x="520" y="1117"/>
      <point x="544" y="1117" type="curve" smooth="yes"/>
      <point x="562" y="1117"/>
      <point x="586" y="1107"/>
      <point x="618" y="1094" type="curve"/>
      <point x="633" y="1094"/>
      <point x="654" y="1093"/>
      <point x="672" y="1093" type="curve" smooth="yes"/>
      <point x="779" y="1093"/>
      <point x="894" y="1106"/>
      <point x="902" y="1217" type="curve"/>
      <point x="933" y="1302"/>
      <point x="999" y="1542"/>
      <point x="1007" y="1554" type="curve" smooth="yes"/>
      <point x="1010" y="1560"/>
      <point x="1011" y="1568"/>
      <point x="1011" y="1577" type="curve" smooth="yes"/>
      <point x="1011" y="1579"/>
      <point x="1010" y="1580"/>
      <point x="1009" y="1580" type="curve" smooth="yes"/>
      <point x="1007" y="1580"/>
      <point x="1002" y="1576"/>
      <point x="994" y="1567" type="curve"/>
      <point x="761" y="1525"/>
      <point x="546" y="1492"/>
      <point x="317" y="1455" type="curve"/>
      <point x="272" y="1203"/>
      <point x="201" y="949"/>
      <point x="188" y="694" type="curve"/>
      <point x="183" y="678"/>
      <point x="182" y="667"/>
      <point x="181" y="661" type="curve"/>
      <point x="181" y="650"/>
      <point x="185" y="646"/>
      <point x="194" y="646" type="curve" smooth="yes"/>
      <point x="197" y="646" type="line"/>
      <point x="196" y="647" type="line"/>
      <point x="196" y="647"/>
      <point x="212" y="669"/>
      <point x="254" y="679" type="curve"/>
      <point x="361" y="679"/>
      <point x="450" y="648"/>
      <point x="478" y="589" type="curve"/>
      <point x="486" y="551"/>
      <point x="492" y="526"/>
      <point x="492" y="481" type="curve" smooth="yes"/>
      <point x="492" y="315"/>
      <point x="342" y="303"/>
    </contour>
  </outline>
</glyph>
<glyph name="six" format="1">
  <advance width="1241"/>
  <unicode hex="0036"/>
  <outline>
    <contour>
      <point x="1019" y="1582" type="curve"/>
      <point x="1001" y="1598"/>
      <point x="976" y="1612"/>
      <point x="944" y="1624" type="curve"/>
      <point x="943" y="1624" type="line"/>
      <point x="927" y="1624"/>
      <point x="714" y="1539"/>
      <point x="696" y="1539" type="curve" smooth="yes"/>
      <point x="660" y="1539"/>
      <point x="642" y="1486"/>
      <point x="630" y="1452" type="curve"/>
      <point x="510" y="1177"/>
      <point x="318" y="1017"/>
      <point x="190" y="810" type="curve"/>
      <point x="149" y="706"/>
      <point x="127" y="598"/>
      <point x="127" y="481" type="curve" smooth="yes"/>
      <point x="127" y="239"/>
      <point x="264" y="-52"/>
      <point x="635" y="-52" type="curve" smooth="yes"/>
      <point x="1042" y="-52"/>
      <point x="1264" y="186"/>
      <point x="1264" y="576" type="curve" smooth="yes"/>
      <point x="1264" y="798"/>
      <point x="1136" y="1053"/>
      <point x="867" y="1053" type="curve" smooth="yes"/>
      <point x="824" y="1053" type="line" smooth="yes"/>
      <point x="811" y="1053"/>
      <point x="798" y="1053"/>
      <point x="781" y="1051" type="curve"/>
      <point x="834" y="1084"/>
      <point x="853" y="1159"/>
      <point x="871" y="1256" type="curve"/>
      <point x="909" y="1353"/>
      <point x="944" y="1457"/>
    </contour>
    <contour>
      <point x="738" y="811" type="curve" smooth="yes"/>
      <point x="823" y="811"/>
      <point x="840" y="744"/>
      <point x="840" y="672" type="curve" smooth="yes"/>
      <point x="840" y="633"/>
      <point x="835" y="599"/>
      <point x="832" y="562" type="curve"/>
      <point x="826" y="451"/>
      <point x="811" y="280"/>
      <point x="683" y="280" type="curve" smooth="yes"/>
      <point x="607" y="280"/>
      <point x="588" y="390"/>
      <point x="588" y="466" type="curve" smooth="yes"/>
      <point x="588" y="526"/>
      <point x="598" y="572"/>
      <point x="618" y="652" type="curve"/>
      <point x="646" y="750"/>
      <point x="667" y="811"/>
    </contour>
  </outline>
</glyph>
<glyph name="seven" format="1">
  <advance width="1033"/>
  <unicode hex="0037"/>
  <outline>
    <contour>
      <point x="1123" y="1454" type="curve"/>
      <point x="885" y="1454"/>
      <point x="824" y="1452"/>
      <point x="341" y="1447" type="curve" smooth="yes"/>
      <point x="328" y="1447"/>
      <point x="334" y="1443"/>
      <point x="312" y="1402" type="curve"/>
      <point x="247" y="1268"/>
      <point x="186" y="1166"/>
      <point x="121" y="1035" type="curve"/>
      <point x="121" y="1037"/>
      <point x="120" y="1038"/>
      <point x="119" y="1038" type="curve" smooth="yes"/>
      <point x="109" y="1038"/>
      <point x="96" y="1005"/>
      <point x="96" y="1003" type="curve" smooth="yes"/>
      <point x="96" y="989"/>
      <point x="184" y="994"/>
      <point x="257" y="994" type="curve" smooth="yes"/>
      <point x="382" y="994"/>
      <point x="540" y="994"/>
      <point x="667" y="998" type="curve"/>
      <point x="484" y="521" type="line"/>
      <point x="334" y="147"/>
      <point x="231" y="-129"/>
      <point x="231" y="-129" type="curve"/>
      <point x="231" y="-129"/>
      <point x="231" y="-128"/>
      <point x="232" y="-127" type="curve" smooth="yes"/>
      <point x="230" y="-133"/>
      <point x="229" y="-139"/>
      <point x="229" y="-145" type="curve" smooth="yes"/>
      <point x="229" y="-152"/>
      <point x="231" y="-158"/>
      <point x="235" y="-162" type="curve"/>
      <point x="319" y="-146"/>
      <point x="449" y="-122"/>
      <point x="557" y="-92" type="curve"/>
      <point x="558" y="-97"/>
      <point x="559" y="-100"/>
      <point x="562" y="-100" type="curve" smooth="yes"/>
      <point x="588" y="-100"/>
      <point x="709" y="244"/>
      <point x="903" y="750" type="curve"/>
      <point x="1132" y="1355" type="line"/>
      <point x="1158" y="1415"/>
      <point x="1172" y="1455"/>
      <point x="1172" y="1481" type="curve" smooth="yes"/>
      <point x="1172" y="1482"/>
      <point x="1171" y="1482"/>
      <point x="1170" y="1482" type="curve" smooth="yes"/>
      <point x="1165" y="1482"/>
      <point x="1149" y="1473"/>
    </contour>
    <contour>
      <point x="252" y="-167" type="curve"/>
      <point x="238" y="-164" type="line"/>
      <point x="241" y="-166"/>
      <point x="246" y="-167"/>
    </contour>
    <contour>
      <point x="238" y="-164" type="curve"/>
      <point x="236" y="-164"/>
      <point x="234" y="-163"/>
      <point x="232" y="-163" type="curve"/>
      <point x="233" y="-162"/>
      <point x="233" y="-162"/>
      <point x="235" y="-162" type="curve"/>
      <point x="236" y="-163"/>
      <point x="237" y="-164"/>
    </contour>
  </outline>
</glyph>
<glyph name="eight" format="1">
  <advance width="1223"/>
  <unicode hex="0038"/>
  <outline>
    <contour>
      <point x="1148" y="1138" type="curve" smooth="yes"/>
      <point x="1148" y="1379"/>
      <point x="930" y="1493"/>
      <point x="784" y="1493" type="curve" smooth="yes"/>
      <point x="529" y="1493"/>
      <point x="219" y="1390"/>
      <point x="219" y="1074" type="curve" smooth="yes"/>
      <point x="219" y="972"/>
      <point x="247" y="879"/>
      <point x="341" y="810" type="curve"/>
      <point x="234" y="679"/>
      <point x="122" y="579"/>
      <point x="122" y="369" type="curve" smooth="yes"/>
      <point x="122" y="47"/>
      <point x="398" y="-54"/>
      <point x="593" y="-54" type="curve" smooth="yes"/>
      <point x="828" y="-54"/>
      <point x="1207" y="94"/>
      <point x="1207" y="438" type="curve" smooth="yes"/>
      <point x="1207" y="640"/>
      <point x="1129" y="750"/>
      <point x="1032" y="832" type="curve"/>
      <point x="1078" y="906"/>
      <point x="1148" y="1003"/>
    </contour>
    <contour>
      <point x="780" y="440" type="curve" smooth="yes"/>
      <point x="780" y="376"/>
      <point x="779" y="122"/>
      <point x="694" y="122" type="curve" smooth="yes"/>
      <point x="584" y="122"/>
      <point x="585" y="303"/>
      <point x="585" y="398" type="curve" smooth="yes"/>
      <point x="585" y="486"/>
      <point x="591" y="682"/>
      <point x="695" y="682" type="curve" smooth="yes"/>
      <point x="699" y="682"/>
      <point x="703" y="682"/>
      <point x="708" y="681" type="curve"/>
      <point x="711" y="682"/>
      <point x="714" y="682"/>
      <point x="717" y="682" type="curve" smooth="yes"/>
      <point x="780" y="682"/>
      <point x="780" y="514"/>
    </contour>
    <contour>
      <point x="592" y="1091" type="curve" smooth="yes"/>
      <point x="592" y="1168"/>
      <point x="605" y="1297"/>
      <point x="684" y="1297" type="curve" smooth="yes"/>
      <point x="767" y="1297"/>
      <point x="774" y="1169"/>
      <point x="774" y="1103" type="curve" smooth="yes"/>
      <point x="774" y="1034"/>
      <point x="770" y="903"/>
      <point x="690" y="903" type="curve" smooth="yes"/>
      <point x="687" y="903"/>
      <point x="683" y="903"/>
      <point x="679" y="904" type="curve"/>
      <point x="675" y="903"/>
      <point x="670" y="903"/>
      <point x="667" y="903" type="curve" smooth="yes"/>
      <point x="600" y="903"/>
      <point x="592" y="1028"/>
    </contour>
  </outline>
</glyph>
<glyph name="nine" format="1">
  <advance width="1289"/>
  <unicode hex="0039"/>
  <outline>
    <contour>
      <point x="1320" y="949" type="curve" smooth="yes"/>
      <point x="1320" y="1162"/>
      <point x="1132" y="1496"/>
      <point x="823" y="1496" type="curve" smooth="yes"/>
      <point x="789" y="1496"/>
      <point x="749" y="1489"/>
      <point x="714" y="1481" type="curve"/>
      <point x="411" y="1425"/>
      <point x="118" y="1182"/>
      <point x="118" y="833" type="curve" smooth="yes"/>
      <point x="118" y="597"/>
      <point x="297" y="351"/>
      <point x="537" y="351" type="curve" smooth="yes"/>
      <point x="597" y="351"/>
      <point x="662" y="362"/>
      <point x="723" y="378" type="curve"/>
      <point x="690" y="335"/>
      <point x="665" y="210"/>
      <point x="641" y="82" type="curve"/>
      <point x="642" y="60"/>
      <point x="647" y="35"/>
      <point x="647" y="5" type="curve" smooth="yes"/>
      <point x="647" y="-18"/>
      <point x="644" y="-44"/>
      <point x="634" y="-75" type="curve"/>
      <point x="657" y="-86"/>
      <point x="685" y="-97"/>
      <point x="717" y="-105" type="curve"/>
      <point x="717" y="-89"/>
      <point x="749" y="-79"/>
      <point x="777" y="-79" type="curve" smooth="yes"/>
      <point x="783" y="-79"/>
      <point x="788" y="-79"/>
      <point x="793" y="-80" type="curve"/>
      <point x="1011" y="221"/>
      <point x="1320" y="566"/>
    </contour>
    <contour>
      <point x="565" y="926" type="curve" smooth="yes"/>
      <point x="565" y="1045"/>
      <point x="602" y="1223"/>
      <point x="746" y="1223" type="curve" smooth="yes"/>
      <point x="837" y="1223"/>
      <point x="851" y="1080"/>
      <point x="851" y="990" type="curve" smooth="yes"/>
      <point x="851" y="836"/>
      <point x="847" y="836"/>
      <point x="805" y="663" type="curve"/>
      <point x="782" y="655"/>
      <point x="775" y="653"/>
      <point x="773" y="653" type="curve" smooth="yes"/>
      <point x="773" y="653"/>
      <point x="774" y="654"/>
      <point x="774" y="655" type="curve"/>
      <point x="628" y="655"/>
      <point x="565" y="787"/>
    </contour>
    <contour>
      <point x="816" y="-111" type="curve"/>
      <point x="795" y="-116"/>
      <point x="783" y="-120"/>
      <point x="760" y="-128" type="curve"/>
      <point x="793" y="-80" type="line"/>
      <point x="808" y="-83"/>
      <point x="819" y="-89"/>
      <point x="819" y="-100" type="curve" smooth="yes"/>
      <point x="819" y="-104"/>
      <point x="818" y="-107"/>
    </contour>
  </outline>
</glyph>
<glyph name="colon" format="1">
  <advance width="690"/>
  <unicode hex="003A"/>
  <outline>
    <contour>
      <point x="617" y="297" type="line"/>
      <point x="618" y="301"/>
      <point x="618" y="304"/>
      <point x="618" y="307" type="curve" smooth="yes"/>
      <point x="618" y="326"/>
      <point x="603" y="331"/>
      <point x="586" y="331" type="curve" smooth="yes"/>
      <point x="472" y="331"/>
      <point x="342" y="325"/>
      <point x="230" y="325" type="curve" smooth="yes"/>
      <point x="226" y="325" type="line" smooth="yes"/>
      <point x="179" y="325"/>
      <point x="174" y="129"/>
      <point x="174" y="3" type="curve" smooth="yes"/>
      <point x="174" y="-87" type="line"/>
      <point x="244" y="-87" type="line" smooth="yes"/>
      <point x="351" y="-87"/>
      <point x="449" y="-85"/>
      <point x="543" y="-83" type="curve"/>
      <point x="547" y="-84"/>
      <point x="551" y="-84"/>
      <point x="555" y="-84" type="curve" smooth="yes"/>
      <point x="575" y="-84"/>
      <point x="576" y="-72"/>
      <point x="582" y="-31" type="curve"/>
    </contour>
    <contour>
      <point x="643" y="1080" type="line" smooth="yes"/>
      <point x="644" y="1085"/>
      <point x="645" y="1089"/>
      <point x="645" y="1093" type="curve" smooth="yes"/>
      <point x="645" y="1110"/>
      <point x="632" y="1114"/>
      <point x="617" y="1114" type="curve" smooth="yes"/>
      <point x="603" y="1114"/>
      <point x="587" y="1111"/>
      <point x="576" y="1111" type="curve" smooth="yes"/>
      <point x="472" y="1109"/>
      <point x="356" y="1108"/>
      <point x="256" y="1108" type="curve" smooth="yes"/>
      <point x="253" y="1108" type="line" smooth="yes"/>
      <point x="191" y="1108"/>
      <point x="199" y="770"/>
      <point x="199" y="692" type="curve"/>
      <point x="201" y="696" type="line"/>
      <point x="261" y="696" type="line" smooth="yes"/>
      <point x="371" y="696"/>
      <point x="472" y="698"/>
      <point x="569" y="700" type="curve"/>
      <point x="576" y="698"/>
      <point x="582" y="697"/>
      <point x="586" y="697" type="curve" smooth="yes"/>
      <point x="601" y="697"/>
      <point x="602" y="709"/>
      <point x="607" y="744" type="curve"/>
    </contour>
  </outline>
</glyph>
<glyph name="semicolon" format="1">
  <advance width="669"/>
  <unicode hex="003B"/>
  <outline>
    <contour>
      <point x="221" y="-311" type="curve"/>
      <point x="233" y="-314"/>
      <point x="251" y="-317"/>
      <point x="273" y="-320" type="curve"/>
      <point x="319" y="-338"/>
      <point x="340" y="-344"/>
      <point x="357" y="-344" type="curve" smooth="yes"/>
      <point x="417" y="-344"/>
      <point x="596" y="-210"/>
      <point x="615" y="-4" type="curve"/>
      <point x="615" y="18"/>
      <point x="618" y="43"/>
      <point x="618" y="70" type="curve"/>
      <point x="626" y="268" type="line" smooth="yes"/>
      <point x="627" y="287"/>
      <point x="625" y="305"/>
      <point x="624" y="322" type="curve"/>
      <point x="609" y="324"/>
      <point x="592" y="325"/>
      <point x="575" y="325" type="curve" smooth="yes"/>
      <point x="467" y="325"/>
      <point x="349" y="324"/>
      <point x="240" y="324" type="curve"/>
      <point x="221" y="270"/>
      <point x="217" y="93"/>
      <point x="217" y="22" type="curve" smooth="yes"/>
      <point x="217" y="-31" type="line"/>
      <point x="232" y="-35"/>
      <point x="262" y="-35"/>
      <point x="293" y="-35" type="curve" smooth="yes"/>
      <point x="356" y="-35" type="line"/>
      <point x="339" y="-89"/>
      <point x="318" y="-140"/>
      <point x="223" y="-192" type="curve"/>
      <point x="222" y="-232"/>
      <point x="221" y="-271"/>
    </contour>
    <contour>
      <point x="639" y="1098" type="line"/>
      <point x="624" y="1106"/>
      <point x="605" y="1108"/>
      <point x="585" y="1108" type="curve" smooth="yes"/>
      <point x="479" y="1108"/>
      <point x="363" y="1106"/>
      <point x="256" y="1107" type="curve"/>
      <point x="240" y="1066"/>
      <point x="237" y="958"/>
      <point x="237" y="873" type="curve" smooth="yes"/>
      <point x="237" y="805"/>
      <point x="236" y="773"/>
      <point x="239" y="736" type="curve"/>
      <point x="328" y="741"/>
      <point x="421" y="737"/>
      <point x="508" y="737" type="curve" smooth="yes"/>
      <point x="615" y="737" type="line"/>
      <point x="625" y="753"/>
      <point x="627" y="774"/>
      <point x="628" y="806" type="curve" smooth="yes"/>
    </contour>
  </outline>
</glyph>
<glyph name="less" format="1">
  <advance width="1076"/>
  <unicode hex="003C"/>
  <outline>
    <contour>
      <point x="1028" y="324" type="curve" smooth="yes"/>
      <point x="959" y="360"/>
      <point x="617" y="531"/>
      <point x="572" y="555" type="curve"/>
      <point x="1012" y="717" type="line"/>
      <point x="1020" y="718"/>
      <point x="1024" y="725"/>
      <point x="1024" y="740" type="curve"/>
      <point x="1000" y="840"/>
      <point x="993" y="958"/>
      <point x="985" y="1061" type="curve"/>
      <point x="983" y="1072"/>
      <point x="978" y="1077"/>
      <point x="969" y="1077" type="curve" smooth="yes"/>
      <point x="960" y="1077"/>
      <point x="945" y="1074"/>
      <point x="924" y="1068" type="curve"/>
      <point x="644" y="960"/>
      <point x="261" y="825"/>
      <point x="128" y="761" type="curve"/>
      <point x="124" y="761"/>
      <point x="117" y="756"/>
      <point x="116" y="749" type="curve" smooth="yes"/>
      <point x="115" y="742" type="line"/>
      <point x="115" y="741"/>
      <point x="116" y="740"/>
      <point x="116" y="737" type="curve" smooth="yes"/>
      <point x="128" y="625"/>
      <point x="132" y="522"/>
      <point x="136" y="421" type="curve"/>
      <point x="136" y="394"/>
      <point x="147" y="386"/>
      <point x="190" y="365" type="curve"/>
      <point x="846" y="-17" type="line"/>
      <point x="865" y="-25"/>
      <point x="873" y="-29"/>
      <point x="884" y="-29" type="curve" smooth="yes"/>
      <point x="896" y="-29"/>
      <point x="904" y="-23"/>
      <point x="909" y="-10" type="curve" smooth="yes"/>
      <point x="946" y="94"/>
      <point x="978" y="201"/>
      <point x="1034" y="301" type="curve"/>
      <point x="1035" y="305"/>
      <point x="1036" y="309"/>
      <point x="1036" y="313" type="curve" smooth="yes"/>
      <point x="1036" y="317"/>
      <point x="1033" y="321"/>
    </contour>
  </outline>
</glyph>
<glyph name="equal" format="1">
  <advance width="1056"/>
  <unicode hex="003D"/>
  <outline>
    <contour>
      <point x="993" y="852" type="curve" smooth="yes"/>
      <point x="999" y="865"/>
      <point x="1000" y="873"/>
      <point x="1000" y="879" type="curve" smooth="yes"/>
      <point x="1000" y="886"/>
      <point x="997" y="889"/>
      <point x="997" y="889" type="curve"/>
      <point x="971" y="889"/>
      <point x="787" y="877"/>
      <point x="582" y="877" type="curve"/>
      <point x="277" y="871" type="line"/>
      <point x="253" y="869"/>
      <point x="257" y="845"/>
      <point x="252" y="829" type="curve"/>
      <point x="221" y="777"/>
      <point x="180" y="656"/>
      <point x="180" y="658" type="curve"/>
      <point x="178" y="654"/>
      <point x="177" y="651"/>
      <point x="177" y="648" type="curve" smooth="yes"/>
      <point x="177" y="627"/>
      <point x="215" y="623"/>
      <point x="292" y="623" type="curve" smooth="yes"/>
      <point x="367" y="623"/>
      <point x="637" y="629"/>
      <point x="890" y="635" type="curve"/>
      <point x="916" y="635"/>
      <point x="921" y="643"/>
      <point x="921" y="658" type="curve" smooth="yes"/>
      <point x="921" y="664"/>
      <point x="920" y="671"/>
      <point x="920" y="679" type="curve"/>
      <point x="951" y="740" type="line"/>
      <point x="976" y="814"/>
      <point x="994" y="853"/>
    </contour>
    <contour>
      <point x="993" y="376" type="line"/>
      <point x="997" y="386"/>
      <point x="998" y="394"/>
      <point x="998" y="400" type="curve" smooth="yes"/>
      <point x="998" y="410"/>
      <point x="993" y="414"/>
      <point x="992" y="414" type="curve" smooth="yes"/>
      <point x="970" y="414"/>
      <point x="841" y="404"/>
      <point x="680" y="402" type="curve" smooth="yes"/>
      <point x="282" y="396" type="line"/>
      <point x="256" y="394"/>
      <point x="260" y="369"/>
      <point x="252" y="354" type="curve" smooth="yes"/>
      <point x="222" y="301"/>
      <point x="179" y="181"/>
      <point x="180" y="183" type="curve" smooth="yes"/>
      <point x="179" y="180"/>
      <point x="178" y="177"/>
      <point x="178" y="174" type="curve" smooth="yes"/>
      <point x="178" y="152"/>
      <point x="217" y="148"/>
      <point x="298" y="148" type="curve" smooth="yes"/>
      <point x="369" y="148"/>
      <point x="636" y="154"/>
      <point x="884" y="160" type="curve"/>
      <point x="923" y="160"/>
      <point x="920" y="174"/>
      <point x="920" y="204" type="curve"/>
      <point x="951" y="278" type="line"/>
      <point x="974" y="343"/>
      <point x="991" y="377"/>
      <point x="993" y="377" type="curve"/>
    </contour>
  </outline>
</glyph>
<glyph name="question" format="1">
  <advance width="1166"/>
  <unicode hex="003F"/>
  <outline>
    <contour>
      <point x="433" y="599" type="curve"/>
      <point x="433" y="594"/>
      <point x="434" y="582"/>
      <point x="423" y="575" type="curve"/>
      <point x="423" y="566"/>
      <point x="431" y="556"/>
      <point x="450" y="552" type="curve" smooth="yes"/>
      <point x="549" y="531"/>
      <point x="605" y="503"/>
      <point x="705" y="455" type="curve"/>
      <point x="708" y="452"/>
      <point x="715" y="451"/>
      <point x="719" y="451" type="curve" smooth="yes"/>
      <point x="727" y="451"/>
      <point x="735" y="456"/>
      <point x="738" y="460" type="curve"/>
      <point x="925" y="607"/>
      <point x="1179" y="819"/>
      <point x="1179" y="1047" type="curve" smooth="yes"/>
      <point x="1179" y="1232"/>
      <point x="973" y="1447"/>
      <point x="656" y="1447" type="curve" smooth="yes"/>
      <point x="411" y="1447"/>
      <point x="144" y="1302"/>
      <point x="144" y="1057" type="curve" smooth="yes"/>
      <point x="144" y="1020"/>
      <point x="151" y="928"/>
      <point x="181" y="928" type="curve" smooth="yes"/>
      <point x="193" y="928"/>
      <point x="212" y="931"/>
      <point x="251" y="942" type="curve" smooth="yes"/>
      <point x="454" y="998"/>
      <point x="522" y="985"/>
      <point x="522" y="1006" type="curve" smooth="yes"/>
      <point x="522" y="1014"/>
      <point x="508" y="1042"/>
      <point x="508" y="1073" type="curve" smooth="yes"/>
      <point x="508" y="1118"/>
      <point x="536" y="1175"/>
      <point x="643" y="1175" type="curve" smooth="yes"/>
      <point x="738" y="1175"/>
      <point x="776" y="1124"/>
      <point x="776" y="1049" type="curve" smooth="yes"/>
      <point x="776" y="911"/>
      <point x="618" y="698"/>
    </contour>
    <contour>
      <point x="437" y="-38" type="curve" smooth="yes"/>
      <point x="437" y="-49"/>
      <point x="437" y="-49"/>
      <point x="448" y="-49" type="curve" smooth="yes"/>
      <point x="577" y="-49"/>
      <point x="696" y="-47"/>
      <point x="809" y="-46" type="curve"/>
      <point x="834" y="-43"/>
      <point x="834" y="-30"/>
      <point x="839" y="14" type="curve"/>
      <point x="867" y="322" type="line"/>
      <point x="867" y="345"/>
      <point x="861" y="352"/>
      <point x="846" y="352" type="curve" smooth="yes"/>
      <point x="733" y="351"/>
      <point x="598" y="350"/>
      <point x="481" y="350" type="curve"/>
      <point x="457" y="346"/>
      <point x="454" y="333"/>
      <point x="452" y="289" type="curve" smooth="yes"/>
      <point x="435" y="0"/>
      <point x="448" y="214"/>
    </contour>
  </outline>
</glyph>
<glyph name="B" format="1">
  <advance width="2218"/>
  <unicode hex="0042"/>
  <outline>
    <contour>
      <point x="321" y="-11"/>
      <point x="793" y="-52"/>
      <point x="1036" y="-52" type="curve" smooth="yes"/>
      <point x="1940" y="-52"/>
      <point x="2190" y="202"/>
      <point x="2190" y="538" type="curve" smooth="yes"/>
      <point x="2190" y="680"/>
      <point x="2076" y="795"/>
      <point x="1878" y="827" type="curve"/>
      <point x="2043" y="867"/>
      <point x="2150" y="978"/>
      <point x="2150" y="1093" type="curve" smooth="yes"/>
      <point x="2150" y="1346"/>
      <point x="1803" y="1468"/>
      <point x="1242" y="1468" type="curve"/>
      <point x="970" y="1468"/>
      <point x="424" y="1420"/>
      <point x="281" y="1364" type="curve"/>
      <point x="259" y="1009" type="line"/>
      <point x="260" y="1009" type="line"/>
      <point x="231" y="703"/>
      <point x="199" y="347"/>
      <point x="178" y="60" type="curve" smooth="yes"/>
      <point x="178" y="56"/>
      <point x="177" y="56"/>
      <point x="177" y="52" type="curve" smooth="yes"/>
      <point x="177" y="35"/>
      <point x="184" y="20"/>
      <point x="211" y="13" type="curve"/>
    </contour>
    <contour>
      <point x="1555" y="284"/>
      <point x="1149" y="233"/>
      <point x="867" y="233" type="curve"/>
      <point x="886" y="449"/>
      <point x="934" y="1005"/>
      <point x="962" y="1160" type="curve"/>
      <point x="1151" y="1186"/>
      <point x="1529" y="1148"/>
      <point x="1479" y="977" type="curve" smooth="yes"/>
      <point x="1457" y="903"/>
      <point x="1379" y="820"/>
      <point x="1089" y="820" type="curve"/>
      <point x="1047" y="753" type="line" smooth="yes"/>
      <point x="1009" y="693"/>
      <point x="987" y="660"/>
      <point x="987" y="643" type="curve" smooth="yes"/>
      <point x="987" y="627"/>
      <point x="990" y="613"/>
      <point x="1009" y="613" type="curve" smooth="yes"/>
      <point x="1288" y="613"/>
      <point x="1507" y="580"/>
      <point x="1525" y="468" type="curve" smooth="yes"/>
    </contour>
  </outline>
</glyph>
<glyph name="E" format="1">
  <advance width="2048.00370066"/>
  <unicode hex="0045"/>
  <outline>
    <contour>
      <point x="376.003700655" y="3"/>
      <point x="1042.00370066" y="-22"/>
      <point x="1318.00370066" y="-22" type="curve" smooth="yes"/>
      <point x="1562.00370066" y="-22"/>
      <point x="1695.00370066" y="-23"/>
      <point x="1934.00370066" y="-24" type="curve"/>
      <point x="1945.00370066" y="41"/>
      <point x="1966.00370066" y="78"/>
      <point x="1966.00370066" y="349" type="curve"/>
      <point x="916.003700655" y="349" type="line"/>
      <point x="927.003700655" y="556" type="line"/>
      <point x="987.003700655" y="557"/>
      <point x="1045.00370066" y="557"/>
      <point x="1104.00370066" y="557" type="curve" smooth="yes"/>
      <point x="1434.00370066" y="555"/>
      <point x="1514.00370066" y="559"/>
      <point x="1519.00370066" y="560" type="curve"/>
      <point x="1543.00370066" y="652"/>
      <point x="1565.00370066" y="852"/>
      <point x="1562.00370066" y="887" type="curve"/>
      <point x="1535.00370066" y="883"/>
      <point x="1508.00370066" y="882"/>
      <point x="1482.00370066" y="882" type="curve" smooth="yes"/>
      <point x="1455.00370066" y="882"/>
      <point x="1430.00370066" y="883"/>
      <point x="1406.00370066" y="883" type="curve" smooth="yes"/>
      <point x="1285.00370066" y="883"/>
      <point x="1115.00370066" y="882"/>
      <point x="940.003700655" y="880" type="curve"/>
      <point x="946.003700655" y="950"/>
      <point x="946.003700655" y="1004"/>
      <point x="952.003700655" y="1047" type="curve"/>
      <point x="1294.00370066" y="1049"/>
      <point x="1647.00370066" y="1045"/>
      <point x="1916.00370066" y="1069" type="curve"/>
      <point x="1957.00370066" y="1436" type="line"/>
      <point x="1897.00370066" y="1449"/>
      <point x="1823.00370066" y="1449"/>
      <point x="1761.00370066" y="1449" type="curve"/>
      <point x="1043.00370066" y="1433" type="line"/>
      <point x="400.003700655" y="1433" type="line"/>
      <point x="315.003700655" y="1429"/>
      <point x="309.003700655" y="1430"/>
      <point x="243.003700655" y="1428" type="curve"/>
      <point x="243.003700655" y="1399"/>
      <point x="176.003700655" y="-1"/>
      <point x="175.003700655" y="-2" type="curve"/>
      <point x="174.003700655" y="-2"/>
      <point x="376.003700655" y="3"/>
      <point x="376.003700655" y="3" type="curve"/>
    </contour>
  </outline>
</glyph>
<glyph name="G" format="1">
  <advance width="2173"/>
  <unicode hex="0047"/>
  <outline>
    <contour>
      <point x="130.0" y="690.0" type="curve" smooth="yes"/>
      <point x="130.0" y="180.0"/>
      <point x="631.0" y="-45.0"/>
      <point x="1158.0" y="-45.0" type="curve" smooth="yes"/>
      <point x="1338.0" y="-45.0"/>
      <point x="1588" y="-13"/>
      <point x="1762" y="264" type="curve"/>
      <point x="1762" y="264"/>
      <point x="1777" y="21"/>
      <point x="1810" y="-10" type="curve"/>
      <point x="1810" y="-10"/>
      <point x="1960" y="0"/>
      <point x="1995" y="0" type="curve"/>
      <point x="2059" y="487"/>
      <point x="2098" y="729"/>
      <point x="2098" y="777" type="curve"/>
      <point x="2060" y="786"/>
      <point x="1352" y="787"/>
      <point x="1317" y="790" type="curve"/>
      <point x="1288" y="750"/>
      <point x="1279" y="707"/>
      <point x="1251" y="501" type="curve"/>
      <point x="1486" y="501" type="line"/>
      <point x="1449" y="430"/>
      <point x="1367.0" y="361.0"/>
      <point x="1227.0" y="361.0" type="curve" smooth="yes"/>
      <point x="1031.0" y="361.0"/>
      <point x="901.0" y="476.0"/>
      <point x="901.0" y="705.0" type="curve" smooth="yes"/>
      <point x="901.0" y="994.0"/>
      <point x="1147" y="1047"/>
      <point x="1353" y="1047" type="curve" smooth="yes"/>
      <point x="1484" y="1047"/>
      <point x="1716" y="1027"/>
      <point x="1792" y="1008" type="curve"/>
      <point x="1852" y="1404" type="line"/>
      <point x="1715" y="1439"/>
      <point x="1401.0" y="1466.0"/>
      <point x="1271.0" y="1466.0" type="curve" smooth="yes"/>
      <point x="705.0" y="1466.0"/>
      <point x="130.0" y="1274.0"/>
    </contour>
  </outline>
</glyph>
<glyph name="H" format="1">
  <advance width="2421.01991111"/>
  <unicode hex="0048"/>
  <outline>
    <contour>
      <point x="290" y="1410" type="line"/>
      <point x="286" y="1350" type="line"/>
      <point x="269" y="1184"/>
      <point x="262" y="1074"/>
      <point x="256" y="966" type="curve" smooth="yes"/>
      <point x="237" y="456" type="line"/>
      <point x="237" y="441"/>
      <point x="235" y="417"/>
      <point x="235" y="402" type="curve" smooth="yes"/>
      <point x="230" y="261"/>
      <point x="226" y="110"/>
      <point x="226" y="-10" type="curve"/>
      <point x="270" y="-24"/>
      <point x="324" y="-30"/>
      <point x="376" y="-30" type="curve" smooth="yes"/>
      <point x="466" y="-30"/>
      <point x="593" y="-14"/>
      <point x="710" y="0" type="curve" smooth="yes"/>
      <point x="784" y="1"/>
      <point x="862" y="2"/>
      <point x="916" y="2" type="curve"/>
      <point x="942" y="432" type="line"/>
      <point x="1476" y="432" type="line"/>
      <point x="1467" y="317"/>
      <point x="1462" y="216"/>
      <point x="1462" y="101" type="curve" smooth="yes"/>
      <point x="1462" y="46"/>
      <point x="1470" y="-2"/>
      <point x="1478" y="-48" type="curve"/>
      <point x="1553" y="-48"/>
      <point x="1659" y="-41"/>
      <point x="1745" y="-34" type="curve"/>
      <point x="2025" y="-20"/>
      <point x="2104" y="-11"/>
      <point x="2180" y="2" type="curve"/>
      <point x="2197" y="698"/>
      <point x="2201" y="677"/>
      <point x="2201" y="717" type="curve" smooth="yes"/>
      <point x="2201" y="792"/>
      <point x="2238" y="1434"/>
      <point x="2237" y="1454" type="curve"/>
      <point x="1661" y="1419" type="line"/>
      <point x="1619" y="1418"/>
      <point x="1554" y="1415"/>
      <point x="1509" y="1409" type="curve"/>
      <point x="1509" y="1325" type="line"/>
      <point x="1509" y="1318"/>
      <point x="1510" y="1310"/>
      <point x="1510" y="1303" type="curve" smooth="yes"/>
      <point x="1510" y="1235"/>
      <point x="1508" y="1142"/>
      <point x="1488" y="943" type="curve"/>
      <point x="950" y="943" type="line"/>
      <point x="974" y="1152"/>
      <point x="979" y="1225"/>
      <point x="984" y="1318" type="curve" smooth="yes"/>
      <point x="985" y="1356"/>
      <point x="986" y="1407"/>
      <point x="988" y="1453" type="curve"/>
      <point x="932" y="1456"/>
      <point x="383" y="1437"/>
      <point x="302" y="1424" type="curve"/>
    </contour>
  </outline>
</glyph>
<glyph name="I" format="1">
  <advance width="1183"/>
  <unicode hex="0049"/>
  <outline>
    <contour>
      <point x="990" y="1449" type="curve"/>
      <point x="933" y="1449"/>
      <point x="875" y="1447"/>
      <point x="816" y="1447" type="curve"/>
      <point x="465" y="1405" type="line"/>
      <point x="390" y="1404"/>
      <point x="333" y="1397"/>
      <point x="273" y="1368" type="curve"/>
      <point x="276" y="1353"/>
      <point x="277" y="1334"/>
      <point x="277" y="1312" type="curve" smooth="yes"/>
      <point x="277" y="1177"/>
      <point x="266" y="1003"/>
      <point x="256" y="789" type="curve"/>
      <point x="238" y="153" type="line"/>
      <point x="238" y="86"/>
      <point x="244" y="26"/>
      <point x="253" y="-30" type="curve"/>
      <point x="383" y="-30"/>
      <point x="632" y="15"/>
      <point x="751" y="15" type="curve" smooth="yes"/>
      <point x="771" y="15" type="line" smooth="yes"/>
      <point x="837" y="17"/>
      <point x="896" y="25"/>
      <point x="959" y="32" type="curve"/>
      <point x="958" y="38"/>
      <point x="958" y="45"/>
      <point x="958" y="51" type="curve" smooth="yes"/>
      <point x="958" y="72"/>
      <point x="960" y="92"/>
      <point x="961" y="112" type="curve" smooth="yes"/>
      <point x="974" y="578" type="line"/>
      <point x="987" y="835"/>
      <point x="985" y="1010"/>
      <point x="1001" y="1262" type="curve"/>
      <point x="1001" y="1333"/>
      <point x="998" y="1393"/>
    </contour>
  </outline>
</glyph>
<glyph name="K" format="1">
  <advance width="2178"/>
  <unicode hex="004B"/>
  <outline>
    <contour>
      <point x="1552" y="-122" type="curve" smooth="yes"/>
      <point x="1591" y="-122"/>
      <point x="1567" y="-114"/>
      <point x="1622" y="-77" type="curve"/>
      <point x="1743" y="-18"/>
      <point x="2043" y="163"/>
      <point x="2043" y="202" type="curve" smooth="yes"/>
      <point x="2043" y="220"/>
      <point x="2043" y="238"/>
      <point x="1902" y="376" type="curve"/>
      <point x="1791" y="505"/>
      <point x="1684" y="608"/>
      <point x="1577" y="726" type="curve"/>
      <point x="1967" y="1171" type="line" smooth="yes"/>
      <point x="2023" y="1235"/>
      <point x="2067" y="1268"/>
      <point x="2079" y="1305" type="curve"/>
      <point x="2079" y="1312" type="line"/>
      <point x="1780" y="1432" type="line"/>
      <point x="1482" y="1530" type="line"/>
      <point x="1421" y="1450" type="line"/>
      <point x="950" y="887"/>
      <point x="1247" y="1225"/>
      <point x="950" y="891" type="curve"/>
      <point x="954" y="1008"/>
      <point x="957" y="1125"/>
      <point x="967" y="1262" type="curve"/>
      <point x="967" y="1333"/>
      <point x="964" y="1393"/>
      <point x="955" y="1449" type="curve"/>
      <point x="923" y="1449"/>
      <point x="891" y="1450"/>
      <point x="858" y="1450" type="curve"/>
      <point x="694" y="1450"/>
      <point x="279" y="1397"/>
      <point x="217" y="1368" type="curve"/>
      <point x="220" y="1353"/>
      <point x="221" y="1334"/>
      <point x="221" y="1312" type="curve" smooth="yes"/>
      <point x="221" y="1177"/>
      <point x="210" y="1003"/>
      <point x="200" y="789" type="curve"/>
      <point x="181" y="153" type="line"/>
      <point x="181" y="86"/>
      <point x="187" y="26"/>
      <point x="196" y="-30" type="curve"/>
      <point x="330" y="-30"/>
      <point x="859" y="26"/>
      <point x="923" y="32" type="curve"/>
      <point x="923" y="36" type="line"/>
      <point x="923" y="56"/>
      <point x="927" y="148"/>
      <point x="939" y="582" type="curve"/>
      <point x="980" y="518"/>
      <point x="1019" y="461"/>
      <point x="1031" y="448" type="curve"/>
      <point x="1165" y="278"/>
      <point x="1239" y="193"/>
      <point x="1390" y="5" type="curve" smooth="yes"/>
      <point x="1472" y="-98"/>
      <point x="1521" y="-122"/>
    </contour>
    <contour>
      <point x="2082" y="1311" type="line"/>
      <point x="2082" y="1311"/>
      <point x="2080" y="1312"/>
      <point x="2079" y="1314" type="curve"/>
      <point x="2079" y="1312" type="line"/>
    </contour>
  </outline>
</glyph>
<glyph name="L" format="1">
  <advance width="1901"/>
  <unicode hex="004C"/>
  <outline>
    <contour>
      <point x="144" y="-15" type="curve"/>
      <point x="215" y="-20"/>
      <point x="292" y="-22"/>
      <point x="377" y="-22" type="curve"/>
      <point x="746" y="-19"/>
      <point x="1790" y="-21"/>
      <point x="1847" y="-21" type="curve"/>
      <point x="1875" y="200" type="line"/>
      <point x="1888" y="279"/>
      <point x="1888" y="323"/>
      <point x="1888" y="367" type="curve"/>
      <point x="1830" y="376"/>
      <point x="1769" y="380"/>
      <point x="1698" y="380" type="curve" smooth="yes"/>
      <point x="1693" y="380"/>
      <point x="1686" y="379"/>
      <point x="1678" y="378" type="curve"/>
      <point x="914" y="360" type="line"/>
      <point x="928" y="624"/>
      <point x="938" y="758"/>
      <point x="942" y="950" type="curve"/>
      <point x="942" y="1004"/>
      <point x="947" y="1153"/>
      <point x="961" y="1268" type="curve"/>
      <point x="961" y="1288"/>
      <point x="962" y="1308"/>
      <point x="962" y="1326" type="curve" smooth="yes"/>
      <point x="962" y="1371"/>
      <point x="960" y="1412"/>
      <point x="955" y="1450" type="curve"/>
      <point x="895" y="1453"/>
      <point x="836" y="1457"/>
      <point x="779" y="1458" type="curve"/>
      <point x="507" y="1427" type="line"/>
      <point x="392" y="1411"/>
      <point x="299" y="1415"/>
      <point x="212" y="1385" type="curve"/>
      <point x="212" y="1323"/>
      <point x="211" y="1240"/>
      <point x="208" y="1128" type="curve" smooth="yes"/>
      <point x="200" y="838" type="line" smooth="yes"/>
      <point x="197" y="751"/>
      <point x="191" y="659"/>
      <point x="187" y="570" type="curve"/>
      <point x="177" y="243" type="line"/>
      <point x="162" y="153"/>
      <point x="144" y="58"/>
    </contour>
  </outline>
</glyph>
<glyph name="M" format="1">
  <advance width="2687"/>
  <unicode hex="004D"/>
  <outline>
    <contour>
      <point x="147" y="173" type="curve" smooth="yes"/>
      <point x="142" y="121"/>
      <point x="134" y="56"/>
      <point x="134" y="17" type="curve"/>
      <point x="238" y="2"/>
      <point x="448" y="-29"/>
      <point x="591" y="-29" type="curve" smooth="yes"/>
      <point x="670" y="-29"/>
      <point x="740" y="-27"/>
      <point x="807" y="-24" type="curve"/>
      <point x="880" y="615" type="line"/>
      <point x="977" y="399"/>
      <point x="1176" y="27"/>
      <point x="1176" y="27" type="curve"/>
      <point x="1248" y="27"/>
      <point x="1321" y="16"/>
      <point x="1394" y="16" type="curve" smooth="yes"/>
      <point x="1419" y="16"/>
      <point x="1445" y="17"/>
      <point x="1470" y="21" type="curve"/>
      <point x="1876" y="653" type="line"/>
      <point x="1893" y="498" type="line"/>
      <point x="1898" y="346"/>
      <point x="1939" y="-29"/>
      <point x="1939" y="-29" type="curve"/>
      <point x="2099" y="-29"/>
      <point x="2382" y="2"/>
      <point x="2544" y="13" type="curve"/>
      <point x="2550" y="136" type="line"/>
      <point x="2521" y="580" type="line"/>
      <point x="2515" y="798"/>
      <point x="2498" y="1035"/>
      <point x="2472" y="1427" type="curve"/>
      <point x="1725" y="1474" type="line"/>
      <point x="1331" y="779" type="line"/>
      <point x="1009" y="1370" type="line"/>
      <point x="973" y="1447" type="line"/>
      <point x="824" y="1436"/>
      <point x="232" y="1426"/>
      <point x="220" y="1427" type="curve"/>
      <point x="170" y="471"/>
      <point x="160" y="306"/>
    </contour>
  </outline>
</glyph>
<glyph name="P" format="1">
  <advance width="2260"/>
  <unicode hex="0050"/>
  <outline>
    <contour>
      <point x="1359" y="1071"/>
      <point x="1463" y="1057"/>
      <point x="1463" y="936" type="curve" smooth="yes"/>
      <point x="1463" y="835"/>
      <point x="1372" y="773"/>
      <point x="1162" y="773" type="curve" smooth="yes"/>
      <point x="1102" y="773"/>
      <point x="1032" y="778"/>
      <point x="952" y="789" type="curve"/>
      <point x="952" y="803"/>
      <point x="953" y="898"/>
      <point x="966" y="1044" type="curve"/>
      <point x="994" y="1058"/>
      <point x="1221" y="1071"/>
      <point x="1265" y="1071" type="curve" smooth="yes"/>
    </contour>
    <contour>
      <point x="462" y="-13"/>
      <point x="820" y="12"/>
      <point x="919" y="19" type="curve"/>
      <point x="940" y="447" type="line"/>
      <point x="987" y="447"/>
      <point x="1178" y="441"/>
      <point x="1306" y="441" type="curve" smooth="yes"/>
      <point x="1732" y="441"/>
      <point x="2177" y="532"/>
      <point x="2177" y="939" type="curve" smooth="yes"/>
      <point x="2177" y="1349"/>
      <point x="1754" y="1453"/>
      <point x="1331" y="1453" type="curve" smooth="yes"/>
      <point x="987" y="1453"/>
      <point x="595" y="1421"/>
      <point x="265" y="1363" type="curve"/>
      <point x="259" y="1109"/>
      <point x="245" y="470"/>
      <point x="237" y="270" type="curve"/>
      <point x="234" y="98" type="line" smooth="yes"/>
      <point x="233" y="64"/>
      <point x="232" y="28"/>
      <point x="229" y="-9" type="curve"/>
      <point x="240" y="-12"/>
      <point x="266" y="-13"/>
      <point x="302" y="-13" type="curve" smooth="yes"/>
    </contour>
  </outline>
</glyph>
<glyph name="Q" format="1">
  <advance width="2516"/>
  <unicode hex="0051"/>
  <outline>
    <contour>
      <point x="1264" y="401" type="curve"/>
      <point x="1264" y="395"/>
      <point x="1274" y="383"/>
      <point x="1287" y="368" type="curve" smooth="yes"/>
      <point x="1291" y="362" type="line"/>
      <point x="1290" y="362"/>
      <point x="1289" y="363"/>
      <point x="1288" y="363" type="curve" smooth="yes"/>
      <point x="1287" y="363"/>
      <point x="1286" y="362"/>
      <point x="1284" y="361" type="curve"/>
      <point x="1068" y="361"/>
      <point x="930" y="456"/>
      <point x="930" y="705" type="curve" smooth="yes"/>
      <point x="930" y="952"/>
      <point x="1063" y="1067"/>
      <point x="1287" y="1067" type="curve" smooth="yes"/>
      <point x="1512" y="1067"/>
      <point x="1647" y="982"/>
      <point x="1647" y="742" type="curve" smooth="yes"/>
      <point x="1647" y="763"/>
      <point x="1651" y="788"/>
      <point x="1659" y="808" type="curve"/>
      <point x="1674" y="792"/>
      <point x="1670" y="795"/>
      <point x="1670" y="787" type="curve" smooth="yes"/>
      <point x="1670" y="728"/>
      <point x="1662" y="661"/>
      <point x="1639" y="607" type="curve"/>
      <point x="1607" y="403"/>
      <point x="1357" y="471"/>
    </contour>
    <contour>
      <point x="1398" y="-13" type="curve"/>
      <point x="1413" y="-30"/>
      <point x="1451" y="-75"/>
      <point x="1464" y="-75" type="curve" smooth="yes"/>
      <point x="1465" y="-75"/>
      <point x="1466" y="-75"/>
      <point x="1467" y="-74" type="curve" smooth="yes"/>
      <point x="1470" y="-73"/>
      <point x="1621" y="4"/>
      <point x="1620" y="31" type="curve" smooth="yes"/>
      <point x="1619" y="44"/>
      <point x="1582" y="86"/>
      <point x="1536" y="136" type="curve"/>
      <point x="1713" y="226"/>
      <point x="1889" y="262"/>
      <point x="2097" y="365" type="curve"/>
      <point x="2097" y="361"/>
      <point x="2110" y="346"/>
      <point x="2126" y="329" type="curve"/>
      <point x="2302" y="430"/>
      <point x="2434" y="587"/>
      <point x="2434" y="833" type="curve" smooth="yes"/>
      <point x="2434" y="1034"/>
      <point x="2303" y="1164"/>
      <point x="2117" y="1234" type="curve"/>
      <point x="1898" y="1409"/>
      <point x="1655" y="1469"/>
      <point x="1242" y="1505" type="curve"/>
      <point x="1232" y="1497"/>
      <point x="1235" y="1456"/>
      <point x="1222" y="1456" type="curve"/>
      <point x="752" y="1418"/>
      <point x="127" y="1248"/>
      <point x="127" y="689" type="curve" smooth="yes"/>
      <point x="127" y="166"/>
      <point x="587" y="-38"/>
      <point x="1085" y="-38" type="curve" smooth="yes"/>
      <point x="1195" y="-38"/>
      <point x="1300" y="-28"/>
    </contour>
  </outline>
</glyph>
<glyph name="U" format="1">
  <advance width="2421"/>
  <unicode hex="0055"/>
  <outline>
    <contour>
      <point x="1177" y="-48" type="curve" smooth="yes"/>
      <point x="1604" y="-48"/>
      <point x="2133" y="56"/>
      <point x="2253" y="545" type="curve"/>
      <point x="2272" y="587"/>
      <point x="2296" y="1024"/>
      <point x="2301" y="1283" type="curve"/>
      <point x="2301" y="1333"/>
      <point x="2300" y="1379"/>
      <point x="2300" y="1426" type="curve"/>
      <point x="2256" y="1427"/>
      <point x="2211" y="1429"/>
      <point x="2165" y="1429" type="curve" smooth="yes"/>
      <point x="2161" y="1429"/>
      <point x="2157" y="1429"/>
      <point x="2153" y="1426" type="curve"/>
      <point x="1943" y="1417"/>
      <point x="1717" y="1411"/>
      <point x="1516" y="1401" type="curve"/>
      <point x="1520" y="1367"/>
      <point x="1521" y="1332"/>
      <point x="1521" y="1297" type="curve" smooth="yes"/>
      <point x="1521" y="1277"/>
      <point x="1522" y="1258"/>
      <point x="1521" y="1238" type="curve" smooth="yes"/>
      <point x="1502" y="710" type="line"/>
      <point x="1501" y="483"/>
      <point x="1374" y="358"/>
      <point x="1195" y="358" type="curve" smooth="yes"/>
      <point x="955" y="358"/>
      <point x="906" y="528"/>
      <point x="914" y="632" type="curve" smooth="yes"/>
      <point x="945" y="1285" type="line"/>
      <point x="945" y="1336"/>
      <point x="945" y="1389"/>
      <point x="948" y="1443" type="curve"/>
      <point x="894" y="1447"/>
      <point x="838" y="1449"/>
      <point x="781" y="1449" type="curve" smooth="yes"/>
      <point x="735" y="1449"/>
      <point x="684" y="1440"/>
      <point x="639" y="1437" type="curve"/>
      <point x="154" y="1415" type="line"/>
      <point x="139" y="1312"/>
      <point x="142" y="1184"/>
      <point x="135" y="984" type="curve"/>
      <point x="130" y="677" type="line" smooth="yes"/>
      <point x="129" y="648"/>
      <point x="128" y="618"/>
      <point x="128" y="592" type="curve" smooth="yes"/>
      <point x="128" y="494"/>
      <point x="137" y="420"/>
      <point x="153" y="380" type="curve"/>
      <point x="279" y="56"/>
      <point x="781" y="-48"/>
    </contour>
  </outline>
</glyph>
<glyph name="V" format="1">
  <advance width="2209"/>
  <unicode hex="0056"/>
  <outline>
    <contour>
      <point x="1354" y="1434" type="curve"/>
      <point x="1356" y="1441"/>
      <point x="1358" y="1448"/>
      <point x="1358" y="1454" type="curve" smooth="yes"/>
      <point x="1358" y="1473"/>
      <point x="1342" y="1481"/>
      <point x="1293" y="1481" type="curve" smooth="yes"/>
      <point x="1274" y="1481"/>
      <point x="1248" y="1475"/>
      <point x="1213" y="1468" type="curve" smooth="yes"/>
      <point x="1135" y="1452"/>
      <point x="982" y="1409"/>
      <point x="985" y="1399" type="curve"/>
      <point x="966" y="1397"/>
      <point x="968" y="1390"/>
      <point x="961" y="1371" type="curve" smooth="yes"/>
      <point x="918" y="1248" type="line" smooth="yes"/>
      <point x="847" y="1045"/>
      <point x="778" y="843"/>
      <point x="708" y="641" type="curve"/>
      <point x="555" y="1458" type="line"/>
      <point x="552" y="1464"/>
      <point x="551" y="1468"/>
      <point x="547" y="1468" type="curve" smooth="yes"/>
      <point x="546" y="1468"/>
      <point x="544" y="1468"/>
      <point x="543" y="1467" type="curve"/>
      <point x="543" y="1475"/>
      <point x="539" y="1479"/>
      <point x="526" y="1479" type="curve" smooth="yes"/>
      <point x="504" y="1479"/>
      <point x="471" y="1475"/>
      <point x="409" y="1464" type="curve"/>
      <point x="228" y="1428"/>
      <point x="158" y="1424"/>
      <point x="158" y="1369" type="curve" smooth="yes"/>
      <point x="158" y="1361"/>
      <point x="159" y="1353"/>
      <point x="162" y="1343" type="curve"/>
      <point x="160" y="1340"/>
      <point x="159" y="1334"/>
      <point x="159" y="1328" type="curve" smooth="yes"/>
      <point x="159" y="1297"/>
      <point x="176" y="1236"/>
      <point x="182" y="1199" type="curve"/>
      <point x="279" y="758"/>
      <point x="372" y="318"/>
      <point x="478" y="-118" type="curve"/>
      <point x="479" y="-112"/>
      <point x="484" y="-102"/>
      <point x="496" y="-87" type="curve"/>
      <point x="569" y="-87"/>
      <point x="767" y="-5"/>
      <point x="804" y="13" type="curve" smooth="yes"/>
      <point x="825" y="23"/>
      <point x="830" y="40"/>
      <point x="830" y="61" type="curve" smooth="yes"/>
      <point x="830" y="76"/>
      <point x="828" y="93"/>
      <point x="826" y="112" type="curve"/>
      <point x="1356" y="1428" type="line"/>
      <point x="1356" y="1432"/>
      <point x="1358" y="1434"/>
      <point x="1358" y="1434" type="curve"/>
      <point x="1358" y="1435" type="line"/>
      <point x="1357" y="1435"/>
      <point x="1356" y="1434"/>
    </contour>
    <contour>
      <point x="480" y="-126" type="curve"/>
      <point x="478" y="-125"/>
      <point x="477" y="-124"/>
      <point x="477" y="-122" type="curve" smooth="yes"/>
      <point x="477" y="-121"/>
      <point x="477" y="-120"/>
      <point x="478" y="-119" type="curve"/>
      <point x="478" y="-121"/>
      <point x="479" y="-123"/>
    </contour>
  </outline>
</glyph>
<glyph name="W" format="1">
  <advance width="3064"/>
  <unicode hex="0057"/>
  <outline>
    <contour>
      <point x="514" y="-50" type="line"/>
      <point x="486" y="-74"/>
      <point x="467" y="-87"/>
      <point x="454" y="-87" type="curve"/>
      <point x="457" y="-88"/>
      <point x="460" y="-89"/>
      <point x="464" y="-89" type="curve" smooth="yes"/>
      <point x="525" y="-89"/>
      <point x="727" y="38"/>
      <point x="763" y="121" type="curve"/>
      <point x="984" y="517" type="line"/>
      <point x="1107" y="58" type="line" smooth="yes"/>
      <point x="1120" y="10"/>
      <point x="1132" y="-89"/>
      <point x="1171" y="-89" type="curve" smooth="yes"/>
      <point x="1174" y="-89"/>
      <point x="1177" y="-88"/>
      <point x="1181" y="-87" type="curve"/>
      <point x="1171" y="-87"/>
      <point x="1164" y="-83"/>
      <point x="1160" y="-76" type="curve"/>
      <point x="1429" y="62"/>
      <point x="1368" y="-1"/>
      <point x="1439" y="239" type="curve"/>
      <point x="1424" y="208" type="line"/>
      <point x="1548" y="575"/>
      <point x="1673" y="945"/>
      <point x="1799" y="1313" type="curve"/>
      <point x="1816" y="1358"/>
      <point x="1847" y="1418"/>
      <point x="1847" y="1457" type="curve"/>
      <point x="1846" y="1462"/>
      <point x="1843" y="1469"/>
      <point x="1838" y="1474" type="curve"/>
      <point x="1520" y="1389" type="line"/>
      <point x="1506" y="1393"/>
      <point x="1499" y="1395"/>
      <point x="1495" y="1395" type="curve" smooth="yes"/>
      <point x="1489" y="1395"/>
      <point x="1488" y="1392"/>
      <point x="1486" y="1385" type="curve" smooth="yes"/>
      <point x="1279" y="731" type="line"/>
      <point x="1153" y="1354" type="line"/>
      <point x="1153" y="1353"/>
      <point x="1153" y="1347"/>
      <point x="1148" y="1337" type="curve"/>
      <point x="1147" y="1345"/>
      <point x="1138" y="1349"/>
      <point x="1118" y="1349" type="curve"/>
      <point x="1097" y="1345" type="line"/>
      <point x="865" y="1320"/>
      <point x="801" y="1293"/>
      <point x="801" y="1259" type="curve" smooth="yes"/>
      <point x="801" y="1253"/>
      <point x="798" y="1250"/>
      <point x="816" y="1229" type="curve"/>
      <point x="851" y="1120"/>
      <point x="886" y="1009"/>
      <point x="920" y="900" type="curve"/>
      <point x="734" y="634" type="line"/>
      <point x="557" y="1333" type="line"/>
      <point x="539" y="1410"/>
      <point x="530" y="1478"/>
      <point x="492" y="1478" type="curve" smooth="yes"/>
      <point x="470" y="1478"/>
      <point x="436" y="1473"/>
      <point x="376" y="1464" type="curve"/>
      <point x="188" y="1447"/>
      <point x="126" y="1426"/>
      <point x="126" y="1367" type="curve" smooth="yes"/>
      <point x="126" y="1357"/>
      <point x="128" y="1346"/>
      <point x="131" y="1334" type="curve"/>
      <point x="125" y="1342"/>
      <point x="125" y="1347"/>
      <point x="123" y="1352" type="curve" smooth="yes"/>
    </contour>
    <contour>
      <point x="1806" y="1479" type="curve"/>
      <point x="1816" y="1479"/>
      <point x="1826" y="1477"/>
      <point x="1836" y="1476" type="curve"/>
      <point x="1832" y="1479"/>
      <point x="1827" y="1481"/>
      <point x="1820" y="1481" type="curve" smooth="yes"/>
      <point x="1816" y="1481"/>
      <point x="1811" y="1480"/>
    </contour>
    <contour>
      <point x="1836" y="1476" type="curve"/>
      <point x="1845" y="1476" type="line"/>
      <point x="1838" y="1474" type="line"/>
      <point x="1838" y="1475"/>
      <point x="1837" y="1475"/>
    </contour>
    <contour>
      <point x="1406" y="152" type="line"/>
      <point x="1408" y="159" type="line"/>
    </contour>
  </outline>
</glyph>
<glyph name="X" format="1">
  <advance width="2245"/>
  <unicode hex="0058"/>
  <outline>
    <contour>
      <point x="1181" y="1426" type="curve"/>
      <point x="1185" y="1433"/>
      <point x="1188" y="1438"/>
      <point x="1188" y="1442" type="curve" smooth="yes"/>
      <point x="1188" y="1447"/>
      <point x="1184" y="1449"/>
      <point x="1177" y="1449" type="curve"/>
      <point x="1177" y="1448"/>
      <point x="1180" y="1446"/>
      <point x="1180" y="1445" type="curve"/>
      <point x="1085" y="1426" type="line"/>
      <point x="734" y="1343" type="line"/>
      <point x="620" y="1094" type="line"/>
      <point x="554" y="1228"/>
      <point x="458" y="1428"/>
      <point x="454" y="1428" type="curve"/>
      <point x="454" y="1426" type="line" smooth="yes"/>
      <point x="451" y="1441"/>
      <point x="454" y="1442"/>
      <point x="449" y="1442" type="curve" smooth="yes"/>
      <point x="449" y="1442"/>
      <point x="445" y="1440"/>
      <point x="439" y="1439" type="curve"/>
      <point x="121" y="1328" type="line"/>
      <point x="111" y="1332"/>
      <point x="103" y="1335"/>
      <point x="97" y="1335" type="curve" smooth="yes"/>
      <point x="89" y="1335"/>
      <point x="86" y="1323"/>
      <point x="86" y="1318" type="curve" smooth="yes"/>
      <point x="86" y="1301"/>
      <point x="122" y="1254"/>
      <point x="134" y="1233" type="curve"/>
      <point x="415" y="681" type="line"/>
      <point x="312" y="469" type="line" smooth="yes"/>
      <point x="278" y="399"/>
      <point x="247" y="334"/>
      <point x="219" y="268" type="curve" smooth="yes"/>
      <point x="184" y="186"/>
      <point x="78" y="-12"/>
      <point x="78" y="-59" type="curve" smooth="yes"/>
      <point x="78" y="-64"/>
      <point x="79" y="-68"/>
      <point x="82" y="-69" type="curve"/>
      <point x="66" y="-80"/>
      <point x="58" y="-86"/>
      <point x="54" y="-88" type="curve"/>
      <point x="84" y="-87"/>
      <point x="127" y="-73"/>
      <point x="148" y="-73" type="curve"/>
      <point x="232" y="-47"/>
      <point x="484" y="35"/>
      <point x="484" y="52" type="curve"/>
      <point x="484" y="53" type="line"/>
      <point x="489" y="50" type="line"/>
      <point x="621" y="309" type="line"/>
      <point x="700" y="144" type="line"/>
      <point x="778" y="0"/>
      <point x="832" y="-89"/>
      <point x="856" y="-89" type="curve" smooth="yes"/>
      <point x="881" y="-89"/>
      <point x="903" y="-69"/>
      <point x="919" y="-69" type="curve"/>
      <point x="997" y="-33"/>
      <point x="1099" y="15"/>
      <point x="1099" y="46" type="curve" smooth="yes"/>
      <point x="1099" y="50"/>
      <point x="1097" y="53"/>
      <point x="1092" y="56" type="curve"/>
      <point x="1129" y="60" type="line"/>
      <point x="1023" y="287"/>
      <point x="985" y="417"/>
      <point x="826" y="699" type="curve"/>
      <point x="868" y="777"/>
      <point x="919" y="874"/>
      <point x="962" y="950" type="curve"/>
      <point x="1161" y="1345" type="line"/>
      <point x="1169" y="1368"/>
      <point x="1185" y="1396"/>
      <point x="1185" y="1414" type="curve" smooth="yes"/>
      <point x="1185" y="1419"/>
      <point x="1184" y="1423"/>
    </contour>
  </outline>
</glyph>
<glyph name="Y" format="1">
  <advance width="2078"/>
  <unicode hex="0059"/>
  <outline>
    <contour>
      <point x="1191" y="1419" type="curve"/>
      <point x="1194" y="1426"/>
      <point x="1196" y="1431"/>
      <point x="1196" y="1436" type="curve" smooth="yes"/>
      <point x="1196" y="1443"/>
      <point x="1191" y="1446"/>
      <point x="1183" y="1446" type="curve"/>
      <point x="1184" y="1445"/>
      <point x="1184" y="1445"/>
      <point x="1184" y="1444" type="curve" smooth="yes"/>
      <point x="1184" y="1437"/>
      <point x="1101" y="1421"/>
      <point x="1084" y="1416" type="curve" smooth="yes"/>
      <point x="801" y="1332" type="line"/>
      <point x="801" y="1336" type="line"/>
      <point x="795" y="1336"/>
      <point x="753" y="1259"/>
      <point x="709" y="1183" type="curve"/>
      <point x="621" y="1024" type="line"/>
      <point x="420" y="1416" type="line" smooth="yes"/>
      <point x="408" y="1438"/>
      <point x="403" y="1444"/>
      <point x="399" y="1444" type="curve"/>
      <point x="400" y="1443"/>
      <point x="400" y="1442"/>
      <point x="400" y="1441" type="curve" smooth="yes"/>
      <point x="400" y="1428"/>
      <point x="335" y="1408"/>
      <point x="318" y="1401" type="curve"/>
      <point x="252" y="1363"/>
      <point x="146" y="1315"/>
      <point x="140" y="1299" type="curve"/>
      <point x="135" y="1299" type="line" smooth="yes"/>
      <point x="111" y="1299"/>
      <point x="103" y="1276"/>
      <point x="102" y="1271" type="curve"/>
      <point x="127" y="1215"/>
      <point x="332" y="762"/>
      <point x="368" y="673" type="curve"/>
      <point x="326" y="421"/>
      <point x="249" y="137"/>
      <point x="249" y="-105" type="curve" smooth="yes"/>
      <point x="249" y="-108"/>
      <point x="251" y="-109"/>
      <point x="254" y="-109" type="curve" smooth="yes"/>
      <point x="263" y="-109"/>
      <point x="281" y="-102"/>
      <point x="302" y="-88" type="curve"/>
      <point x="363" y="-88"/>
      <point x="470" y="-4"/>
      <point x="545" y="46" type="curve" smooth="yes"/>
      <point x="679" y="136" type="line" smooth="yes"/>
      <point x="681" y="138"/>
      <point x="683" y="140"/>
      <point x="683" y="143" type="curve" smooth="yes"/>
      <point x="683" y="147"/>
      <point x="680" y="152"/>
      <point x="676" y="158" type="curve"/>
      <point x="680" y="164"/>
      <point x="680" y="171"/>
      <point x="684" y="192" type="curve" smooth="yes"/>
      <point x="705" y="323"/>
      <point x="726" y="423"/>
      <point x="755" y="575" type="curve"/>
      <point x="734" y="560" type="line"/>
      <point x="803" y="686"/>
      <point x="1010" y="1064"/>
      <point x="1156" y="1333" type="curve"/>
      <point x="1195" y="1402" type="line" smooth="yes"/>
      <point x="1196" y="1405"/>
      <point x="1197" y="1408"/>
      <point x="1197" y="1410" type="curve" smooth="yes"/>
      <point x="1197" y="1415"/>
      <point x="1194" y="1419"/>
    </contour>
  </outline>
</glyph>
<glyph name="bracketleft" format="1">
  <advance width="1424"/>
  <unicode hex="005B"/>
  <outline>
    <contour>
      <point x="167" y="-186" type="curve"/>
      <point x="397" y="-198"/>
      <point x="660" y="-201"/>
      <point x="893" y="-201" type="curve" smooth="yes"/>
      <point x="1042" y="-201"/>
      <point x="1169" y="-112"/>
      <point x="1285" y="-96" type="curve"/>
      <point x="1288" y="-7"/>
      <point x="1291" y="79"/>
      <point x="1291" y="167" type="curve"/>
      <point x="1165" y="172"/>
      <point x="1031" y="171"/>
      <point x="901" y="171" type="curve"/>
      <point x="911" y="641" type="line"/>
      <point x="923" y="846"/>
      <point x="933" y="1072"/>
      <point x="936" y="1196" type="curve"/>
      <point x="1105" y="1200"/>
      <point x="1212" y="1202"/>
      <point x="1319" y="1216" type="curve"/>
      <point x="1336" y="1389" type="line"/>
      <point x="1351" y="1468"/>
      <point x="1359" y="1538"/>
      <point x="1360" y="1583" type="curve"/>
      <point x="1305" y="1596"/>
      <point x="1239" y="1596"/>
      <point x="1185" y="1596" type="curve"/>
      <point x="384" y="1571" type="line"/>
      <point x="322" y="1570"/>
      <point x="253" y="1567"/>
      <point x="199" y="1529" type="curve"/>
      <point x="199" y="1500"/>
      <point x="198" y="1471"/>
      <point x="198" y="1447" type="curve" smooth="yes"/>
      <point x="184" y="802" type="line"/>
      <point x="172" y="473"/>
      <point x="161" y="112"/>
      <point x="161" y="-45" type="curve" smooth="yes"/>
      <point x="161" y="-94"/>
      <point x="161" y="-142"/>
    </contour>
  </outline>
</glyph>
<glyph name="bracketright" format="1">
  <advance width="1425"/>
  <unicode hex="005D"/>
  <outline>
    <contour>
      <point x="1307" y="1584" type="curve"/>
      <point x="370" y="1584" type="line" smooth="yes"/>
      <point x="269" y="1584"/>
      <point x="236" y="1457"/>
      <point x="181" y="1443" type="curve"/>
      <point x="181" y="1365"/>
      <point x="182" y="1307"/>
      <point x="182" y="1221" type="curve"/>
      <point x="221" y="1216"/>
      <point x="263" y="1213"/>
      <point x="308" y="1213" type="curve" smooth="yes"/>
      <point x="401" y="1213"/>
      <point x="485" y="1219"/>
      <point x="573" y="1219" type="curve"/>
      <point x="565" y="859"/>
      <point x="546" y="426"/>
      <point x="545" y="194" type="curve"/>
      <point x="410" y="192"/>
      <point x="260" y="196"/>
      <point x="154" y="176" type="curve"/>
      <point x="139" y="9" type="line"/>
      <point x="125" y="-70"/>
      <point x="121" y="-133"/>
      <point x="120" y="-178" type="curve"/>
      <point x="175" y="-189"/>
      <point x="240" y="-189"/>
      <point x="296" y="-189" type="curve" smooth="yes"/>
      <point x="364" y="-189"/>
      <point x="480" y="-187"/>
      <point x="592" y="-185" type="curve"/>
      <point x="1088" y="-181" type="line" smooth="yes"/>
      <point x="1148" y="-181"/>
      <point x="1212" y="-181"/>
      <point x="1269" y="-152" type="curve"/>
      <point x="1288" y="576" type="line" smooth="yes"/>
      <point x="1296" y="881"/>
      <point x="1314" y="1232"/>
      <point x="1314" y="1407" type="curve" smooth="yes"/>
      <point x="1314" y="1467"/>
      <point x="1314" y="1530"/>
    </contour>
  </outline>
</glyph>
<glyph name="asciicircum" format="1">
  <advance width="1190"/>
  <unicode hex="005E"/>
  <outline>
    <contour>
      <point x="747" y="92" type="curve" smooth="yes"/>
      <point x="748" y="87"/>
      <point x="752" y="84"/>
      <point x="757" y="84" type="curve" smooth="yes"/>
      <point x="761" y="84"/>
      <point x="765" y="85"/>
      <point x="769" y="86" type="curve" smooth="yes"/>
      <point x="882" y="115"/>
      <point x="998" y="132"/>
      <point x="1111" y="151" type="curve"/>
      <point x="1126" y="156"/>
      <point x="1133" y="166"/>
      <point x="1133" y="182" type="curve" smooth="yes"/>
      <point x="1133" y="190"/>
      <point x="1131" y="199"/>
      <point x="1128" y="214" type="curve"/>
      <point x="876" y="910" type="line" smooth="yes"/>
      <point x="860" y="953"/>
      <point x="853" y="964"/>
      <point x="828" y="964" type="curve"/>
      <point x="728" y="967"/>
      <point x="623" y="972"/>
      <point x="515" y="984" type="curve" smooth="yes"/>
      <point x="512" y="984"/>
      <point x="511" y="985"/>
      <point x="510" y="985" type="curve"/>
      <point x="503" y="984" type="line" smooth="yes"/>
      <point x="496" y="983"/>
      <point x="490" y="976"/>
      <point x="489" y="972" type="curve"/>
      <point x="402" y="842"/>
      <point x="209" y="456"/>
      <point x="57" y="176" type="curve"/>
      <point x="46" y="152"/>
      <point x="41" y="136"/>
      <point x="41" y="128" type="curve" smooth="yes"/>
      <point x="41" y="121"/>
      <point x="46" y="117"/>
      <point x="55" y="115" type="curve"/>
      <point x="154" y="107"/>
      <point x="273" y="100"/>
      <point x="369" y="76" type="curve"/>
      <point x="382" y="76"/>
      <point x="391" y="80"/>
      <point x="394" y="88" type="curve"/>
      <point x="625" y="528" type="line"/>
      <point x="636" y="486"/>
      <point x="727" y="157"/>
    </contour>
  </outline>
</glyph>
<glyph name="grave" format="1">
  <advance width="664"/>
  <unicode hex="0060"/>
  <outline>
    <contour>
      <point x="595" y="1251" type="curve"/>
      <point x="577" y="1271"/>
      <point x="559" y="1290"/>
      <point x="540" y="1312" type="curve"/>
      <point x="385" y="1650" type="line"/>
      <point x="382" y="1650" type="line" smooth="yes"/>
      <point x="358" y="1650"/>
      <point x="333" y="1650"/>
      <point x="307" y="1648" type="curve"/>
      <point x="223" y="1623"/>
      <point x="72" y="1575"/>
      <point x="25" y="1560" type="curve"/>
      <point x="116" y="1498" type="line"/>
      <point x="229" y="1364"/>
      <point x="345" y="1234"/>
      <point x="412" y="1205" type="curve"/>
      <point x="432" y="1205"/>
      <point x="451" y="1205"/>
      <point x="470" y="1206" type="curve"/>
      <point x="514" y="1223"/>
      <point x="577" y="1235"/>
    </contour>
  </outline>
</glyph>
<glyph name="a" format="1">
  <advance width="1823"/>
  <unicode hex="0061"/>
  <outline>
    <contour>
      <point x="717" y="177"/>
      <point x="654" y="209"/>
      <point x="654" y="273" type="curve"/>
      <point x="654" y="364"/>
      <point x="929" y="413"/>
      <point x="1211" y="413" type="curve" smooth="yes"/>
      <point x="1220" y="413"/>
      <point x="1224" y="413"/>
      <point x="1224" y="412" type="curve" smooth="yes"/>
      <point x="1224" y="286"/>
      <point x="969" y="203"/>
      <point x="831" y="189" type="curve" smooth="yes"/>
    </contour>
    <contour>
      <point x="1351" y="-11" type="line"/>
      <point x="1351" y="-14" type="line"/>
      <point x="1663" y="14" type="line"/>
      <point x="1705" y="622"/>
      <point x="1706" y="566"/>
      <point x="1706" y="586" type="curve" smooth="yes"/>
      <point x="1706" y="878"/>
      <point x="1505" y="1055"/>
      <point x="908" y="1055" type="curve" smooth="yes"/>
      <point x="745" y="1055"/>
      <point x="388" y="1007"/>
      <point x="219" y="909" type="curve"/>
      <point x="328" y="651" type="line"/>
      <point x="561" y="722"/>
      <point x="766" y="750"/>
      <point x="918" y="750" type="curve" smooth="yes"/>
      <point x="1088" y="750"/>
      <point x="1189" y="726"/>
      <point x="1189" y="624" type="curve"/>
      <point x="466" y="619"/>
      <point x="237" y="455"/>
      <point x="237" y="225" type="curve" smooth="yes"/>
      <point x="237" y="77"/>
      <point x="360" y="-45"/>
      <point x="605" y="-45" type="curve" smooth="yes"/>
      <point x="886" y="-45"/>
      <point x="1197" y="48"/>
      <point x="1284" y="198" type="curve"/>
    </contour>
  </outline>
</glyph>
<glyph name="b" format="1">
  <advance width="1914"/>
  <unicode hex="0062"/>
  <outline>
    <contour>
      <point x="1870" y="528" type="curve" smooth="yes"/>
      <point x="1870" y="866"/>
      <point x="1570" y="1055"/>
      <point x="1228" y="1055" type="curve" smooth="yes"/>
      <point x="1057" y="1055"/>
      <point x="885" y="1003"/>
      <point x="769" y="932" type="curve"/>
      <point x="771" y="1006"/>
      <point x="789" y="1269"/>
      <point x="789" y="1345" type="curve" smooth="yes"/>
      <point x="789" y="1378"/>
      <point x="791" y="1412"/>
      <point x="791" y="1445" type="curve"/>
      <point x="745" y="1455"/>
      <point x="691" y="1457"/>
      <point x="639" y="1457" type="curve" smooth="yes"/>
      <point x="629" y="1457"/>
      <point x="618" y="1452"/>
      <point x="611" y="1451" type="curve" smooth="yes"/>
      <point x="357" y="1423" type="line"/>
      <point x="297" y="1419"/>
      <point x="250" y="1417"/>
      <point x="203" y="1411" type="curve"/>
      <point x="203" y="1367"/>
      <point x="204" y="1323"/>
      <point x="204" y="1278" type="curve" smooth="yes"/>
      <point x="204" y="1277"/>
      <point x="203" y="1275"/>
      <point x="203" y="1273" type="curve" smooth="yes"/>
      <point x="155" y="132" type="line"/>
      <point x="155" y="133"/>
      <point x="156" y="133"/>
      <point x="156" y="134" type="curve" smooth="yes"/>
      <point x="154" y="90"/>
      <point x="153" y="46"/>
      <point x="152" y="0" type="curve"/>
      <point x="169" y="-15"/>
      <point x="193" y="-22"/>
      <point x="221" y="-22" type="curve" smooth="yes"/>
      <point x="223" y="-22"/>
      <point x="227" y="-22"/>
      <point x="230" y="-21" type="curve" smooth="yes"/>
      <point x="382" y="8"/>
      <point x="418" y="10"/>
      <point x="435" y="19" type="curve"/>
      <point x="526" y="157"/>
      <point x="544" y="188"/>
      <point x="546" y="188" type="curve"/>
      <point x="546" y="185" type="line"/>
      <point x="680" y="34"/>
      <point x="918" y="-45"/>
      <point x="1166" y="-45" type="curve" smooth="yes"/>
      <point x="1547" y="-45"/>
      <point x="1870" y="212"/>
    </contour>
    <contour>
      <point x="1277" y="545" type="curve" smooth="yes"/>
      <point x="1277" y="383"/>
      <point x="1161" y="250"/>
      <point x="1003" y="250" type="curve" smooth="yes"/>
      <point x="849" y="250"/>
      <point x="748" y="348"/>
      <point x="738" y="432" type="curve"/>
      <point x="760" y="583"/>
      <point x="818" y="710"/>
      <point x="978" y="761" type="curve"/>
      <point x="1003" y="766"/>
      <point x="1027" y="768"/>
      <point x="1050" y="768" type="curve" smooth="yes"/>
      <point x="1197" y="768"/>
      <point x="1277" y="671"/>
    </contour>
  </outline>
</glyph>
<glyph name="d" format="1">
  <advance width="1917"/>
  <unicode hex="0064"/>
  <outline>
    <contour>
      <point x="1496" y="-43" type="curve"/>
      <point x="1557" y="-31" type="line"/>
      <point x="1526" y="-34" type="line"/>
      <point x="1595" y="-18"/>
      <point x="1751" y="19"/>
      <point x="1769" y="32" type="curve"/>
      <point x="1769" y="1453" type="line"/>
      <point x="1738" y="1456"/>
      <point x="1339" y="1427"/>
      <point x="1243" y="1423" type="curve"/>
      <point x="1244" y="1423"/>
      <point x="1237" y="1352"/>
      <point x="1237" y="1313" type="curve"/>
      <point x="1234" y="1194"/>
      <point x="1228" y="1049"/>
      <point x="1225" y="931" type="curve"/>
      <point x="1121" y="1003"/>
      <point x="958" y="1055"/>
      <point x="796" y="1055" type="curve" smooth="yes"/>
      <point x="440" y="1055"/>
      <point x="83" y="865"/>
      <point x="83" y="482" type="curve" smooth="yes"/>
      <point x="83" y="170"/>
      <point x="370" y="-41"/>
      <point x="736" y="-41" type="curve" smooth="yes"/>
      <point x="1095" y="-41"/>
      <point x="1257" y="76"/>
      <point x="1357" y="208" type="curve"/>
      <point x="1393" y="136"/>
      <point x="1447" y="44"/>
    </contour>
    <contour>
      <point x="760" y="255"/>
      <point x="686" y="344"/>
      <point x="686" y="502" type="curve" smooth="yes"/>
      <point x="686" y="619"/>
      <point x="782" y="770"/>
      <point x="960" y="770" type="curve" smooth="yes"/>
      <point x="1121" y="770"/>
      <point x="1214" y="652"/>
      <point x="1214" y="528" type="curve"/>
      <point x="1210" y="394"/>
      <point x="1118" y="255"/>
      <point x="907" y="255" type="curve" smooth="yes"/>
    </contour>
    <contour>
      <point x="1558" y="-31" type="line"/>
      <point x="1568" y="-30"/>
      <point x="1577" y="-28"/>
      <point x="1587" y="-25" type="curve"/>
    </contour>
  </outline>
</glyph>
<glyph name="e" format="1">
  <advance width="1753"/>
  <unicode hex="0065"/>
  <outline>
    <contour>
      <point x="105" y="484" type="curve" smooth="yes"/>
      <point x="105" y="61"/>
      <point x="539" y="-45"/>
      <point x="911" y="-45" type="curve" smooth="yes"/>
      <point x="1362" y="-45"/>
      <point x="1541" y="52"/>
      <point x="1594" y="98" type="curve"/>
      <point x="1593" y="222"/>
      <point x="1592" y="319"/>
      <point x="1592" y="404" type="curve"/>
      <point x="1518" y="358"/>
      <point x="1475" y="341"/>
      <point x="1403" y="312" type="curve"/>
      <point x="1276" y="280"/>
      <point x="1153" y="261"/>
      <point x="1042" y="261" type="curve" smooth="yes"/>
      <point x="994" y="261"/>
      <point x="949" y="264"/>
      <point x="906" y="272" type="curve"/>
      <point x="769" y="284"/>
      <point x="702" y="313"/>
      <point x="702" y="415" type="curve"/>
      <point x="749" y="411"/>
      <point x="794" y="410"/>
      <point x="838" y="410" type="curve" smooth="yes"/>
      <point x="1158" y="410"/>
      <point x="1438" y="486"/>
      <point x="1629" y="556" type="curve"/>
      <point x="1629" y="556"/>
      <point x="1630" y="556"/>
      <point x="1630" y="556" type="curve"/>
      <point x="1634" y="556"/>
      <point x="1638" y="561"/>
      <point x="1641" y="561" type="curve" smooth="yes"/>
      <point x="1642" y="561"/>
      <point x="1642" y="561"/>
      <point x="1643" y="561" type="curve"/>
      <point x="1644" y="572"/>
      <point x="1644" y="563"/>
      <point x="1644" y="573" type="curve" smooth="yes"/>
      <point x="1644" y="911"/>
      <point x="1250" y="1055"/>
      <point x="936" y="1055" type="curve" smooth="yes"/>
      <point x="541" y="1055"/>
      <point x="105" y="922"/>
    </contour>
    <contour>
      <point x="697" y="605" type="curve"/>
      <point x="712" y="748"/>
      <point x="873" y="788"/>
      <point x="957" y="788" type="curve" smooth="yes"/>
      <point x="1032" y="788"/>
      <point x="1138" y="774"/>
      <point x="1149" y="681" type="curve"/>
      <point x="1059" y="657"/>
      <point x="929" y="629"/>
    </contour>
  </outline>
</glyph>
<glyph name="f" format="1">
  <advance width="1413"/>
  <unicode hex="0066"/>
  <outline>
    <contour>
      <point x="1486" y="1176" type="curve"/>
      <point x="1479" y="1223"/>
      <point x="1460" y="1280"/>
      <point x="1460" y="1370" type="curve" smooth="yes"/>
      <point x="1460" y="1390"/>
      <point x="1461" y="1411"/>
      <point x="1463" y="1435" type="curve"/>
      <point x="1460" y="1458"/>
      <point x="1458" y="1482"/>
      <point x="1458" y="1505" type="curve"/>
      <point x="1344" y="1521"/>
      <point x="1114" y="1526"/>
      <point x="1015" y="1526" type="curve" smooth="yes"/>
      <point x="699" y="1526"/>
      <point x="483" y="1423"/>
      <point x="383" y="1160" type="curve" smooth="yes"/>
      <point x="364" y="1111"/>
      <point x="353" y="1055"/>
      <point x="350" y="988" type="curve"/>
      <point x="141" y="988" type="line"/>
      <point x="136" y="934"/>
      <point x="79" y="804"/>
      <point x="79" y="752" type="curve"/>
      <point x="106" y="744"/>
      <point x="144" y="742"/>
      <point x="201" y="742" type="curve" smooth="yes"/>
      <point x="337" y="742" type="line"/>
      <point x="321" y="473"/>
      <point x="307" y="207"/>
      <point x="305" y="75" type="curve" smooth="yes"/>
      <point x="305" y="40"/>
      <point x="308" y="11"/>
      <point x="309" y="-19" type="curve"/>
      <point x="340" y="-21"/>
      <point x="371" y="-22"/>
      <point x="403" y="-22" type="curve" smooth="yes"/>
      <point x="413" y="-22"/>
      <point x="423" y="-18"/>
      <point x="429" y="-15" type="curve"/>
      <point x="704" y="23" type="line"/>
      <point x="784" y="27"/>
      <point x="849" y="30"/>
      <point x="914" y="35" type="curve"/>
      <point x="914" y="63"/>
      <point x="912" y="92"/>
      <point x="912" y="121" type="curve" smooth="yes"/>
      <point x="912" y="271"/>
      <point x="929" y="510"/>
      <point x="941" y="744" type="curve"/>
      <point x="1090" y="744" type="line"/>
      <point x="1127" y="745"/>
      <point x="1155" y="748"/>
      <point x="1184" y="757" type="curve"/>
      <point x="1378" y="791" type="line"/>
      <point x="1390" y="865"/>
      <point x="1398" y="929"/>
      <point x="1398" y="977" type="curve"/>
      <point x="1337" y="985"/>
      <point x="1272" y="988"/>
      <point x="1207" y="988" type="curve" smooth="yes"/>
      <point x="944" y="988" type="line"/>
      <point x="982" y="1131"/>
      <point x="1035" y="1179"/>
      <point x="1205" y="1179" type="curve" smooth="yes"/>
      <point x="1281" y="1179"/>
      <point x="1372" y="1175"/>
      <point x="1440" y="1175" type="curve" smooth="yes"/>
      <point x="1457" y="1175"/>
      <point x="1472" y="1175"/>
    </contour>
  </outline>
</glyph>
<glyph name="g" format="1">
  <advance width="1932"/>
  <unicode hex="0067"/>
  <outline>
    <contour>
      <point x="1191" y="-23" type="curve"/>
      <point x="1160" y="-108"/>
      <point x="1042" y="-212"/>
      <point x="820" y="-212" type="curve" smooth="yes"/>
      <point x="674" y="-212"/>
      <point x="577" y="-196"/>
      <point x="479" y="-168" type="curve"/>
      <point x="473" y="-161"/>
      <point x="463" y="-161"/>
      <point x="452" y="-161" type="curve" smooth="yes"/>
      <point x="427" y="-161"/>
      <point x="411" y="-171"/>
      <point x="400" y="-212" type="curve"/>
      <point x="377" y="-298" type="line"/>
      <point x="360" y="-368"/>
      <point x="337" y="-455"/>
      <point x="337" y="-483" type="curve"/>
      <point x="479" y="-543"/>
      <point x="671" y="-556"/>
      <point x="831" y="-556" type="curve" smooth="yes"/>
      <point x="1237" y="-556"/>
      <point x="1711" y="-333"/>
      <point x="1773" y="17" type="curve"/>
      <point x="1773" y="16" type="line"/>
      <point x="1791" y="380"/>
      <point x="1792" y="543"/>
      <point x="1810" y="906" type="curve" smooth="yes"/>
      <point x="1811" y="931"/>
      <point x="1815" y="957"/>
      <point x="1818" y="983" type="curve"/>
      <point x="1795" y="986"/>
      <point x="1774" y="989"/>
      <point x="1752" y="994" type="curve" smooth="yes"/>
      <point x="1717" y="1001" type="line"/>
      <point x="1586" y="1008"/>
      <point x="1414" y="1025"/>
      <point x="1278" y="1035" type="curve"/>
      <point x="1278" y="1035"/>
      <point x="1278" y="1035"/>
      <point x="1268" y="935" type="curve"/>
      <point x="1153" y="1001"/>
      <point x="1002" y="1055"/>
      <point x="808" y="1055" type="curve" smooth="yes"/>
      <point x="421" y="1055"/>
      <point x="98" y="798"/>
      <point x="98" y="481" type="curve" smooth="yes"/>
      <point x="98" y="141"/>
      <point x="394" y="-45"/>
      <point x="737" y="-45" type="curve" smooth="yes"/>
      <point x="909" y="-45"/>
      <point x="1082" y="-1"/>
      <point x="1197" y="63" type="curve"/>
      <point x="1195" y="29"/>
      <point x="1191" y="-4"/>
    </contour>
    <contour>
      <point x="692" y="463" type="curve" smooth="yes"/>
      <point x="692" y="624"/>
      <point x="807" y="760"/>
      <point x="957" y="760" type="curve" smooth="yes"/>
      <point x="1087" y="760"/>
      <point x="1179" y="684"/>
      <point x="1215" y="594" type="curve"/>
      <point x="1217" y="587"/>
      <point x="1220" y="581"/>
      <point x="1220" y="570" type="curve"/>
      <point x="1212" y="448"/>
      <point x="1191" y="378"/>
      <point x="1157" y="330" type="curve"/>
      <point x="1101" y="280"/>
      <point x="1015" y="241"/>
      <point x="920" y="241" type="curve" smooth="yes"/>
      <point x="772" y="241"/>
      <point x="692" y="331"/>
    </contour>
  </outline>
</glyph>
<glyph name="h" format="1">
  <advance width="1918"/>
  <unicode hex="0068"/>
  <outline>
    <contour>
      <point x="157" y="93" type="line"/>
      <point x="157" y="55"/>
      <point x="158" y="17"/>
      <point x="161" y="-19" type="curve"/>
      <point x="194" y="-21"/>
      <point x="230" y="-22"/>
      <point x="265" y="-22" type="curve" smooth="yes"/>
      <point x="275" y="-22"/>
      <point x="286" y="-18"/>
      <point x="292" y="-15" type="curve"/>
      <point x="627" y="23" type="line"/>
      <point x="672" y="26"/>
      <point x="707" y="29"/>
      <point x="739" y="34" type="curve"/>
      <point x="739" y="246" type="line" smooth="yes"/>
      <point x="739" y="405"/>
      <point x="741" y="520"/>
      <point x="764" y="600" type="curve"/>
      <point x="791" y="710"/>
      <point x="933" y="770"/>
      <point x="1036" y="770" type="curve" smooth="yes"/>
      <point x="1242" y="770"/>
      <point x="1272" y="661"/>
      <point x="1272" y="585" type="curve" smooth="yes"/>
      <point x="1245" y="61"/>
      <point x="1238" y="11"/>
      <point x="1238" y="-14" type="curve" smooth="yes"/>
      <point x="1238" y="-16"/>
      <point x="1238" y="-17"/>
      <point x="1238" y="-19" type="curve"/>
      <point x="1273" y="-21"/>
      <point x="1321" y="-22"/>
      <point x="1357" y="-22" type="curve" smooth="yes"/>
      <point x="1367" y="-22"/>
      <point x="1378" y="-17"/>
      <point x="1385" y="-15" type="curve"/>
      <point x="1719" y="14" type="line"/>
      <point x="1766" y="17"/>
      <point x="1802" y="19"/>
      <point x="1834" y="24" type="curve"/>
      <point x="1834" y="252"/>
      <point x="1852" y="575"/>
      <point x="1852" y="593" type="curve" smooth="yes"/>
      <point x="1852" y="641"/>
      <point x="1847" y="686"/>
      <point x="1835" y="724" type="curve"/>
      <point x="1777" y="986"/>
      <point x="1466" y="1049"/>
      <point x="1283" y="1049" type="curve" smooth="yes"/>
      <point x="1280" y="1049"/>
      <point x="1277" y="1049"/>
      <point x="1274" y="1049" type="curve" smooth="yes"/>
      <point x="1131" y="1047"/>
      <point x="900" y="999"/>
      <point x="772" y="935" type="curve"/>
      <point x="777" y="1033"/>
      <point x="794" y="1317"/>
      <point x="794" y="1396" type="curve" smooth="yes"/>
      <point x="794" y="1429"/>
      <point x="790" y="1460"/>
      <point x="780" y="1485" type="curve"/>
      <point x="738" y="1485"/>
      <point x="696" y="1479"/>
      <point x="658" y="1478" type="curve"/>
      <point x="296" y="1443"/>
      <point x="250" y="1440"/>
      <point x="204" y="1438" type="curve"/>
    </contour>
  </outline>
</glyph>
<glyph name="i" format="1">
  <advance width="892"/>
  <unicode hex="0069"/>
  <outline>
    <contour>
      <point x="171" y="990" type="curve"/>
      <point x="155" y="878"/>
      <point x="144" y="586"/>
      <point x="139" y="412" type="curve"/>
      <point x="129" y="200"/>
      <point x="122" y="28"/>
      <point x="122" y="-20" type="curve"/>
      <point x="155" y="-22"/>
      <point x="190" y="-22"/>
      <point x="225" y="-22" type="curve"/>
      <point x="369" y="-8"/>
      <point x="616" y="29"/>
      <point x="708" y="41" type="curve"/>
      <point x="706" y="63"/>
      <point x="706" y="89"/>
      <point x="706" y="112" type="curve"/>
      <point x="744" y="1023" type="line"/>
      <point x="711" y="1025"/>
      <point x="677" y="1026"/>
      <point x="644" y="1026" type="curve" smooth="yes"/>
      <point x="640" y="1026" type="line" smooth="yes"/>
      <point x="484" y="1009"/>
      <point x="325" y="1000"/>
    </contour>
    <contour>
      <point x="724" y="1530" type="curve"/>
      <point x="687" y="1569"/>
      <point x="624" y="1583"/>
      <point x="554" y="1583" type="curve" smooth="yes"/>
      <point x="431" y="1583"/>
      <point x="285" y="1538"/>
      <point x="230" y="1500" type="curve"/>
      <point x="152" y="1471"/>
      <point x="136" y="1409"/>
      <point x="136" y="1359" type="curve" smooth="yes"/>
      <point x="136" y="1195"/>
      <point x="218" y="1174"/>
      <point x="440" y="1174" type="curve" smooth="yes"/>
      <point x="590" y="1174"/>
      <point x="789" y="1223"/>
      <point x="789" y="1352" type="curve" smooth="yes"/>
      <point x="789" y="1415"/>
      <point x="767" y="1478"/>
    </contour>
  </outline>
</glyph>
<glyph name="j" format="1">
  <advance width="1097"/>
  <unicode hex="006A"/>
  <outline>
    <contour>
      <point x="79" y="-138" type="curve" smooth="yes"/>
      <point x="28" y="-135"/>
      <point x="-19" y="-124"/>
      <point x="-34" y="-118" type="curve"/>
      <point x="-38" y="-145"/>
      <point x="-72" y="-277"/>
      <point x="-72" y="-397" type="curve" smooth="yes"/>
      <point x="-72" y="-414"/>
      <point x="-72" y="-431"/>
      <point x="-70" y="-447" type="curve"/>
      <point x="-59" y="-447"/>
      <point x="-47" y="-446"/>
      <point x="-34" y="-446" type="curve" smooth="yes"/>
      <point x="51" y="-446"/>
      <point x="186" y="-456"/>
      <point x="273" y="-456" type="curve" smooth="yes"/>
      <point x="613" y="-456"/>
      <point x="798" y="-355"/>
      <point x="903" y="-103" type="curve" smooth="yes"/>
      <point x="927" y="-46"/>
      <point x="943" y="23"/>
      <point x="947" y="99" type="curve"/>
      <point x="976" y="1023" type="line"/>
      <point x="955" y="1025"/>
      <point x="934" y="1026"/>
      <point x="910" y="1026" type="curve" smooth="yes"/>
      <point x="906" y="1026" type="line" smooth="yes"/>
      <point x="755" y="1014"/>
      <point x="490" y="994"/>
      <point x="388" y="980" type="curve"/>
      <point x="382" y="655"/>
      <point x="374" y="451"/>
      <point x="362" y="180" type="curve" smooth="yes"/>
      <point x="359" y="122"/>
      <point x="353" y="76"/>
      <point x="351" y="29" type="curve" smooth="yes"/>
      <point x="348" y="-36"/>
      <point x="307" y="-76"/>
      <point x="247" y="-131" type="curve"/>
      <point x="214" y="-138"/>
      <point x="180" y="-141"/>
      <point x="146" y="-141" type="curve" smooth="yes"/>
      <point x="124" y="-141"/>
      <point x="101" y="-140"/>
    </contour>
    <contour>
      <point x="957" y="1530" type="curve"/>
      <point x="910" y="1565"/>
      <point x="861" y="1587"/>
      <point x="765" y="1587" type="curve" smooth="yes"/>
      <point x="762" y="1587" type="line" smooth="yes"/>
      <point x="639" y="1570"/>
      <point x="533" y="1542"/>
      <point x="460" y="1500" type="curve"/>
      <point x="383" y="1471"/>
      <point x="368" y="1409"/>
      <point x="368" y="1358" type="curve" smooth="yes"/>
      <point x="368" y="1204"/>
      <point x="417" y="1174"/>
      <point x="673" y="1174" type="curve" smooth="yes"/>
      <point x="798" y="1174"/>
      <point x="913" y="1200"/>
      <point x="955" y="1260" type="curve"/>
      <point x="1004" y="1286"/>
      <point x="1020" y="1313"/>
      <point x="1020" y="1355" type="curve" smooth="yes"/>
      <point x="1020" y="1417"/>
      <point x="998" y="1479"/>
    </contour>
  </outline>
</glyph>
<glyph name="m" format="1">
  <advance width="2819"/>
  <unicode hex="006D"/>
  <outline>
    <contour>
      <point x="188" y="977" type="curve"/>
      <point x="150" y="61" type="line"/>
      <point x="150" y="33"/>
      <point x="152" y="7"/>
      <point x="153" y="-19" type="curve"/>
      <point x="179" y="-21"/>
      <point x="206" y="-22"/>
      <point x="232" y="-22" type="curve" smooth="yes"/>
      <point x="277" y="-22"/>
      <point x="323" y="-18"/>
      <point x="364" y="-15" type="curve"/>
      <point x="715" y="23" type="line"/>
      <point x="735" y="50"/>
      <point x="739" y="109"/>
      <point x="739" y="180" type="curve" smooth="yes"/>
      <point x="739" y="242"/>
      <point x="736" y="313"/>
      <point x="736" y="382" type="curve"/>
      <point x="739" y="461"/>
      <point x="745" y="539"/>
      <point x="782" y="663" type="curve" smooth="yes"/>
      <point x="804" y="738"/>
      <point x="902" y="763"/>
      <point x="976" y="763" type="curve" smooth="yes"/>
      <point x="1056" y="763"/>
      <point x="1111" y="699"/>
      <point x="1136" y="611" type="curve"/>
      <point x="1146" y="586"/>
      <point x="1152" y="559"/>
      <point x="1152" y="530" type="curve" smooth="yes"/>
      <point x="1152" y="523"/>
      <point x="1151" y="517"/>
      <point x="1151" y="510" type="curve" smooth="yes"/>
      <point x="1135" y="270"/>
      <point x="1144" y="306"/>
      <point x="1127" y="69" type="curve"/>
      <point x="1127" y="36"/>
      <point x="1128" y="8"/>
      <point x="1133" y="-19" type="curve"/>
      <point x="1158" y="-21"/>
      <point x="1184" y="-22"/>
      <point x="1212" y="-22" type="curve" smooth="yes"/>
      <point x="1256" y="-22"/>
      <point x="1301" y="-17"/>
      <point x="1343" y="-15" type="curve"/>
      <point x="1525" y="3" type="line" smooth="yes"/>
      <point x="1592" y="10"/>
      <point x="1667" y="19"/>
      <point x="1701" y="24" type="curve"/>
      <point x="1701" y="109" type="line" smooth="yes"/>
      <point x="1701" y="216"/>
      <point x="1706" y="310"/>
      <point x="1721" y="596" type="curve"/>
      <point x="1721" y="705"/>
      <point x="1828" y="755"/>
      <point x="1900" y="789" type="curve"/>
      <point x="2020" y="783"/>
      <point x="2120" y="665"/>
      <point x="2120" y="527" type="curve" smooth="yes"/>
      <point x="2120" y="521"/>
      <point x="2119" y="516"/>
      <point x="2119" y="510" type="curve" smooth="yes"/>
      <point x="2103" y="270"/>
      <point x="2111" y="306"/>
      <point x="2095" y="69" type="curve"/>
      <point x="2095" y="36"/>
      <point x="2096" y="8"/>
      <point x="2099" y="-19" type="curve"/>
      <point x="2126" y="-21"/>
      <point x="2153" y="-22"/>
      <point x="2181" y="-22" type="curve" smooth="yes"/>
      <point x="2191" y="-22"/>
      <point x="2202" y="-17"/>
      <point x="2209" y="-15" type="curve"/>
      <point x="2489" y="14" type="line"/>
      <point x="2564" y="17"/>
      <point x="2626" y="19"/>
      <point x="2684" y="24" type="curve"/>
      <point x="2684" y="184"/>
      <point x="2698" y="340"/>
      <point x="2698" y="501" type="curve" smooth="yes"/>
      <point x="2698" y="580"/>
      <point x="2686" y="654"/>
      <point x="2660" y="722" type="curve"/>
      <point x="2564" y="949"/>
      <point x="2400" y="1051"/>
      <point x="2141" y="1051" type="curve" smooth="yes"/>
      <point x="1949" y="1051"/>
      <point x="1744" y="1002"/>
      <point x="1606" y="890" type="curve"/>
      <point x="1504" y="997"/>
      <point x="1359" y="1044"/>
      <point x="1207" y="1044" type="curve" smooth="yes"/>
      <point x="1184" y="1044"/>
      <point x="1161" y="1043"/>
      <point x="1138" y="1041" type="curve" smooth="yes"/>
      <point x="925" y="1018"/>
      <point x="729" y="986"/>
      <point x="616" y="833" type="curve"/>
      <point x="565" y="965" type="line"/>
      <point x="545" y="990"/>
      <point x="528" y="1013"/>
      <point x="509" y="1038" type="curve"/>
      <point x="483" y="1037"/>
      <point x="456" y="1037"/>
      <point x="430" y="1037" type="curve"/>
      <point x="379" y="1022"/>
      <point x="325" y="1013"/>
      <point x="275" y="1003" type="curve"/>
      <point x="239" y="1000"/>
      <point x="213" y="996"/>
    </contour>
  </outline>
</glyph>
<glyph name="n" format="1">
  <advance width="1981"/>
  <unicode hex="006E"/>
  <outline>
    <contour>
      <point x="308" y="-29"/>
      <point x="656" y="-9"/>
      <point x="723" y="4" type="curve"/>
      <point x="723" y="128"/>
      <point x="721" y="230"/>
      <point x="721" y="302" type="curve" smooth="yes"/>
      <point x="721" y="433"/>
      <point x="727" y="565"/>
      <point x="757" y="604" type="curve"/>
      <point x="795" y="695"/>
      <point x="868" y="769"/>
      <point x="1032" y="769" type="curve" smooth="yes"/>
      <point x="1121" y="769"/>
      <point x="1203" y="714"/>
      <point x="1244" y="643" type="curve"/>
      <point x="1259" y="608"/>
      <point x="1268" y="569"/>
      <point x="1268" y="531" type="curve" smooth="yes"/>
      <point x="1268" y="524"/>
      <point x="1255" y="232"/>
      <point x="1244" y="69" type="curve"/>
      <point x="1244" y="36"/>
      <point x="1241" y="8"/>
      <point x="1246" y="-19" type="curve"/>
      <point x="1247" y="-19"/>
      <point x="1248" y="-19"/>
      <point x="1249" y="-19" type="curve" smooth="yes"/>
      <point x="1330" y="-19"/>
      <point x="1720" y="-17"/>
      <point x="1833" y="2" type="curve"/>
      <point x="1843" y="370"/>
      <point x="1851" y="466"/>
      <point x="1851" y="540" type="curve" smooth="yes"/>
      <point x="1851" y="589"/>
      <point x="1848" y="639"/>
      <point x="1838" y="687" type="curve"/>
      <point x="1774" y="929"/>
      <point x="1547" y="1044"/>
      <point x="1235" y="1044" type="curve" smooth="yes"/>
      <point x="1007" y="1044"/>
      <point x="732" y="994"/>
      <point x="606" y="834" type="curve"/>
      <point x="501" y="1038" type="line"/>
      <point x="171" y="965" type="line"/>
      <point x="171" y="962"/>
      <point x="166" y="772"/>
      <point x="139" y="80" type="curve"/>
      <point x="139" y="46"/>
      <point x="141" y="2"/>
      <point x="143" y="-29" type="curve"/>
    </contour>
  </outline>
</glyph>
<glyph name="p" format="1">
  <advance width="1939"/>
  <unicode hex="0070"/>
  <outline>
    <contour>
      <point x="1880" y="560" type="curve" smooth="yes"/>
      <point x="1880" y="842"/>
      <point x="1613" y="1052"/>
      <point x="1266" y="1052" type="curve" smooth="yes"/>
      <point x="1010" y="1052"/>
      <point x="757" y="997"/>
      <point x="613" y="835" type="curve"/>
      <point x="601" y="913"/>
      <point x="583" y="938"/>
      <point x="564" y="962" type="curve" smooth="yes"/>
      <point x="543" y="987"/>
      <point x="522" y="1010"/>
      <point x="496" y="1031" type="curve"/>
      <point x="418" y="1005"/>
      <point x="347" y="1005"/>
      <point x="271" y="996" type="curve"/>
      <point x="237" y="994"/>
      <point x="212" y="989"/>
      <point x="186" y="970" type="curve"/>
      <point x="136" y="-236" type="line"/>
      <point x="136" y="-280"/>
      <point x="138" y="-321"/>
      <point x="139" y="-361" type="curve"/>
      <point x="188" y="-363"/>
      <point x="239" y="-364"/>
      <point x="289" y="-364" type="curve" smooth="yes"/>
      <point x="299" y="-364"/>
      <point x="310" y="-359"/>
      <point x="315" y="-357" type="curve"/>
      <point x="563" y="-330" type="line"/>
      <point x="625" y="-326"/>
      <point x="673" y="-323"/>
      <point x="718" y="-319" type="curve"/>
      <point x="718" y="-189" type="line" smooth="yes"/>
      <point x="718" y="-156"/>
      <point x="733" y="28"/>
      <point x="733" y="61" type="curve"/>
      <point x="842" y="-2"/>
      <point x="1012" y="-45"/>
      <point x="1183" y="-45" type="curve" smooth="yes"/>
      <point x="1554" y="-45"/>
      <point x="1880" y="196"/>
    </contour>
    <contour>
      <point x="1284" y="523" type="curve" smooth="yes"/>
      <point x="1284" y="378"/>
      <point x="1176" y="233"/>
      <point x="1009" y="233" type="curve" smooth="yes"/>
      <point x="886" y="233"/>
      <point x="796" y="293"/>
      <point x="756" y="373" type="curve"/>
      <point x="752" y="391"/>
      <point x="750" y="407"/>
      <point x="750" y="434" type="curve" smooth="yes"/>
      <point x="750" y="512"/>
      <point x="751" y="622"/>
      <point x="841" y="688" type="curve" smooth="yes"/>
      <point x="877" y="715"/>
      <point x="954" y="751"/>
      <point x="1039" y="751" type="curve" smooth="yes"/>
      <point x="1177" y="751"/>
      <point x="1284" y="671"/>
    </contour>
  </outline>
</glyph>
<glyph name="q" format="1">
  <advance width="1915"/>
  <unicode hex="0071"/>
  <outline>
    <contour>
      <point x="62" y="481" type="curve" smooth="yes"/>
      <point x="62" y="141"/>
      <point x="358" y="-45"/>
      <point x="701" y="-45" type="curve" smooth="yes"/>
      <point x="873" y="-45"/>
      <point x="1046" y="-1"/>
      <point x="1161" y="63" type="curve"/>
      <point x="1159" y="29"/>
      <point x="1142" y="-212"/>
      <point x="1142" y="-231" type="curve" smooth="yes"/>
      <point x="1142" y="-281"/>
      <point x="1150" y="-323"/>
      <point x="1158" y="-362" type="curve"/>
      <point x="1212" y="-362"/>
      <point x="1270" y="-357"/>
      <point x="1322" y="-355" type="curve"/>
      <point x="1571" y="-315" type="line"/>
      <point x="1631" y="-311"/>
      <point x="1680" y="-308"/>
      <point x="1725" y="-303" type="curve"/>
      <point x="1725" y="-181" type="line"/>
      <point x="1743" y="183"/>
      <point x="1756" y="543"/>
      <point x="1774" y="906" type="curve" smooth="yes"/>
      <point x="1775" y="931"/>
      <point x="1779" y="957"/>
      <point x="1782" y="983" type="curve"/>
      <point x="1759" y="986"/>
      <point x="1738" y="989"/>
      <point x="1716" y="994" type="curve" smooth="yes"/>
      <point x="1681" y="1001" type="line"/>
      <point x="1649" y="973"/>
      <point x="1609" y="941"/>
      <point x="1572" y="915" type="curve"/>
      <point x="1396" y="957"/>
      <point x="1244" y="995"/>
      <point x="1112" y="995" type="curve" smooth="yes"/>
      <point x="1059" y="995"/>
      <point x="1008" y="988"/>
      <point x="961" y="974" type="curve"/>
      <point x="909" y="1022"/>
      <point x="849" y="1055"/>
      <point x="772" y="1055" type="curve" smooth="yes"/>
      <point x="385" y="1055"/>
      <point x="62" y="798"/>
    </contour>
    <contour>
      <point x="656" y="463" type="curve" smooth="yes"/>
      <point x="656" y="624"/>
      <point x="771" y="760"/>
      <point x="921" y="760" type="curve" smooth="yes"/>
      <point x="1051" y="760"/>
      <point x="1143" y="684"/>
      <point x="1179" y="594" type="curve"/>
      <point x="1181" y="587"/>
      <point x="1184" y="581"/>
      <point x="1184" y="570" type="curve"/>
      <point x="1176" y="448"/>
      <point x="1155" y="378"/>
      <point x="1121" y="330" type="curve"/>
      <point x="1065" y="280"/>
      <point x="979" y="241"/>
      <point x="884" y="241" type="curve" smooth="yes"/>
      <point x="736" y="241"/>
      <point x="656" y="331"/>
    </contour>
    <contour>
      <point x="1663" y="1005" type="curve"/>
      <point x="1680" y="1012"/>
      <point x="1697" y="1018"/>
      <point x="1705" y="1023" type="curve"/>
      <point x="1681" y="1001" type="line"/>
      <point x="1675" y="1003"/>
      <point x="1669" y="1004"/>
    </contour>
    <contour>
      <point x="1710" y="1027" type="curve"/>
      <point x="1707" y="1024" type="line" smooth="yes"/>
      <point x="1709" y="1025"/>
      <point x="1710" y="1026"/>
    </contour>
    <contour>
      <point x="1707" y="1024" type="curve"/>
      <point x="1705" y="1023" type="line"/>
      <point x="1706" y="1023"/>
      <point x="1706" y="1023"/>
    </contour>
  </outline>
</glyph>
<glyph name="r" format="1">
  <advance width="1403"/>
  <unicode hex="0072"/>
  <outline>
    <contour>
      <point x="185" y="966" type="curve"/>
      <point x="148" y="59" type="line"/>
      <point x="148" y="32"/>
      <point x="151" y="6"/>
      <point x="154" y="-19" type="curve"/>
      <point x="186" y="-22"/>
      <point x="218" y="-23"/>
      <point x="257" y="-23" type="curve" smooth="yes"/>
      <point x="355" y="-23"/>
      <point x="451" y="-2"/>
      <point x="547" y="9" type="curve"/>
      <point x="634" y="21" type="line"/>
      <point x="680" y="26"/>
      <point x="708" y="30"/>
      <point x="732" y="35" type="curve"/>
      <point x="732" y="162" type="line"/>
      <point x="735" y="355"/>
      <point x="747" y="360"/>
      <point x="758" y="554" type="curve"/>
      <point x="781" y="655"/>
      <point x="841" y="708"/>
      <point x="945" y="708" type="curve" smooth="yes"/>
      <point x="1026" y="708"/>
      <point x="1069" y="655"/>
      <point x="1092" y="608" type="curve"/>
      <point x="1081" y="580"/>
      <point x="1068" y="567"/>
      <point x="1057" y="563" type="curve"/>
      <point x="1330" y="575" type="line"/>
      <point x="1356" y="644"/>
      <point x="1380" y="720"/>
      <point x="1398" y="798" type="curve" smooth="yes"/>
      <point x="1402" y="815"/>
      <point x="1409" y="834"/>
      <point x="1414" y="852" type="curve"/>
      <point x="1395" y="940"/>
      <point x="1304" y="985"/>
      <point x="1205" y="1006" type="curve"/>
      <point x="1162" y="1019"/>
      <point x="1115" y="1027"/>
      <point x="1066" y="1027" type="curve" smooth="yes"/>
      <point x="943" y="1027"/>
      <point x="734" y="986"/>
      <point x="600" y="826" type="curve"/>
      <point x="593" y="892"/>
      <point x="581" y="902"/>
      <point x="566" y="912" type="curve"/>
      <point x="538" y="951"/>
      <point x="508" y="989"/>
      <point x="475" y="1026" type="curve"/>
      <point x="418" y="1009"/>
      <point x="353" y="1001"/>
      <point x="296" y="991" type="curve"/>
      <point x="253" y="989"/>
      <point x="220" y="983"/>
    </contour>
    <contour>
      <point x="1040" y="563" type="curve"/>
      <point x="1057" y="563" type="line"/>
      <point x="1054" y="561"/>
      <point x="1051" y="561"/>
      <point x="1048" y="561" type="curve" smooth="yes"/>
      <point x="1045" y="561"/>
      <point x="1042" y="561"/>
    </contour>
  </outline>
</glyph>
<glyph name="s" format="1">
  <advance width="1593"/>
  <unicode hex="0073"/>
  <outline>
    <contour>
      <point x="742" y="-47" type="curve" smooth="yes"/>
      <point x="1357" y="-47"/>
      <point x="1491.0" y="96.0"/>
      <point x="1491.0" y="313.0" type="curve" smooth="yes"/>
      <point x="1491.0" y="622.0"/>
      <point x="1112.0" y="645.0"/>
      <point x="784.0" y="682.0" type="curve" smooth="yes"/>
      <point x="701.0" y="691.0"/>
      <point x="652.0" y="691.0"/>
      <point x="652.0" y="717.0" type="curve" smooth="yes"/>
      <point x="652.0" y="751.0"/>
      <point x="752" y="766"/>
      <point x="906" y="766" type="curve" smooth="yes"/>
      <point x="1064" y="766"/>
      <point x="1267" y="712"/>
      <point x="1318" y="695" type="curve"/>
      <point x="1401" y="898"/>
      <point x="1403.0" y="924.0"/>
      <point x="1408.0" y="957.0" type="curve"/>
      <point x="1251.0" y="1038.0"/>
      <point x="1092" y="1049"/>
      <point x="929" y="1056" type="curve" smooth="yes"/>
      <point x="852" y="1059"/>
      <point x="110.0" y="1079.0"/>
      <point x="110.0" y="702.0" type="curve" smooth="yes"/>
      <point x="110.0" y="421.0"/>
      <point x="471.0" y="412.0"/>
      <point x="788.0" y="353.0" type="curve" smooth="yes"/>
      <point x="880.0" y="336.0"/>
      <point x="919.0" y="329.0"/>
      <point x="919.0" y="294.0" type="curve" smooth="yes"/>
      <point x="919.0" y="263.0"/>
      <point x="860" y="250"/>
      <point x="780" y="250" type="curve" smooth="yes"/>
      <point x="419" y="250"/>
      <point x="220.0" y="326.0"/>
      <point x="178.0" y="333.0" type="curve"/>
      <point x="160.0" y="232.0"/>
      <point x="137.0" y="141.0"/>
      <point x="110.0" y="49.0" type="curve"/>
      <point x="241.0" y="-26.0"/>
      <point x="556" y="-47"/>
    </contour>
  </outline>
</glyph>
<glyph name="t" format="1">
  <advance width="1477"/>
  <unicode hex="0074"/>
  <outline>
    <contour>
      <point x="325" y="741" type="line"/>
      <point x="320" y="645"/>
      <point x="319" y="545"/>
      <point x="312" y="439" type="curve"/>
      <point x="312" y="427" type="line" smooth="yes"/>
      <point x="312" y="108"/>
      <point x="577" y="-43"/>
      <point x="930" y="-43" type="curve" smooth="yes"/>
      <point x="1066" y="-43"/>
      <point x="1294" y="-17"/>
      <point x="1427" y="40" type="curve"/>
      <point x="1427" y="62"/>
      <point x="1427" y="85"/>
      <point x="1426" y="110" type="curve"/>
      <point x="1408" y="226"/>
      <point x="1414" y="296"/>
      <point x="1403" y="347" type="curve"/>
      <point x="1341" y="328"/>
      <point x="1218" y="291"/>
      <point x="1116" y="286" type="curve"/>
      <point x="1000" y="286"/>
      <point x="904" y="315"/>
      <point x="904" y="466" type="curve"/>
      <point x="907" y="552"/>
      <point x="913" y="648"/>
      <point x="921" y="744" type="curve"/>
      <point x="1179" y="744" type="line" smooth="yes"/>
      <point x="1198" y="744"/>
      <point x="1216" y="743"/>
      <point x="1234" y="743" type="curve" smooth="yes"/>
      <point x="1275" y="743"/>
      <point x="1312" y="745"/>
      <point x="1341" y="756" type="curve"/>
      <point x="1357" y="859" type="line"/>
      <point x="1369" y="910"/>
      <point x="1375" y="950"/>
      <point x="1375" y="977" type="curve"/>
      <point x="1349" y="985"/>
      <point x="1317" y="988"/>
      <point x="1285" y="988" type="curve" smooth="yes"/>
      <point x="931" y="988" type="line"/>
      <point x="938" y="1124"/>
      <point x="948" y="1252"/>
      <point x="948" y="1350" type="curve" smooth="yes"/>
      <point x="948" y="1378"/>
      <point x="946" y="1404"/>
      <point x="942" y="1431" type="curve"/>
      <point x="793" y="1431"/>
      <point x="492" y="1410"/>
      <point x="338" y="1394" type="curve"/>
      <point x="335" y="1294"/>
      <point x="338" y="1176"/>
      <point x="330" y="988" type="curve"/>
      <point x="145" y="988" type="line"/>
      <point x="140" y="934"/>
      <point x="85" y="803"/>
      <point x="85" y="751" type="curve"/>
      <point x="109" y="743"/>
      <point x="148" y="741"/>
      <point x="203" y="741" type="curve" smooth="yes"/>
    </contour>
  </outline>
</glyph>
<glyph name="v" format="1">
  <advance width="1774"/>
  <unicode hex="0076"/>
  <outline>
    <contour>
      <point x="104" y="983" type="curve"/>
      <point x="163" y="864" type="line"/>
      <point x="274" y="591"/>
      <point x="381" y="318"/>
      <point x="477" y="87" type="curve"/>
      <point x="495" y="52"/>
      <point x="514" y="18"/>
      <point x="534" y="-17" type="curve"/>
      <point x="558" y="-19"/>
      <point x="584" y="-19"/>
      <point x="609" y="-19" type="curve" smooth="yes"/>
      <point x="659" y="-19" type="line"/>
      <point x="861" y="7"/>
      <point x="1141" y="-11"/>
      <point x="1255" y="55" type="curve"/>
      <point x="1261" y="79"/>
      <point x="1273" y="101"/>
      <point x="1281" y="115" type="curve" smooth="yes"/>
      <point x="1687" y="864" type="line"/>
      <point x="1712" y="903"/>
      <point x="1733" y="941"/>
      <point x="1756" y="977" type="curve"/>
      <point x="1690" y="977"/>
      <point x="1446" y="1026"/>
      <point x="1341" y="1026" type="curve" smooth="yes"/>
      <point x="1289" y="1026"/>
      <point x="1239" y="1026"/>
      <point x="1188" y="1024" type="curve"/>
      <point x="1125" y="907"/>
      <point x="982" y="542"/>
      <point x="922" y="416" type="curve"/>
      <point x="867" y="588"/>
      <point x="810" y="759"/>
      <point x="754" y="931" type="curve"/>
      <point x="738" y="962"/>
      <point x="724" y="993"/>
      <point x="708" y="1025" type="curve"/>
      <point x="666" y="1026"/>
      <point x="623" y="1026"/>
      <point x="580" y="1026" type="curve"/>
      <point x="468" y="1012" type="line"/>
      <point x="338" y="1001"/>
      <point x="251" y="995"/>
    </contour>
  </outline>
</glyph>
<glyph name="w" format="1">
  <advance width="2530"/>
  <unicode hex="0077"/>
  <outline>
    <contour>
      <point x="129" y="983" type="curve"/>
      <point x="252" y="637"/>
      <point x="355" y="287"/>
      <point x="456" y="-13" type="curve"/>
      <point x="494" y="-17"/>
      <point x="538" y="-19"/>
      <point x="582" y="-19" type="curve"/>
      <point x="765" y="-5"/>
      <point x="1021" y="9"/>
      <point x="1161" y="25" type="curve"/>
      <point x="1167" y="58"/>
      <point x="1178" y="94"/>
      <point x="1187" y="127" type="curve" smooth="yes"/>
      <point x="1273" y="440" type="line"/>
      <point x="1313" y="261"/>
      <point x="1343" y="124"/>
      <point x="1372" y="-20" type="curve"/>
      <point x="1411" y="-24"/>
      <point x="1452" y="-26"/>
      <point x="1497" y="-26" type="curve"/>
      <point x="1676" y="-12"/>
      <point x="1936" y="2"/>
      <point x="2072" y="20" type="curve"/>
      <point x="2087" y="59"/>
      <point x="2103" y="98"/>
      <point x="2121" y="135" type="curve"/>
      <point x="2237" y="418"/>
      <point x="2353" y="702"/>
      <point x="2474" y="982" type="curve"/>
      <point x="2391" y="985"/>
      <point x="2186" y="1030"/>
      <point x="2071" y="1030" type="curve" smooth="yes"/>
      <point x="2019" y="1030"/>
      <point x="1968" y="1025"/>
      <point x="1915" y="1020" type="curve"/>
      <point x="1908" y="988"/>
      <point x="1900" y="955"/>
      <point x="1892" y="925" type="curve" smooth="yes"/>
      <point x="1754" y="412" type="line"/>
      <point x="1626" y="925" type="line"/>
      <point x="1606" y="1020" type="line"/>
      <point x="1533" y="1024"/>
      <point x="1458" y="1026"/>
      <point x="1378" y="1026" type="curve"/>
      <point x="1261" y="1010"/>
      <point x="1138" y="1000"/>
      <point x="1019" y="990" type="curve"/>
      <point x="1004" y="959"/>
      <point x="994" y="927"/>
      <point x="985" y="894" type="curve" smooth="yes"/>
      <point x="843" y="407" type="line"/>
      <point x="742" y="923" type="line" smooth="yes"/>
      <point x="735" y="956"/>
      <point x="730" y="987"/>
      <point x="725" y="1020" type="curve"/>
      <point x="684" y="1025"/>
      <point x="642" y="1026"/>
      <point x="596" y="1026" type="curve"/>
      <point x="486" y="1012" type="line"/>
      <point x="358" y="1001"/>
      <point x="274" y="995"/>
    </contour>
  </outline>
</glyph>
<glyph name="x" format="1">
  <advance width="2038"/>
  <unicode hex="0078"/>
  <outline>
    <contour>
      <point x="132" y="986" type="curve"/>
      <point x="320" y="824"/>
      <point x="496" y="648"/>
      <point x="676" y="478" type="curve"/>
      <point x="241" y="104" type="line"/>
      <point x="195" y="67"/>
      <point x="156" y="37"/>
      <point x="120" y="10" type="curve"/>
      <point x="248" y="10"/>
      <point x="488" y="-29"/>
      <point x="634" y="-29" type="curve" smooth="yes"/>
      <point x="675" y="-29"/>
      <point x="715" y="-29"/>
      <point x="756" y="-27" type="curve"/>
      <point x="843" y="30" type="line"/>
      <point x="862" y="40"/>
      <point x="923" y="110"/>
      <point x="985" y="175" type="curve"/>
      <point x="1060" y="83"/>
      <point x="1137" y="-6"/>
      <point x="1168" y="-27" type="curve"/>
      <point x="1214" y="-30"/>
      <point x="1259" y="-31"/>
      <point x="1303" y="-32" type="curve"/>
      <point x="1488" y="-22"/>
      <point x="1778" y="5"/>
      <point x="1946" y="11" type="curve"/>
      <point x="1915" y="39"/>
      <point x="1881" y="67"/>
      <point x="1843" y="98" type="curve"/>
      <point x="1370" y="552" type="line"/>
      <point x="1538" y="698"/>
      <point x="1712" y="850"/>
      <point x="1892" y="986" type="curve"/>
      <point x="1770" y="987"/>
      <point x="1535" y="1026"/>
      <point x="1403" y="1026" type="curve" smooth="yes"/>
      <point x="1365" y="1026"/>
      <point x="1326" y="1026"/>
      <point x="1289" y="1025" type="curve"/>
      <point x="1215" y="972" type="line"/>
      <point x="1084" y="836" type="line"/>
      <point x="1041" y="891"/>
      <point x="1000" y="946"/>
      <point x="957" y="1001" type="curve"/>
      <point x="885" y="1052" type="line"/>
      <point x="844" y="1045"/>
      <point x="805" y="1036"/>
      <point x="765" y="1028" type="curve"/>
      <point x="579" y="1018"/>
      <point x="298" y="992"/>
    </contour>
  </outline>
</glyph>
<glyph name="y" format="1">
  <advance width="1689"/>
  <unicode hex="0079"/>
  <outline>
    <contour>
      <point x="138" y="990" type="line"/>
      <point x="152" y="959"/>
      <point x="169" y="928"/>
      <point x="187" y="895" type="curve"/>
      <point x="187" y="891"/>
      <point x="187" y="885"/>
      <point x="191" y="876" type="curve" smooth="yes"/>
      <point x="345" y="580"/>
      <point x="505" y="255"/>
      <point x="655" y="-38" type="curve"/>
      <point x="676" y="-96"/>
      <point x="690" y="-147"/>
      <point x="698" y="-188" type="curve"/>
      <point x="648" y="-335"/>
      <point x="567" y="-434"/>
      <point x="519" y="-434" type="curve" smooth="yes"/>
      <point x="492" y="-434"/>
      <point x="473" y="-409"/>
      <point x="473" y="-362" type="curve" smooth="yes"/>
      <point x="473" y="-327"/>
      <point x="485" y="-309"/>
      <point x="512" y="-282" type="curve"/>
      <point x="495" y="-289"/>
      <point x="461" y="-292"/>
      <point x="440" y="-312" type="curve"/>
      <point x="413" y="-366"/>
      <point x="406" y="-407"/>
      <point x="406" y="-442" type="curve" smooth="yes"/>
      <point x="406" y="-573"/>
      <point x="461" y="-672"/>
      <point x="642" y="-672" type="curve" smooth="yes"/>
      <point x="706" y="-672"/>
      <point x="784" y="-611"/>
      <point x="833" y="-570" type="curve"/>
      <point x="985" y="-432"/>
      <point x="1073" y="-333"/>
      <point x="1175" y="-105" type="curve"/>
      <point x="1632" y="876" type="line"/>
      <point x="1650" y="920"/>
      <point x="1661" y="954"/>
      <point x="1672" y="990" type="curve"/>
      <point x="1537" y="1000"/>
      <point x="1401" y="1009"/>
      <point x="1267" y="1026" type="curve"/>
      <point x="1236" y="1026"/>
      <point x="1205" y="1026"/>
      <point x="1176" y="1024" type="curve"/>
      <point x="1130" y="912"/>
      <point x="1005" y="553"/>
      <point x="961" y="433" type="curve"/>
      <point x="770" y="976" type="line"/>
      <point x="772" y="967"/>
      <point x="775" y="957"/>
      <point x="778" y="948" type="curve"/>
      <point x="739" y="1025" type="line"/>
      <point x="705" y="1026"/>
      <point x="671" y="1026"/>
      <point x="638" y="1026" type="curve"/>
      <point x="522" y="1012" type="line"/>
    </contour>
    <contour>
      <point x="769" y="979" type="curve"/>
      <point x="767" y="985" type="line" smooth="yes"/>
      <point x="767" y="983"/>
      <point x="768" y="981"/>
    </contour>
    <contour>
      <point x="770" y="976" type="curve"/>
      <point x="769" y="979" type="line"/>
      <point x="769" y="978"/>
      <point x="769" y="977"/>
    </contour>
  </outline>
</glyph>
<glyph name="z" format="1">
  <advance width="1545"/>
  <unicode hex="007A"/>
  <outline>
    <contour>
      <point x="250" y="0" type="curve"/>
      <point x="561" y="0" type="line" smooth="yes"/>
      <point x="679" y="0"/>
      <point x="780" y="5"/>
      <point x="780" y="70" type="curve"/>
      <point x="893" y="277" type="line"/>
      <point x="928" y="319"/>
      <point x="952" y="363"/>
      <point x="952" y="374" type="curve" smooth="yes"/>
      <point x="952" y="379"/>
      <point x="950" y="380"/>
      <point x="947" y="380" type="curve" smooth="yes"/>
      <point x="858" y="380"/>
      <point x="773" y="372"/>
      <point x="679" y="372" type="curve" smooth="yes"/>
      <point x="678" y="372"/>
      <point x="677" y="373"/>
      <point x="677" y="374" type="curve" smooth="yes"/>
      <point x="677" y="375"/>
      <point x="680" y="377"/>
      <point x="691" y="380" type="curve"/>
      <point x="872" y="895" type="line" smooth="yes"/>
      <point x="886" y="935"/>
      <point x="944" y="1026"/>
      <point x="944" y="1070" type="curve" smooth="yes"/>
      <point x="944" y="1073"/>
      <point x="943" y="1076"/>
      <point x="943" y="1079" type="curve" smooth="yes"/>
      <point x="943" y="1079"/>
      <point x="919" y="1076"/>
      <point x="900" y="1059" type="curve"/>
      <point x="679" y="1059"/>
      <point x="473" y="1074"/>
      <point x="250" y="1074" type="curve" smooth="yes"/>
      <point x="227" y="1074"/>
      <point x="202" y="1065"/>
      <point x="202" y="1019" type="curve"/>
      <point x="73" y="762" type="line"/>
      <point x="63" y="751"/>
      <point x="58" y="740"/>
      <point x="58" y="736" type="curve" smooth="yes"/>
      <point x="58" y="735"/>
      <point x="58" y="735"/>
      <point x="59" y="735" type="curve" smooth="yes"/>
      <point x="132" y="735"/>
      <point x="322" y="746"/>
      <point x="425" y="746" type="curve"/>
      <point x="140" y="28" type="line"/>
      <point x="159" y="6"/>
      <point x="212" y="0"/>
    </contour>
    <contour>
      <point x="135" y="61" type="curve"/>
      <point x="133" y="56"/>
      <point x="132" y="52"/>
      <point x="132" y="48" type="curve" smooth="yes"/>
      <point x="132" y="42"/>
      <point x="134" y="38"/>
      <point x="136" y="34" type="curve"/>
      <point x="136" y="42"/>
      <point x="135" y="51"/>
    </contour>
    <contour>
      <point x="137" y="19" type="line"/>
      <point x="137" y="24"/>
      <point x="137" y="29"/>
      <point x="136" y="34" type="curve"/>
      <point x="140" y="28" type="line"/>
    </contour>
  </outline>
</glyph>
<glyph name="braceleft" format="1">
  <advance width="1098"/>
  <unicode hex="007B"/>
  <outline>
    <contour>
      <point x="689" y="-164" type="curve"/>
      <point x="765" y="-162"/>
      <point x="864" y="-157"/>
      <point x="930" y="-152" type="curve"/>
      <point x="941" y="-47"/>
      <point x="961" y="44"/>
      <point x="961" y="152" type="curve"/>
      <point x="827" y="161"/>
      <point x="819" y="242"/>
      <point x="813" y="336" type="curve"/>
      <point x="787" y="336"/>
      <point x="772" y="343"/>
      <point x="772" y="384" type="curve" smooth="yes"/>
      <point x="772" y="403" type="line"/>
      <point x="771" y="401"/>
      <point x="771" y="399"/>
      <point x="771" y="398" type="curve" smooth="yes"/>
      <point x="765" y="520"/>
      <point x="749" y="650"/>
      <point x="582" y="712" type="curve"/>
      <point x="815" y="767"/>
      <point x="753" y="993"/>
      <point x="817" y="1133" type="curve"/>
      <point x="848" y="1173"/>
      <point x="892" y="1196"/>
      <point x="966" y="1196" type="curve" smooth="yes"/>
      <point x="980" y="1196" type="line" smooth="yes"/>
      <point x="1008" y="1196"/>
      <point x="1016" y="1401"/>
      <point x="1021" y="1470" type="curve"/>
      <point x="1021" y="1567" type="line"/>
      <point x="954" y="1570"/>
      <point x="861" y="1572"/>
      <point x="779" y="1572" type="curve" smooth="yes"/>
      <point x="355" y="1572"/>
      <point x="450" y="1101"/>
      <point x="232" y="983" type="curve"/>
      <point x="191" y="925"/>
      <point x="151" y="884"/>
      <point x="76" y="874" type="curve"/>
      <point x="76" y="848"/>
      <point x="57" y="737"/>
      <point x="57" y="677" type="curve" smooth="yes"/>
      <point x="57" y="630"/>
      <point x="64" y="600"/>
      <point x="77" y="568" type="curve"/>
      <point x="215" y="568"/>
      <point x="255" y="482"/>
      <point x="281" y="378" type="curve"/>
      <point x="280" y="378" type="line"/>
      <point x="335" y="129"/>
      <point x="411" y="-165"/>
      <point x="668" y="-165" type="curve" smooth="yes"/>
      <point x="675" y="-165"/>
      <point x="682" y="-165"/>
    </contour>
  </outline>
</glyph>
<glyph name="braceright" format="1">
  <advance width="1100"/>
  <unicode hex="007D"/>
  <outline>
    <contour>
      <point x="820" y="261" type="curve" smooth="yes"/>
      <point x="852" y="381"/>
      <point x="894" y="475"/>
      <point x="959" y="525" type="curve"/>
      <point x="1011" y="551"/>
      <point x="1061" y="513"/>
      <point x="1078" y="634" type="curve"/>
      <point x="1092" y="714"/>
      <point x="1091" y="828"/>
      <point x="1091" y="865" type="curve"/>
      <point x="1020" y="877"/>
      <point x="972" y="915"/>
      <point x="929" y="971" type="curve" smooth="yes"/>
      <point x="921" y="982"/>
      <point x="907" y="988"/>
      <point x="894" y="995" type="curve"/>
      <point x="718" y="1192"/>
      <point x="873" y="1572"/>
      <point x="382" y="1572" type="curve" smooth="yes"/>
      <point x="321" y="1572"/>
      <point x="249" y="1568"/>
      <point x="209" y="1562" type="curve"/>
      <point x="200" y="1473"/>
      <point x="187" y="1414"/>
      <point x="187" y="1323" type="curve" smooth="yes"/>
      <point x="187" y="1283"/>
      <point x="191" y="1250"/>
      <point x="196" y="1219" type="curve"/>
      <point x="523" y="1209"/>
      <point x="232" y="789"/>
      <point x="567" y="718" type="curve"/>
      <point x="431" y="664"/>
      <point x="390" y="569"/>
      <point x="374" y="468" type="curve" smooth="yes"/>
      <point x="349" y="306"/>
      <point x="325" y="188"/>
      <point x="152" y="164" type="curve"/>
      <point x="140" y="132"/>
      <point x="137" y="69"/>
      <point x="137" y="18" type="curve" smooth="yes"/>
      <point x="137" y="-3"/>
      <point x="138" y="-14"/>
      <point x="138" y="-32" type="curve" smooth="yes"/>
      <point x="138" y="-40"/>
      <point x="137" y="-50"/>
      <point x="137" y="-60" type="curve" smooth="yes"/>
      <point x="137" y="-97"/>
      <point x="140" y="-130"/>
      <point x="145" y="-160" type="curve"/>
      <point x="241" y="-160"/>
      <point x="403" y="-130"/>
      <point x="520" y="-99" type="curve"/>
      <point x="735" y="-89"/>
      <point x="774" y="93"/>
    </contour>
  </outline>
</glyph>
<glyph name="cent" format="1">
  <advance width="1087"/>
  <unicode hex="00A2"/>
  <outline>
    <contour>
      <point x="101" y="488" type="curve" smooth="yes"/>
      <point x="101" y="176"/>
      <point x="304" y="-48"/>
      <point x="579" y="-83" type="curve"/>
      <point x="576" y="-127"/>
      <point x="569" y="-173"/>
      <point x="569" y="-222" type="curve" smooth="yes"/>
      <point x="569" y="-245"/>
      <point x="577" y="-252"/>
      <point x="588" y="-252" type="curve" smooth="yes"/>
      <point x="663" y="-252" type="line"/>
      <point x="745" y="-245" type="line"/>
      <point x="772" y="-232"/>
      <point x="766" y="-226"/>
      <point x="769" y="-195" type="curve" smooth="yes"/>
      <point x="778" y="-81" type="line"/>
      <point x="858" y="-72"/>
      <point x="932" y="-53"/>
      <point x="996" y="-10" type="curve"/>
      <point x="1000" y="-10"/>
      <point x="1000" y="168"/>
      <point x="1000" y="254" type="curve" smooth="yes"/>
      <point x="1000" y="273"/>
      <point x="997" y="278"/>
      <point x="990" y="278" type="curve" smooth="yes"/>
      <point x="986" y="278"/>
      <point x="983" y="278"/>
      <point x="982" y="277" type="curve" smooth="yes"/>
      <point x="915" y="240"/>
      <point x="868" y="223"/>
      <point x="803" y="215" type="curve"/>
      <point x="854" y="820" type="line"/>
      <point x="949" y="807"/>
      <point x="1013" y="772"/>
      <point x="1039" y="772" type="curve" smooth="yes"/>
      <point x="1056" y="772"/>
      <point x="1058" y="782"/>
      <point x="1058" y="789" type="curve" smooth="yes"/>
      <point x="1058" y="863"/>
      <point x="1087" y="1012"/>
      <point x="1087" y="1028" type="curve" smooth="yes"/>
      <point x="1087" y="1030"/>
      <point x="1025" y="1090"/>
      <point x="879" y="1116" type="curve"/>
      <point x="892" y="1264" type="line"/>
      <point x="892" y="1299"/>
      <point x="876" y="1305"/>
      <point x="863" y="1305" type="curve" smooth="yes"/>
      <point x="796" y="1305"/>
      <point x="766" y="1302"/>
      <point x="704" y="1302" type="curve"/>
      <point x="687" y="1297"/>
      <point x="688" y="1283"/>
      <point x="685" y="1239" type="curve" smooth="yes"/>
      <point x="676" y="1125" type="line"/>
      <point x="343" y="1093"/>
      <point x="101" y="822"/>
    </contour>
    <contour>
      <point x="640" y="647" type="line" smooth="yes"/>
      <point x="628" y="511"/>
      <point x="613" y="349"/>
      <point x="606" y="240" type="curve"/>
      <point x="525" y="289"/>
      <point x="485" y="389"/>
      <point x="485" y="505" type="curve" smooth="yes"/>
      <point x="485" y="641"/>
      <point x="548" y="752"/>
      <point x="653" y="800" type="curve"/>
    </contour>
  </outline>
</glyph>
<glyph name="sterling" format="1">
  <advance width="1113"/>
  <unicode hex="00A3"/>
  <outline>
    <contour>
      <point x="286" y="-58" type="curve" smooth="yes"/>
      <point x="486" y="-58"/>
      <point x="898" y="-48"/>
      <point x="911" y="-48" type="curve" smooth="yes"/>
      <point x="950" y="-48"/>
      <point x="957" y="-37"/>
      <point x="966" y="-14" type="curve"/>
      <point x="1021" y="89"/>
      <point x="1073" y="182"/>
      <point x="1073" y="203" type="curve" smooth="yes"/>
      <point x="1073" y="226"/>
      <point x="1056" y="232"/>
      <point x="1045" y="232" type="curve" smooth="yes"/>
      <point x="1002" y="232"/>
      <point x="846" y="231"/>
      <point x="667" y="223" type="curve"/>
      <point x="679" y="340"/>
      <point x="696" y="500"/>
      <point x="716" y="661" type="curve"/>
      <point x="889" y="661" type="line" smooth="yes"/>
      <point x="920" y="661"/>
      <point x="925" y="672"/>
      <point x="934" y="692" type="curve" smooth="yes"/>
      <point x="970" y="773" type="line" smooth="yes"/>
      <point x="1000" y="840"/>
      <point x="1015" y="883"/>
      <point x="1016" y="890" type="curve"/>
      <point x="1016" y="907"/>
      <point x="1004" y="914"/>
      <point x="993" y="914" type="curve" smooth="yes"/>
      <point x="732" y="914" type="line"/>
      <point x="737" y="998"/>
      <point x="747" y="1088"/>
      <point x="756" y="1164" type="curve"/>
      <point x="781" y="1268"/>
      <point x="825" y="1298"/>
      <point x="885" y="1298" type="curve" smooth="yes"/>
      <point x="942" y="1298"/>
      <point x="998" y="1278"/>
      <point x="1054" y="1250" type="curve" smooth="yes"/>
      <point x="1057" y="1249"/>
      <point x="1059" y="1248"/>
      <point x="1059" y="1248" type="curve"/>
      <point x="1078" y="1248"/>
      <point x="1084" y="1309"/>
      <point x="1156" y="1451" type="curve" smooth="yes"/>
      <point x="1160" y="1460"/>
      <point x="1163" y="1465"/>
      <point x="1163" y="1472" type="curve" smooth="yes"/>
      <point x="1163" y="1492"/>
      <point x="994" y="1582"/>
      <point x="810" y="1582" type="curve" smooth="yes"/>
      <point x="508" y="1582"/>
      <point x="397" y="1376"/>
      <point x="368" y="1123" type="curve"/>
      <point x="354" y="914" type="line"/>
      <point x="232" y="914" type="line"/>
      <point x="224" y="897"/>
      <point x="115" y="696"/>
      <point x="115" y="681" type="curve" smooth="yes"/>
      <point x="115" y="662"/>
      <point x="145" y="658"/>
      <point x="217" y="658" type="curve" smooth="yes"/>
      <point x="320" y="658" type="line"/>
      <point x="300" y="481"/>
      <point x="282" y="307"/>
      <point x="270" y="175" type="curve"/>
      <point x="198" y="111"/>
      <point x="87" y="-9"/>
      <point x="87" y="-30" type="curve" smooth="yes"/>
      <point x="87" y="-53"/>
      <point x="126" y="-58"/>
      <point x="206" y="-58" type="curve" smooth="yes"/>
      <point x="223" y="-58"/>
      <point x="247" y="-58"/>
      <point x="278" y="-57" type="curve"/>
      <point x="279" y="-58"/>
      <point x="282" y="-58"/>
    </contour>
  </outline>
</glyph>
<glyph name="yen" format="1">
  <advance width="1263"/>
  <unicode hex="00A5"/>
  <outline>
    <contour>
      <point x="384" y="723" type="line"/>
      <point x="324" y="719"/>
      <point x="241" y="573"/>
      <point x="241" y="541" type="curve" smooth="yes"/>
      <point x="241" y="522"/>
      <point x="287" y="517"/>
      <point x="388" y="517" type="curve" smooth="yes"/>
      <point x="471" y="517" type="line"/>
      <point x="459" y="434" type="line"/>
      <point x="458" y="433"/>
      <point x="457" y="430"/>
      <point x="457" y="426" type="curve"/>
      <point x="336" y="424" type="line"/>
      <point x="276" y="420"/>
      <point x="193" y="274"/>
      <point x="193" y="242" type="curve" smooth="yes"/>
      <point x="193" y="223"/>
      <point x="239" y="218"/>
      <point x="340" y="218" type="curve" smooth="yes"/>
      <point x="422" y="218" type="line"/>
      <point x="409" y="134"/>
      <point x="397" y="49"/>
      <point x="393" y="-15" type="curve" smooth="yes"/>
      <point x="393" y="-19" type="line" smooth="yes"/>
      <point x="393" y="-42"/>
      <point x="411" y="-51"/>
      <point x="434" y="-51" type="curve" smooth="yes"/>
      <point x="455" y="-51"/>
      <point x="480" y="-44"/>
      <point x="501" y="-33" type="curve"/>
      <point x="765" y="36" type="line"/>
      <point x="788" y="49"/>
      <point x="792" y="60"/>
      <point x="800" y="104" type="curve" smooth="yes"/>
      <point x="820" y="222" type="line"/>
      <point x="911" y="222" type="line" smooth="yes"/>
      <point x="1030" y="222"/>
      <point x="1052" y="223"/>
      <point x="1055" y="247" type="curve" smooth="yes"/>
      <point x="1064" y="314" type="line" smooth="yes"/>
      <point x="1069" y="349"/>
      <point x="1074" y="388"/>
      <point x="1074" y="405" type="curve" smooth="yes"/>
      <point x="1074" y="431"/>
      <point x="1046" y="438"/>
      <point x="1026" y="440" type="curve"/>
      <point x="1003" y="440"/>
      <point x="939" y="439"/>
      <point x="858" y="436" type="curve"/>
      <point x="872" y="521" type="line"/>
      <point x="960" y="521" type="line" smooth="yes"/>
      <point x="1077" y="521"/>
      <point x="1100" y="522"/>
      <point x="1103" y="546" type="curve" smooth="yes"/>
      <point x="1112" y="613" type="line" smooth="yes"/>
      <point x="1117" y="648"/>
      <point x="1122" y="687"/>
      <point x="1122" y="704" type="curve" smooth="yes"/>
      <point x="1122" y="729"/>
      <point x="1094" y="739"/>
      <point x="1074" y="739" type="curve" smooth="yes"/>
      <point x="1058" y="739"/>
      <point x="1021" y="738"/>
      <point x="974" y="737" type="curve"/>
      <point x="1144" y="1049" type="line"/>
      <point x="1329" y="1394" type="line" smooth="yes"/>
      <point x="1336" y="1407"/>
      <point x="1336" y="1419"/>
      <point x="1337" y="1426" type="curve"/>
      <point x="1337" y="1440"/>
      <point x="1329" y="1447"/>
      <point x="1314" y="1447" type="curve" smooth="yes"/>
      <point x="1309" y="1447"/>
      <point x="1302" y="1446"/>
      <point x="1294" y="1444" type="curve" smooth="yes"/>
      <point x="951" y="1358" type="line"/>
      <point x="945" y="1358"/>
      <point x="895" y="1265"/>
      <point x="844" y="1174" type="curve"/>
      <point x="745" y="991" type="line"/>
      <point x="739" y="976" type="line"/>
      <point x="508" y="1424" type="line"/>
      <point x="492" y="1440"/>
      <point x="480" y="1445"/>
      <point x="469" y="1445" type="curve" smooth="yes"/>
      <point x="462" y="1445"/>
      <point x="454" y="1443"/>
      <point x="445" y="1439" type="curve" smooth="yes"/>
      <point x="330" y="1393" type="line" smooth="yes"/>
      <point x="269" y="1369"/>
      <point x="205" y="1342"/>
      <point x="187" y="1332" type="curve"/>
      <point x="179" y="1319"/>
      <point x="177" y="1306"/>
      <point x="177" y="1295" type="curve" smooth="yes"/>
      <point x="177" y="1286"/>
      <point x="177" y="1280"/>
      <point x="178" y="1278" type="curve" smooth="yes"/>
      <point x="180" y="1271" type="line"/>
      <point x="216" y="1199"/>
      <point x="353" y="908"/>
      <point x="437" y="724" type="curve"/>
    </contour>
  </outline>
</glyph>
<glyph name="brokenbar" format="1">
  <advance width="571"/>
  <unicode hex="00A6"/>
  <outline>
    <contour>
      <point x="180" y="828" type="line" smooth="yes"/>
      <point x="180" y="805"/>
      <point x="196" y="797"/>
      <point x="215" y="797" type="curve" smooth="yes"/>
      <point x="238" y="797"/>
      <point x="268" y="808"/>
      <point x="283" y="809" type="curve"/>
      <point x="501" y="859" type="line" smooth="yes"/>
      <point x="536" y="867"/>
      <point x="541" y="875"/>
      <point x="541" y="886" type="curve" smooth="yes"/>
      <point x="541" y="909" type="line"/>
      <point x="600" y="1546" type="line"/>
      <point x="589" y="1556" type="line"/>
      <point x="476" y="1528"/>
      <point x="368" y="1513"/>
      <point x="256" y="1494" type="curve" smooth="yes"/>
      <point x="232" y="1490"/>
      <point x="230" y="1475"/>
      <point x="227" y="1432" type="curve" smooth="yes"/>
      <point x="187" y="910"/>
      <point x="214" y="1327"/>
      <point x="180" y="834" type="curve" smooth="yes"/>
    </contour>
    <contour>
      <point x="103" y="-90" type="line" smooth="yes"/>
      <point x="103" y="-115"/>
      <point x="120" y="-121"/>
      <point x="141" y="-121" type="curve" smooth="yes"/>
      <point x="164" y="-121"/>
      <point x="187" y="-110"/>
      <point x="202" y="-105" type="curve" smooth="yes"/>
      <point x="424" y="-39" type="line" smooth="yes"/>
      <point x="460" y="-28"/>
      <point x="464" y="-25"/>
      <point x="464" y="-12" type="curve" smooth="yes"/>
      <point x="464" y="11" type="line"/>
      <point x="523" y="638" type="line"/>
      <point x="512" y="648" type="line"/>
      <point x="399" y="615"/>
      <point x="291" y="597"/>
      <point x="179" y="576" type="curve" smooth="yes"/>
      <point x="155" y="571"/>
      <point x="153" y="558"/>
      <point x="150" y="514" type="curve" smooth="yes"/>
      <point x="110" y="-8"/>
      <point x="137" y="409"/>
      <point x="103" y="-84" type="curve" smooth="yes"/>
    </contour>
  </outline>
</glyph>
<glyph name="dieresis" format="1">
  <advance width="1189"/>
  <unicode hex="00A8"/>
  <outline>
    <contour>
      <point x="89" y="1225" type="line" smooth="yes"/>
      <point x="89" y="1218"/>
      <point x="92" y="1218"/>
      <point x="99" y="1218" type="curve" smooth="yes"/>
      <point x="216" y="1218"/>
      <point x="323" y="1219"/>
      <point x="424" y="1220" type="curve"/>
      <point x="443" y="1223"/>
      <point x="446" y="1235"/>
      <point x="450" y="1274" type="curve" smooth="yes"/>
      <point x="475" y="1552" type="line"/>
      <point x="475" y="1572"/>
      <point x="470" y="1578"/>
      <point x="457" y="1578" type="curve" smooth="yes"/>
      <point x="357" y="1578"/>
      <point x="233" y="1576"/>
      <point x="129" y="1576" type="curve"/>
      <point x="110" y="1573"/>
      <point x="104" y="1561"/>
      <point x="102" y="1521" type="curve" smooth="yes"/>
      <point x="89" y="1261"/>
      <point x="102" y="1455"/>
      <point x="89" y="1228" type="curve" smooth="yes"/>
    </contour>
    <contour>
      <point x="715" y="1222" type="line" smooth="yes"/>
      <point x="715" y="1215"/>
      <point x="716" y="1216"/>
      <point x="720" y="1216" type="curve" smooth="yes"/>
      <point x="839" y="1216"/>
      <point x="946" y="1218"/>
      <point x="1049" y="1219" type="curve"/>
      <point x="1072" y="1222"/>
      <point x="1072" y="1233"/>
      <point x="1077" y="1273" type="curve"/>
      <point x="1101" y="1556" type="line"/>
      <point x="1101" y="1572"/>
      <point x="1093" y="1576"/>
      <point x="1082" y="1576" type="curve" smooth="yes"/>
      <point x="982" y="1575"/>
      <point x="859" y="1574"/>
      <point x="754" y="1574" type="curve"/>
      <point x="734" y="1571"/>
      <point x="731" y="1559"/>
      <point x="729" y="1520" type="curve" smooth="yes"/>
      <point x="722" y="1415"/>
      <point x="722" y="1396"/>
      <point x="721" y="1384" type="curve" smooth="yes"/>
      <point x="721" y="1380"/>
      <point x="722" y="1378"/>
      <point x="722" y="1374" type="curve" smooth="yes"/>
      <point x="722" y="1361"/>
      <point x="721" y="1334"/>
      <point x="715" y="1226" type="curve" smooth="yes"/>
    </contour>
  </outline>
</glyph>
<glyph name="copyright" format="1">
  <advance width="1640"/>
  <unicode hex="00A9"/>
  <outline>
    <contour>
      <point x="824" y="103" type="curve" smooth="yes"/>
      <point x="510" y="103"/>
      <point x="321" y="359"/>
      <point x="321" y="652" type="curve" smooth="yes"/>
      <point x="321" y="1014"/>
      <point x="615" y="1253"/>
      <point x="959" y="1253" type="curve" smooth="yes"/>
      <point x="1259" y="1253"/>
      <point x="1469" y="1020"/>
      <point x="1469" y="728" type="curve" smooth="yes"/>
      <point x="1469" y="353"/>
      <point x="1180" y="103"/>
    </contour>
    <contour>
      <point x="788" y="-63" type="curve" smooth="yes"/>
      <point x="1253" y="-63"/>
      <point x="1630" y="262"/>
      <point x="1630" y="752" type="curve" smooth="yes"/>
      <point x="1630" y="1132"/>
      <point x="1356" y="1436"/>
      <point x="965" y="1436" type="curve" smooth="yes"/>
      <point x="517" y="1436"/>
      <point x="133" y="1124"/>
      <point x="133" y="653" type="curve" smooth="yes"/>
      <point x="133" y="271"/>
      <point x="381" y="-63"/>
    </contour>
    <contour>
      <point x="441" y="646" type="curve" smooth="yes"/>
      <point x="441" y="377"/>
      <point x="632" y="192"/>
      <point x="877" y="192" type="curve" smooth="yes"/>
      <point x="968" y="192"/>
      <point x="1074" y="203"/>
      <point x="1154" y="253" type="curve"/>
      <point x="1157" y="253"/>
      <point x="1157" y="383"/>
      <point x="1157" y="446" type="curve" smooth="yes"/>
      <point x="1157" y="465"/>
      <point x="1153" y="464"/>
      <point x="1142" y="464" type="curve"/>
      <point x="1069" y="424"/>
      <point x="1022" y="412"/>
      <point x="924" y="412" type="curve" smooth="yes"/>
      <point x="800" y="412"/>
      <point x="736" y="527"/>
      <point x="736" y="659" type="curve" smooth="yes"/>
      <point x="736" y="824"/>
      <point x="829" y="945"/>
      <point x="971" y="945" type="curve" smooth="yes"/>
      <point x="1089" y="945"/>
      <point x="1167" y="857"/>
      <point x="1199" y="857" type="curve" smooth="yes"/>
      <point x="1219" y="857"/>
      <point x="1220" y="863"/>
      <point x="1220" y="870" type="curve" smooth="yes"/>
      <point x="1220" y="934"/>
      <point x="1209" y="1059"/>
      <point x="1209" y="1085" type="curve" smooth="yes"/>
      <point x="1209" y="1090" type="line"/>
      <point x="1172" y="1122"/>
      <point x="1097" y="1167"/>
      <point x="944" y="1167" type="curve" smooth="yes"/>
      <point x="656" y="1167"/>
      <point x="441" y="937"/>
    </contour>
  </outline>
</glyph>
<glyph name="ordfeminine" format="1">
  <advance width="987"/>
  <unicode hex="00AA"/>
  <outline>
    <contour>
      <point x="1023" y="1471" type="line"/>
      <point x="942" y="1467"/>
      <point x="871" y="1458"/>
      <point x="795" y="1447" type="curve"/>
      <point x="747" y="1442"/>
      <point x="760" y="1438"/>
      <point x="749" y="1373" type="curve"/>
      <point x="685" y="1422"/>
      <point x="617" y="1457"/>
      <point x="540" y="1457" type="curve" smooth="yes"/>
      <point x="320" y="1457"/>
      <point x="136" y="1254"/>
      <point x="136" y="958" type="curve" smooth="yes"/>
      <point x="136" y="707"/>
      <point x="304" y="549"/>
      <point x="480" y="549" type="curve" smooth="yes"/>
      <point x="553" y="549"/>
      <point x="634" y="582"/>
      <point x="699" y="658" type="curve"/>
      <point x="709" y="614"/>
      <point x="727" y="548"/>
      <point x="745" y="548" type="curve" smooth="yes"/>
      <point x="748" y="548"/>
      <point x="749" y="548"/>
      <point x="750" y="549" type="curve" smooth="yes"/>
      <point x="958" y="639" type="line" smooth="yes"/>
      <point x="973" y="645"/>
      <point x="981" y="652"/>
      <point x="981" y="659" type="curve" smooth="yes"/>
      <point x="981" y="670"/>
      <point x="942" y="684"/>
      <point x="942" y="745" type="curve"/>
    </contour>
    <contour>
      <point x="677" y="808" type="line"/>
      <point x="637" y="777"/>
      <point x="598" y="759"/>
      <point x="567" y="759" type="curve" smooth="yes"/>
      <point x="490" y="759"/>
      <point x="444" y="832"/>
      <point x="444" y="996" type="curve" smooth="yes"/>
      <point x="444" y="1087"/>
      <point x="481" y="1253"/>
      <point x="593" y="1253" type="curve" smooth="yes"/>
      <point x="644" y="1253"/>
      <point x="695" y="1218"/>
      <point x="725" y="1194" type="curve"/>
      <point x="722" y="1144" type="line" smooth="yes"/>
      <point x="720" y="1113"/>
      <point x="715" y="1076"/>
      <point x="710" y="1039" type="curve" smooth="yes"/>
    </contour>
  </outline>
</glyph>
<glyph name="logicalnot" format="1">
  <advance width="1059"/>
  <unicode hex="00AC"/>
  <outline>
    <contour>
      <point x="601" y="522" type="line" smooth="yes"/>
      <point x="645" y="523"/>
      <point x="710" y="523"/>
      <point x="770" y="523" type="curve"/>
      <point x="757" y="345" type="line" smooth="yes"/>
      <point x="754" y="308"/>
      <point x="749" y="269"/>
      <point x="749" y="234" type="curve" smooth="yes"/>
      <point x="749" y="207"/>
      <point x="756" y="204"/>
      <point x="769" y="202" type="curve" smooth="yes"/>
      <point x="828" y="190"/>
      <point x="895" y="183"/>
      <point x="926" y="183" type="curve" smooth="yes"/>
      <point x="951" y="183"/>
      <point x="964" y="211"/>
      <point x="964" y="231" type="curve" smooth="yes"/>
      <point x="964" y="248"/>
      <point x="984" y="521"/>
      <point x="984" y="569" type="curve"/>
      <point x="989" y="681" type="line" smooth="yes"/>
      <point x="989" y="688"/>
      <point x="990" y="697"/>
      <point x="990" y="706" type="curve" smooth="yes"/>
      <point x="990" y="741"/>
      <point x="970" y="741"/>
      <point x="914" y="741" type="curve" smooth="yes"/>
      <point x="876" y="741"/>
      <point x="748" y="736"/>
      <point x="604" y="733" type="curve"/>
      <point x="252" y="723" type="line"/>
      <point x="192" y="719"/>
      <point x="109" y="573"/>
      <point x="109" y="541" type="curve" smooth="yes"/>
      <point x="109" y="521"/>
      <point x="152" y="517"/>
      <point x="256" y="517" type="curve"/>
    </contour>
  </outline>
</glyph>
<glyph name="degree" format="1">
  <advance width="1007"/>
  <unicode hex="00B0"/>
  <outline>
    <contour>
      <point x="587" y="558" type="curve" smooth="yes"/>
      <point x="873" y="558"/>
      <point x="1050" y="798"/>
      <point x="1050" y="1035" type="curve" smooth="yes"/>
      <point x="1050" y="1284"/>
      <point x="860" y="1448"/>
      <point x="616" y="1448" type="curve" smooth="yes"/>
      <point x="340" y="1448"/>
      <point x="131" y="1239"/>
      <point x="131" y="990" type="curve" smooth="yes"/>
      <point x="131" y="717"/>
      <point x="330" y="558"/>
    </contour>
    <contour>
      <point x="756" y="991" type="curve" smooth="yes"/>
      <point x="743" y="899"/>
      <point x="686" y="796"/>
      <point x="557" y="796" type="curve"/>
      <point x="441" y="799"/>
      <point x="411" y="911"/>
      <point x="411" y="994" type="curve" smooth="yes"/>
      <point x="411" y="1100"/>
      <point x="479" y="1214"/>
      <point x="619" y="1214" type="curve" smooth="yes"/>
      <point x="725" y="1214"/>
      <point x="758" y="1107"/>
      <point x="758" y="1026" type="curve" smooth="yes"/>
      <point x="758" y="1014"/>
      <point x="757" y="1002"/>
    </contour>
  </outline>
</glyph>
<glyph name="plusminus" format="1">
  <advance width="1045"/>
  <unicode hex="00B1"/>
  <outline>
    <contour>
      <point x="403" y="445" type="line"/>
      <point x="403" y="439" type="line" smooth="yes"/>
      <point x="403" y="412"/>
      <point x="414" y="400"/>
      <point x="430" y="397" type="curve"/>
      <point x="489" y="397"/>
      <point x="611" y="393"/>
      <point x="656" y="393" type="curve" smooth="yes"/>
      <point x="686" y="393"/>
      <point x="699" y="418"/>
      <point x="708" y="519" type="curve" smooth="yes"/>
      <point x="721" y="665" type="line"/>
      <point x="867" y="668" type="line" smooth="yes"/>
      <point x="961" y="670"/>
      <point x="966" y="668"/>
      <point x="982" y="703" type="curve"/>
      <point x="993" y="800" type="line" smooth="yes"/>
      <point x="1003" y="885"/>
      <point x="1007" y="937"/>
      <point x="1009" y="940" type="curve"/>
      <point x="1009" y="963"/>
      <point x="992" y="969"/>
      <point x="981" y="969" type="curve" smooth="yes"/>
      <point x="957" y="969"/>
      <point x="861" y="967"/>
      <point x="762" y="964" type="curve" smooth="yes"/>
      <point x="745" y="963" type="line"/>
      <point x="765" y="1219"/>
      <point x="764" y="1197"/>
      <point x="764" y="1206" type="curve" smooth="yes"/>
      <point x="764" y="1230"/>
      <point x="755" y="1236"/>
      <point x="736" y="1241" type="curve"/>
      <point x="641" y="1238" type="line"/>
      <point x="592" y="1238"/>
      <point x="538" y="1235"/>
      <point x="522" y="1235" type="curve" smooth="yes"/>
      <point x="518" y="1235"/>
      <point x="515" y="1236"/>
      <point x="512" y="1236" type="curve" smooth="yes"/>
      <point x="456" y="1236"/>
      <point x="466" y="1161"/>
      <point x="453" y="979" type="curve" smooth="yes"/>
      <point x="451" y="958" type="line"/>
      <point x="250" y="955" type="line" smooth="yes"/>
      <point x="221" y="954"/>
      <point x="202" y="937"/>
      <point x="199" y="922" type="curve" smooth="yes"/>
      <point x="186" y="856"/>
      <point x="153" y="711"/>
      <point x="153" y="687" type="curve" smooth="yes"/>
      <point x="153" y="664"/>
      <point x="192" y="659"/>
      <point x="272" y="659" type="curve" smooth="yes"/>
      <point x="303" y="659"/>
      <point x="355" y="659"/>
      <point x="423" y="660" type="curve"/>
    </contour>
    <contour>
      <point x="584" y="12" type="line"/>
      <point x="636" y="12"/>
      <point x="716" y="13"/>
      <point x="783" y="13" type="curve" smooth="yes"/>
      <point x="905" y="13" type="line" smooth="yes"/>
      <point x="948" y="13"/>
      <point x="952" y="21"/>
      <point x="954" y="36" type="curve" smooth="yes"/>
      <point x="963" y="103" type="line" smooth="yes"/>
      <point x="968" y="138"/>
      <point x="973" y="177"/>
      <point x="973" y="194" type="curve" smooth="yes"/>
      <point x="973" y="219"/>
      <point x="945" y="229"/>
      <point x="925" y="229" type="curve" smooth="yes"/>
      <point x="908" y="229"/>
      <point x="635" y="223"/>
      <point x="587" y="223" type="curve"/>
      <point x="235" y="213" type="line"/>
      <point x="175" y="209"/>
      <point x="92" y="63"/>
      <point x="92" y="31" type="curve" smooth="yes"/>
      <point x="92" y="11"/>
      <point x="135" y="7"/>
      <point x="239" y="7" type="curve"/>
    </contour>
  </outline>
</glyph>
<glyph name="twosuperior" format="1">
  <advance width="734"/>
  <unicode hex="00B2"/>
  <outline>
    <contour>
      <point x="696" y="1126" type="curve"/>
      <point x="723" y="1170"/>
      <point x="735" y="1213"/>
      <point x="735" y="1253" type="curve" smooth="yes"/>
      <point x="735" y="1388"/>
      <point x="603" y="1493"/>
      <point x="483" y="1493" type="curve" smooth="yes"/>
      <point x="279" y="1493"/>
      <point x="207" y="1418"/>
      <point x="204" y="1418" type="curve"/>
      <point x="204" y="1409"/>
      <point x="163" y="1288"/>
      <point x="163" y="1223" type="curve" smooth="yes"/>
      <point x="163" y="1216"/>
      <point x="165" y="1206"/>
      <point x="174" y="1206" type="curve" smooth="yes"/>
      <point x="178" y="1206"/>
      <point x="185" y="1209"/>
      <point x="194" y="1214" type="curve" smooth="yes"/>
      <point x="241" y="1245"/>
      <point x="292" y="1259"/>
      <point x="339" y="1259" type="curve" smooth="yes"/>
      <point x="414" y="1259"/>
      <point x="473" y="1221"/>
      <point x="473" y="1155" type="curve" smooth="yes"/>
      <point x="473" y="1095"/>
      <point x="400" y="991"/>
      <point x="280" y="827" type="curve"/>
      <point x="162" y="660" type="line"/>
      <point x="145" y="633"/>
      <point x="132" y="613"/>
      <point x="132" y="597" type="curve" smooth="yes"/>
      <point x="132" y="573"/>
      <point x="159" y="560"/>
      <point x="239" y="560" type="curve" smooth="yes"/>
      <point x="359" y="560"/>
      <point x="412" y="561"/>
      <point x="623" y="564" type="curve"/>
      <point x="634" y="565"/>
      <point x="648" y="564"/>
      <point x="664" y="580" type="curve"/>
      <point x="665" y="580"/>
      <point x="666" y="585"/>
      <point x="667" y="585" type="curve"/>
      <point x="757" y="753" type="line"/>
      <point x="757" y="754"/>
      <point x="766" y="769"/>
      <point x="766" y="780" type="curve" smooth="yes"/>
      <point x="766" y="789"/>
      <point x="755" y="794"/>
      <point x="734" y="794" type="curve" smooth="yes"/>
      <point x="672" y="794"/>
      <point x="510" y="774"/>
      <point x="484" y="774" type="curve" smooth="yes"/>
      <point x="482" y="774" type="line"/>
      <point x="481" y="774"/>
      <point x="481" y="774"/>
      <point x="481" y="775" type="curve"/>
      <point x="579" y="930" type="line" smooth="yes"/>
      <point x="630" y="1011"/>
      <point x="683" y="1097"/>
    </contour>
  </outline>
</glyph>
<glyph name="threesuperior" format="1">
  <advance width="747"/>
  <unicode hex="00B3"/>
  <outline>
    <contour>
      <point x="484" y="542" type="curve"/>
      <point x="632" y="553"/>
      <point x="742" y="694"/>
      <point x="742" y="830" type="curve" smooth="yes"/>
      <point x="742" y="945"/>
      <point x="675" y="1000"/>
      <point x="622" y="1024" type="curve"/>
      <point x="666" y="1059"/>
      <point x="729" y="1120"/>
      <point x="729" y="1225" type="curve" smooth="yes"/>
      <point x="729" y="1381"/>
      <point x="575" y="1451"/>
      <point x="442" y="1451" type="curve" smooth="yes"/>
      <point x="369" y="1451"/>
      <point x="337" y="1446"/>
      <point x="247" y="1420" type="curve" smooth="yes"/>
      <point x="210" y="1409"/>
      <point x="206" y="1352"/>
      <point x="206" y="1304" type="curve" smooth="yes"/>
      <point x="206" y="1289"/>
      <point x="207" y="1275"/>
      <point x="207" y="1263" type="curve" smooth="yes"/>
      <point x="207" y="1251"/>
      <point x="206" y="1240"/>
      <point x="205" y="1233" type="curve"/>
      <point x="252" y="1248"/>
      <point x="315" y="1264"/>
      <point x="375" y="1264" type="curve" smooth="yes"/>
      <point x="428" y="1264"/>
      <point x="450" y="1226"/>
      <point x="450" y="1187" type="curve" smooth="yes"/>
      <point x="450" y="1136"/>
      <point x="421" y="1100"/>
      <point x="370" y="1100" type="curve" smooth="yes"/>
      <point x="351" y="1100"/>
      <point x="335" y="1106"/>
      <point x="316" y="1106" type="curve" smooth="yes"/>
      <point x="311" y="1106"/>
      <point x="306" y="1099"/>
      <point x="301" y="1072" type="curve"/>
      <point x="301" y="1065"/>
      <point x="276" y="904"/>
      <point x="276" y="892" type="curve"/>
      <point x="385" y="892" type="line" smooth="yes"/>
      <point x="464" y="892"/>
      <point x="475" y="845"/>
      <point x="475" y="813" type="curve" smooth="yes"/>
      <point x="475" y="752"/>
      <point x="444" y="729"/>
      <point x="384" y="729" type="curve" smooth="yes"/>
      <point x="290" y="729"/>
      <point x="230" y="775"/>
      <point x="173" y="810" type="curve" smooth="yes"/>
      <point x="172" y="811"/>
      <point x="171" y="811"/>
      <point x="168" y="811" type="curve" smooth="yes"/>
      <point x="155" y="811"/>
      <point x="149" y="803"/>
      <point x="149" y="788" type="curve"/>
      <point x="165" y="718"/>
      <point x="161" y="610"/>
      <point x="189" y="602" type="curve"/>
      <point x="280" y="564"/>
      <point x="345" y="539"/>
      <point x="435" y="539" type="curve" smooth="yes"/>
      <point x="450" y="539"/>
      <point x="467" y="540"/>
    </contour>
  </outline>
</glyph>
<glyph name="acute" format="1">
  <advance width="694"/>
  <unicode hex="00B4"/>
  <outline>
    <contour>
      <point x="234" y="1206" type="curve"/>
      <point x="234" y="1205"/>
      <point x="237" y="1205"/>
      <point x="237" y="1205" type="curve"/>
      <point x="310" y="1238"/>
      <point x="429" y="1351"/>
      <point x="597" y="1501" type="curve"/>
      <point x="624" y="1519"/>
      <point x="647" y="1536"/>
      <point x="670" y="1552" type="curve"/>
      <point x="623" y="1567"/>
      <point x="477" y="1609"/>
      <point x="394" y="1633" type="curve"/>
      <point x="367" y="1635"/>
      <point x="341" y="1637"/>
      <point x="316" y="1637" type="curve"/>
      <point x="293" y="1622"/>
      <point x="274" y="1605"/>
      <point x="253" y="1582" type="curve"/>
      <point x="122" y="1312" type="line"/>
      <point x="100" y="1287"/>
      <point x="81" y="1267"/>
      <point x="63" y="1247" type="curve"/>
      <point x="99" y="1238"/>
      <point x="176" y="1221"/>
    </contour>
  </outline>
</glyph>
